<svg xmlns="http://www.w3.org/2000/svg" viewBox="0 0 1464 24" width="1464" height="24"><g stroke="#000000" stroke-width="2"><path d="M9.5 4c-1.161 0-2.293.368-3.233 1.05-.939.683-1.639 1.646-1.998 2.75-.359 1.105-.359 2.295 0 3.4.359 1.104 1.059 2.067 1.998 2.75.94.682 2.072 1.05 3.233 1.05s2.293-.368 3.233-1.05c.939-.683 1.639-1.646 1.998-2.75.359-1.105.359-2.295 0-3.4-.359-1.104-1.059-2.067-1.998-2.75C11.793 4.368 10.661 4 9.5 4z" fill="none" stroke-dasharray="0,34.558139363857634" stroke-dashoffset="12.786512"/><path d="M13 13l7 7v-8H6" fill="none" stroke-dasharray="13.716782822743019,18.18271211386865" stroke-dashoffset="13.716783"/><g fill="#000000"><path d="M12.7 19.3l-7.9-8M12.7 4.7l-7.9 8"/></g></g><g stroke="#000000" stroke-width="2"><path d="M33.5 4c-1.161 0-2.293.368-3.233 1.05-.939.683-1.639 1.646-1.998 2.75-.359 1.105-.359 2.295 0 3.4.359 1.104 1.059 2.067 1.998 2.75.94.682 2.072 1.05 3.233 1.05s2.293-.368 3.233-1.05c.939-.683 1.639-1.646 1.998-2.75.359-1.105.359-2.295 0-3.4-.359-1.104-1.059-2.067-1.998-2.75C35.793 4.368 34.661 4 33.5 4z" fill="none" stroke-dasharray="0,34.558139363857634" stroke-dashoffset="12.786512"/><path d="M37 13l7 7v-8H30" fill="none" stroke-dasharray="13.71411174595692,18.185383190654747" stroke-dashoffset="13.727658"/><g fill="#000000" stroke-dashoffset="11.215503"><path d="M36.709861 19.3l-7.9-8" stroke-dasharray="11.215502782065995,0.02771739722427819"/><path d="M36.709861 4.7l-7.9 8" stroke-dasharray="11.215502782065993,0.027717397224278188"/></g></g><g stroke="#000000" stroke-width="2"><path d="M57.5 4c-1.161 0-2.293.368-3.233 1.05-.939.683-1.639 1.646-1.998 2.75-.359 1.105-.359 2.295 0 3.4.359 1.104 1.059 2.067 1.998 2.75.94.682 2.072 1.05 3.233 1.05s2.293-.368 3.233-1.05c.939-.683 1.639-1.646 1.998-2.75.359-1.105.359-2.295 0-3.4-.359-1.104-1.059-2.067-1.998-2.75C59.793 4.368 58.661 4 57.5 4z" fill="none" stroke-dasharray="0,34.558139363857634" stroke-dashoffset="12.786512"/><path d="M61 13l7 7v-8H54" fill="none" stroke-dasharray="13.705727556021293,18.193767380590373" stroke-dashoffset="13.761794"/><g fill="#000000" stroke-dashoffset="11.124096"><path d="M60.74238 19.3l-7.9-8" stroke-dasharray="11.12409638861052,0.11912379067975375"/><path d="M60.74238 4.7l-7.9 8" stroke-dasharray="11.124096388610518,0.11912379067975373"/></g></g><g stroke="#000000" stroke-width="2"><path d="M81.5 4c-1.161 0-2.293.368-3.233 1.05-.939.683-1.639 1.646-1.998 2.75-.359 1.105-.359 2.295 0 3.4.359 1.104 1.059 2.067 1.998 2.75.94.682 2.072 1.05 3.233 1.05s2.293-.368 3.233-1.05c.939-.683 1.639-1.646 1.998-2.75.359-1.105.359-2.295 0-3.4-.359-1.104-1.059-2.067-1.998-2.75C83.793 4.368 82.661 4 81.5 4z" fill="none" stroke-dasharray="0,34.558139363857634" stroke-dashoffset="12.786512"/><path d="M85 13l7 7v-8H78" fill="none" stroke-dasharray="13.691013462906167,18.2084814737055" stroke-dashoffset="13.821701"/><g fill="#000000" stroke-dashoffset="10.953735"><path d="M84.80299 19.3l-7.9-8" stroke-dasharray="10.953734706648603,0.2894854726416682"/><path d="M84.80299 4.7l-7.9 8" stroke-dasharray="10.953734706648602,0.28948547264166813"/></g></g><g stroke="#000000" stroke-width="2"><path d="M105.5 4c-1.161 0-2.293.368-3.233 1.05-.939.683-1.639 1.646-1.998 2.75-.359 1.105-.359 2.295 0 3.4.359 1.104 1.059 2.067 1.998 2.75.94.682 2.072 1.05 3.233 1.05s2.293-.368 3.233-1.05c.939-.683 1.639-1.646 1.998-2.75.359-1.105.359-2.295 0-3.4-.359-1.104-1.059-2.067-1.998-2.75-.94-.682-2.072-1.05-3.233-1.05z" fill="none" stroke-dasharray="0,34.558139363857634" stroke-dashoffset="12.786512"/><path d="M109 13l7 7v-8h-14" fill="none" stroke-dasharray="13.669261963947013,18.230232972664655" stroke-dashoffset="13.910261"/><g fill="#000000" stroke-dashoffset="10.684455"><path d="M108.898792 19.3l-7.9-8" stroke-dasharray="10.684454942857348,0.5587652364329244"/><path d="M108.898792 4.7l-7.9 8" stroke-dasharray="10.684454942857347,0.5587652364329243"/></g></g><g stroke="#000000" stroke-width="2"><path d="M129.5 4c-1.161 0-2.293.368-3.233 1.05-.939.683-1.639 1.646-1.998 2.75-.359 1.105-.359 2.295 0 3.4.359 1.104 1.059 2.067 1.998 2.75.94.682 2.072 1.05 3.233 1.05s2.293-.368 3.233-1.05c.939-.683 1.639-1.646 1.998-2.75.359-1.105.359-2.295 0-3.4-.359-1.104-1.059-2.067-1.998-2.75-.94-.682-2.072-1.05-3.233-1.05z" fill="none" stroke-dasharray="0,34.558139363857634" stroke-dashoffset="12.786512"/><path d="M133 13l7 7v-8h-14" fill="none" stroke-dasharray="13.639661106354513,18.259833830257154" stroke-dashoffset="14.030778"/><g fill="#000000" stroke-dashoffset="10.291019"><path d="M133.038765 19.3l-7.9-8" stroke-dasharray="10.291018613330687,0.952201565959585"/><path d="M133.038765 4.7l-7.9 8" stroke-dasharray="10.291018613330685,0.9522015659595849"/></g></g><g stroke="#000000" stroke-width="2"><path d="M153.5 4c-1.161 0-2.293.368-3.233 1.05-.939.683-1.639 1.646-1.998 2.75-.359 1.105-.359 2.295 0 3.4.359 1.104 1.059 2.067 1.998 2.75.94.682 2.072 1.05 3.233 1.05s2.293-.368 3.233-1.05c.939-.683 1.639-1.646 1.998-2.75.359-1.105.359-2.295 0-3.4-.359-1.104-1.059-2.067-1.998-2.75-.94-.682-2.072-1.05-3.233-1.05z" fill="none" stroke-dasharray="0,34.558139363857634" stroke-dashoffset="12.786512"/><path d="M157 13l7 7v-8h-14" fill="none" stroke-dasharray="13.601280426982637,18.29821450962903" stroke-dashoffset="14.187043"/><g fill="#000000" stroke-dashoffset="9.744818"><path d="M157.233086 19.3l-7.9-8" stroke-dasharray="9.744818063373161,1.498402115917112"/><path d="M157.233086 4.7l-7.9 8" stroke-dasharray="9.74481806337316,1.4984021159171117"/></g></g><g stroke="#000000" stroke-width="2"><path d="M177.5 4c-1.161 0-2.293.368-3.233 1.05-.939.683-1.639 1.646-1.998 2.75-.359 1.105-.359 2.295 0 3.4.359 1.104 1.059 2.067 1.998 2.75.94.682 2.072 1.05 3.233 1.05s2.293-.368 3.233-1.05c.939-.683 1.639-1.646 1.998-2.75.359-1.105.359-2.295 0-3.4-.359-1.104-1.059-2.067-1.998-2.75-.94-.682-2.072-1.05-3.233-1.05z" fill="none" stroke-dasharray="0,34.558139363857634" stroke-dashoffset="12.786512"/><path d="M181 13l7 7v-8h-14" fill="none" stroke-dasharray="13.553058440456725,18.346436496154944" stroke-dashoffset="14.383375"/><g fill="#000000" stroke-dashoffset="9.023241"><path d="M181.489802 19.3l-7.9-8" stroke-dasharray="9.023241007711519,2.219979171578753"/><path d="M181.489802 4.7l-7.9 8" stroke-dasharray="9.023241007711517,2.219979171578753"/></g></g><g stroke="#000000" stroke-width="2"><path d="M201.5 4c-1.161 0-2.293.368-3.233 1.05-.939.683-1.639 1.646-1.998 2.75-.359 1.105-.359 2.295 0 3.4.359 1.104 1.059 2.067 1.998 2.75.94.682 2.072 1.05 3.233 1.05s2.293-.368 3.233-1.05c.939-.683 1.639-1.646 1.998-2.75.359-1.105.359-2.295 0-3.4-.359-1.104-1.059-2.067-1.998-2.75-.94-.682-2.072-1.05-3.233-1.05z" fill="none" stroke-dasharray="0,34.558139363857634" stroke-dashoffset="12.786512"/><path d="M205 13l7 7v-8h-14" fill="none" stroke-dasharray="13.4937953694227,18.405699567188968" stroke-dashoffset="14.62466"/><g fill="#000000" stroke-dashoffset="8.132384"><path d="M205.806742 19.3l-7.9-8" stroke-dasharray="8.132383845019758,3.110836334270514"/><path d="M205.806742 4.7l-7.9 8" stroke-dasharray="8.132383845019758,3.1108363342705134"/></g></g><g stroke="#000000" stroke-width="2"><path d="M225.5 4c-1.161 0-2.293.368-3.233 1.05-.939.683-1.639 1.646-1.998 2.75-.359 1.105-.359 2.295 0 3.4.359 1.104 1.059 2.067 1.998 2.75.94.682 2.072 1.05 3.233 1.05s2.293-.368 3.233-1.05c.939-.683 1.639-1.646 1.998-2.75.359-1.105.359-2.295 0-3.4-.359-1.104-1.059-2.067-1.998-2.75-.94-.682-2.072-1.05-3.233-1.05z" fill="none" stroke-dasharray="0,34.558139363857634" stroke-dashoffset="12.786512"/><path d="M229 13l7 7v-8h-14" fill="none" stroke-dasharray="13.422157910745442,18.477337025866227" stroke-dashoffset="14.916327"/><g fill="#000000" stroke-dashoffset="7.13204"><path d="M230.162634 19.3l-7.9-8" stroke-dasharray="7.13203989768836,4.1111802816019125"/><path d="M230.162634 4.7l-7.9 8" stroke-dasharray="7.132039897688359,4.111180281601912"/></g></g><g stroke="#000000" stroke-width="2"><path d="M249.5 4c-1.161 0-2.293.368-3.233 1.05-.939.683-1.639 1.646-1.998 2.75-.359 1.105-.359 2.295 0 3.4.359 1.104 1.059 2.067 1.998 2.75.94.682 2.072 1.05 3.233 1.05s2.293-.368 3.233-1.05c.939-.683 1.639-1.646 1.998-2.75.359-1.105.359-2.295 0-3.4-.359-1.104-1.059-2.067-1.998-2.75-.94-.682-2.072-1.05-3.233-1.05z" fill="none" stroke-dasharray="0,34.558139363857634" stroke-dashoffset="12.786512"/><path d="M253 13l7 7v-8h-14" fill="none" stroke-dasharray="13.33670775960543,18.562787177006236" stroke-dashoffset="15.264231"/><g fill="#000000" stroke-dashoffset="6.121887"><path d="M254.522017 19.3l-7.9-8" stroke-dasharray="6.12188693277837,5.121333246511902"/><path d="M254.522017 4.7l-7.9 8" stroke-dasharray="6.121886932778369,5.1213332465119015"/></g></g><g stroke="#000000" stroke-width="2"><path d="M273.5 4c-1.161 0-2.293.368-3.233 1.05-.939.683-1.639 1.646-1.998 2.75-.359 1.105-.359 2.295 0 3.4.359 1.104 1.059 2.067 1.998 2.75.94.682 2.072 1.05 3.233 1.05s2.293-.368 3.233-1.05c.939-.683 1.639-1.646 1.998-2.75.359-1.105.359-2.295 0-3.4-.359-1.104-1.059-2.067-1.998-2.75-.94-.682-2.072-1.05-3.233-1.05z" fill="none" stroke-dasharray="0,34.558139363857634" stroke-dashoffset="12.786512"/><path d="M277 13l7 7v-8h-14" fill="none" stroke-dasharray="13.23597259767374,18.663522338937927" stroke-dashoffset="15.674367"/><g fill="#000000" stroke-dashoffset="5.186143"><path d="M278.854926 19.3l-7.9-8" stroke-dasharray="5.186142738260484,6.057077441029788"/><path d="M278.854926 4.7l-7.9 8" stroke-dasharray="5.186142738260483,6.057077441029787"/></g></g><g stroke="#000000" stroke-width="2"><path d="M297.5 4c-1.161 0-2.293.368-3.233 1.05-.939.683-1.639 1.646-1.998 2.75-.359 1.105-.359 2.295 0 3.4.359 1.104 1.059 2.067 1.998 2.75.94.682 2.072 1.05 3.233 1.05s2.293-.368 3.233-1.05c.939-.683 1.639-1.646 1.998-2.75.359-1.105.359-2.295 0-3.4-.359-1.104-1.059-2.067-1.998-2.75-.94-.682-2.072-1.05-3.233-1.05z" fill="none" stroke-dasharray="0,34.558139363857634" stroke-dashoffset="12.786512"/><path d="M301 13l7 7v-8h-14" fill="none" stroke-dasharray="13.118585996478803,18.780908940132864" stroke-dashoffset="16.152298"/><g fill="#000000" stroke-dashoffset="4.36275"><path d="M303.147865 19.3l-7.9-8" stroke-dasharray="4.3627499627467925,6.88047021654348"/><path d="M303.147865 4.7l-7.9 8" stroke-dasharray="4.3627499627467925,6.880470216543478"/></g></g><g stroke="#000000" stroke-width="2"><path d="M321.5 4c-1.161 0-2.293.368-3.233 1.05-.939.683-1.639 1.646-1.998 2.75-.359 1.105-.359 2.295 0 3.4.359 1.104 1.059 2.067 1.998 2.75.94.682 2.072 1.05 3.233 1.05s2.293-.368 3.233-1.05c.939-.683 1.639-1.646 1.998-2.75.359-1.105.359-2.295 0-3.4-.359-1.104-1.059-2.067-1.998-2.75-.94-.682-2.072-1.05-3.233-1.05z" fill="none" stroke-dasharray="0,34.558139363857634" stroke-dashoffset="12.786512"/><path d="M325 13l7 7v-8h-14" fill="none" stroke-dasharray="12.983525744766695,18.91596919184497" stroke-dashoffset="16.702187"/><g fill="#000000" stroke-dashoffset="3.655031"><path d="M327.39965 19.3l-7.9-8" stroke-dasharray="3.655031443138724,7.588188736151548"/><path d="M327.39965 4.7l-7.9 8" stroke-dasharray="3.6550314431387236,7.588188736151547"/></g></g><g stroke="#000000" stroke-width="2"><path d="M345.5 4c-1.161 0-2.293.368-3.233 1.05-.939.683-1.639 1.646-1.998 2.75-.359 1.105-.359 2.295 0 3.4.359 1.104 1.059 2.067 1.998 2.75.94.682 2.072 1.05 3.233 1.05s2.293-.368 3.233-1.05c.939-.683 1.639-1.646 1.998-2.75.359-1.105.359-2.295 0-3.4-.359-1.104-1.059-2.067-1.998-2.75-.94-.682-2.072-1.05-3.233-1.05z" fill="none" stroke-dasharray="0,34.558139363857634" stroke-dashoffset="12.786512"/><path d="M349 13l7 7v-8h-14" fill="none" stroke-dasharray="12.830465298095953,19.069029638515712" stroke-dashoffset="17.325361"/><g fill="#000000" stroke-dashoffset="3.051576"><path d="M351.61434 19.3l-7.9-8" stroke-dasharray="3.051576426633298,8.191643752656974"/><path d="M351.61434 4.7l-7.9 8" stroke-dasharray="3.0515764266332974,8.191643752656974"/></g></g><g stroke="#000000" stroke-width="2"><path d="M369.5 4c-1.161 0-2.293.368-3.233 1.05-.939.683-1.639 1.646-1.998 2.75-.359 1.105-.359 2.295 0 3.4.359 1.104 1.059 2.067 1.998 2.75.94.682 2.072 1.05 3.233 1.05s2.293-.368 3.233-1.05c.939-.683 1.639-1.646 1.998-2.75.359-1.105.359-2.295 0-3.4-.359-1.104-1.059-2.067-1.998-2.75-.94-.682-2.072-1.05-3.233-1.05z" fill="none" stroke-dasharray="0,34.558139363857634" stroke-dashoffset="12.786512"/><path d="M373 13l7 7v-8h-14" fill="none" stroke-dasharray="12.660200399719853,19.239294536891816" stroke-dashoffset="18.018583"/><g fill="#000000" stroke-dashoffset="2.5376"><path d="M375.797198 19.3l-7.9-8" stroke-dasharray="2.5375998802789312,8.705620299011342"/><path d="M375.797198 4.7l-7.9 8" stroke-dasharray="2.537599880278931,8.70562029901134"/></g></g><g stroke="#000000" stroke-width="2"><path d="M393.5 4c-1.161 0-2.293.368-3.233 1.05-.939.683-1.639 1.646-1.998 2.75-.359 1.105-.359 2.295 0 3.4.359 1.104 1.059 2.067 1.998 2.75.94.682 2.072 1.05 3.233 1.05s2.293-.368 3.233-1.05c.939-.683 1.639-1.646 1.998-2.75.359-1.105.359-2.295 0-3.4-.359-1.104-1.059-2.067-1.998-2.75-.94-.682-2.072-1.05-3.233-1.05z" fill="none" stroke-dasharray="0,34.558139363857634" stroke-dashoffset="12.786512"/><path d="M397 13l7 7v-8h-14" fill="none" stroke-dasharray="12.475015386242614,19.424479550369053" stroke-dashoffset="18.77255"/><g fill="#000000" stroke-dashoffset="2.099295"><path d="M399.953134 19.3l-7.9-8" stroke-dasharray="2.09929527951611,9.143924899774163"/><path d="M399.953134 4.7l-7.9 8" stroke-dasharray="2.09929527951611,9.143924899774161"/></g></g><g stroke="#000000" stroke-width="2"><path d="M417.5 4c-1.161 0-2.293.368-3.233 1.05-.939.683-1.639 1.646-1.998 2.75-.359 1.105-.359 2.295 0 3.4.359 1.104 1.059 2.067 1.998 2.75.94.682 2.072 1.05 3.233 1.05s2.293-.368 3.233-1.05c.939-.683 1.639-1.646 1.998-2.75.359-1.105.359-2.295 0-3.4-.359-1.104-1.059-2.067-1.998-2.75-.94-.682-2.072-1.05-3.233-1.05z" fill="none" stroke-dasharray="0,34.558139363857634" stroke-dashoffset="12.786512"/><path d="M421 13l7 7v-8h-14" fill="none" stroke-dasharray="12.278762417631219,19.620732518980446" stroke-dashoffset="19.57158"/><g fill="#000000" stroke-dashoffset="1.724985"><path d="M424.086302 19.3l-7.9-8" stroke-dasharray="1.7249846362257988,9.518235543064474"/><path d="M424.086302 4.7l-7.9 8" stroke-dasharray="1.7249846362257986,9.518235543064472"/></g></g><g stroke="#000000" stroke-width="2"><path d="M441.5 4c-1.161 0-2.293.368-3.233 1.05-.939.683-1.639 1.646-1.998 2.75-.359 1.105-.359 2.295 0 3.4.359 1.104 1.059 2.067 1.998 2.75.94.682 2.072 1.05 3.233 1.05s2.293-.368 3.233-1.05c.939-.683 1.639-1.646 1.998-2.75.359-1.105.359-2.295 0-3.4-.359-1.104-1.059-2.067-1.998-2.75-.94-.682-2.072-1.05-3.233-1.05z" fill="none" stroke-dasharray="0,34.558139363857634" stroke-dashoffset="12.786512"/><path d="M445 13l7 7v-8h-14" fill="none" stroke-dasharray="12.076466160603871,19.823028776007796" stroke-dashoffset="20.395215"/><g fill="#000000" stroke-dashoffset="1.405122"><path d="M448.2001 19.3l-7.9-8" stroke-dasharray="1.4051224856871232,9.83809769360315"/><path d="M448.2001 4.7l-7.9 8" stroke-dasharray="1.405122485687123,9.838097693603148"/></g></g><g stroke="#000000" stroke-width="2"><path d="M465.5 4c-1.161 0-2.293.368-3.233 1.05-.939.683-1.639 1.646-1.998 2.75-.359 1.105-.359 2.295 0 3.4.359 1.104 1.059 2.067 1.998 2.75.94.682 2.072 1.05 3.233 1.05s2.293-.368 3.233-1.05c.939-.683 1.639-1.646 1.998-2.75.359-1.105.359-2.295 0-3.4-.359-1.104-1.059-2.067-1.998-2.75-.94-.682-2.072-1.05-3.233-1.05z" fill="none" stroke-dasharray="0,34.558139363857634" stroke-dashoffset="12.786512"/><path d="M469 13l7 7v-8h-14" fill="none" stroke-dasharray="11.8735084059518,20.025986530659868" stroke-dashoffset="21.221543"/><g fill="#000000" stroke-dashoffset="1.131978"><path d="M472.297276 19.3l-7.9-8" stroke-dasharray="1.1319775973631554,10.111242581927117"/><path d="M472.297276 4.7l-7.9 8" stroke-dasharray="1.1319775973631552,10.111242581927115"/></g></g><g stroke="#000000" stroke-width="2"><path d="M489.5 4c-1.161 0-2.293.368-3.233 1.05-.939.683-1.639 1.646-1.998 2.75-.359 1.105-.359 2.295 0 3.4.359 1.104 1.059 2.067 1.998 2.75.94.682 2.072 1.05 3.233 1.05s2.293-.368 3.233-1.05c.939-.683 1.639-1.646 1.998-2.75.359-1.105.359-2.295 0-3.4-.359-1.104-1.059-2.067-1.998-2.75-.94-.682-2.072-1.05-3.233-1.05z" fill="none" stroke-dasharray="0,34.558139363857634" stroke-dashoffset="12.786512"/><path d="M493 13l7 7v-8h-14" fill="none" stroke-dasharray="11.674728884476695,20.224766052134974" stroke-dashoffset="22.03086"/><g fill="#000000" stroke-dashoffset=".899278"><path d="M496.380064 19.3l-7.9-8" stroke-dasharray="0.8992778345027747,10.343942344787498"/><path d="M496.380064 4.7l-7.9 8" stroke-dasharray="0.8992778345027744,10.343942344787497"/></g></g><g stroke="#000000" stroke-width="2"><path d="M513.5 4c-1.161 0-2.293.368-3.233 1.05-.939.683-1.639 1.646-1.998 2.75-.359 1.105-.359 2.295 0 3.4.359 1.104 1.059 2.067 1.998 2.75.94.682 2.072 1.05 3.233 1.05s2.293-.368 3.233-1.05c.939-.683 1.639-1.646 1.998-2.75.359-1.105.359-2.295 0-3.4-.359-1.104-1.059-2.067-1.998-2.75-.94-.682-2.072-1.05-3.233-1.05z" fill="none" stroke-dasharray="0,34.558139363857634" stroke-dashoffset="12.786512"/><path d="M517 13l7 7v-8h-14" fill="none" stroke-dasharray="11.4838181771802,20.415676759431467" stroke-dashoffset="22.808139"/><g fill="#000000" stroke-dashoffset=".701902"><path d="M520.450284 19.3l-7.9-8" stroke-dasharray="0.7019019950622546,10.541318184228018"/><path d="M520.450284 4.7l-7.9 8" stroke-dasharray="0.7019019950622545,10.541318184228016"/></g></g><g stroke="#000000" stroke-width="2"><path d="M537.5 4c-1.161 0-2.293.368-3.233 1.05-.939.683-1.639 1.646-1.998 2.75-.359 1.105-.359 2.295 0 3.4.359 1.104 1.059 2.067 1.998 2.75.94.682 2.072 1.05 3.233 1.05s2.293-.368 3.233-1.05c.939-.683 1.639-1.646 1.998-2.75.359-1.105.359-2.295 0-3.4-.359-1.104-1.059-2.067-1.998-2.75-.94-.682-2.072-1.05-3.233-1.05z" fill="none" stroke-dasharray="0,34.558139363857634" stroke-dashoffset="12.786512"/><path d="M541 13l7 7v-8h-14" fill="none" stroke-dasharray="11.30314722963099,20.596347706980676" stroke-dashoffset="23.543728"/><g fill="#000000" stroke-dashoffset=".535633"><path d="M544.509438 19.3l-7.9-8" stroke-dasharray="0.5356332867891713,10.707586892501102"/><path d="M544.509438 4.7l-7.9 8" stroke-dasharray="0.5356332867891712,10.7075868925011"/></g></g><g stroke="#000000" stroke-width="2"><path d="M561.5 4c-1.161 0-2.293.368-3.233 1.05-.939.683-1.639 1.646-1.998 2.75-.359 1.105-.359 2.295 0 3.4.359 1.104 1.059 2.067 1.998 2.75.94.682 2.072 1.05 3.233 1.05s2.293-.368 3.233-1.05c.939-.683 1.639-1.646 1.998-2.75.359-1.105.359-2.295 0-3.4-.359-1.104-1.059-2.067-1.998-2.75-.94-.682-2.072-1.05-3.233-1.05z" fill="none" stroke-dasharray="0,34.558139363857634" stroke-dashoffset="12.786512"/><path d="M565 13l7 7v-8h-14" fill="none" stroke-dasharray="11.133927644430862,20.765567292180805" stroke-dashoffset="24.232693"/><g fill="#000000" stroke-dashoffset=".396968"><path d="M568.55877 19.3l-7.9-8" stroke-dasharray="0.39696802160456196,10.84625215768571"/><path d="M568.55877 4.7l-7.9 8" stroke-dasharray="0.3969680216045619,10.84625215768571"/></g></g><g stroke="#000000" stroke-width="2"><path d="M585.5 4c-1.161 0-2.293.368-3.233 1.05-.939.683-1.639 1.646-1.998 2.75-.359 1.105-.359 2.295 0 3.4.359 1.104 1.059 2.067 1.998 2.75.94.682 2.072 1.05 3.233 1.05s2.293-.368 3.233-1.05c.939-.683 1.639-1.646 1.998-2.75.359-1.105.359-2.295 0-3.4-.359-1.104-1.059-2.067-1.998-2.75-.94-.682-2.072-1.05-3.233-1.05z" fill="none" stroke-dasharray="0,34.558139363857634" stroke-dashoffset="12.786512"/><path d="M589 13l7 7v-8h-14" fill="none" stroke-dasharray="10.976512071426413,20.92298286518525" stroke-dashoffset="24.873599"/><g fill="#000000" stroke-dashoffset=".282969"><path d="M592.599328 19.3l-7.9-8" stroke-dasharray="0.28296859907271676,10.960251580217555"/><path d="M592.599328 4.7l-7.9 8" stroke-dasharray="0.2829685990727167,10.960251580217554"/></g></g><g stroke="#000000" stroke-width="2"><path d="M609.5 4c-1.161 0-2.293.368-3.233 1.05-.939.683-1.639 1.646-1.998 2.75-.359 1.105-.359 2.295 0 3.4.359 1.104 1.059 2.067 1.998 2.75.94.682 2.072 1.05 3.233 1.05s2.293-.368 3.233-1.05c.939-.683 1.639-1.646 1.998-2.75.359-1.105.359-2.295 0-3.4-.359-1.104-1.059-2.067-1.998-2.75-.94-.682-2.072-1.05-3.233-1.05z" fill="none" stroke-dasharray="0,34.558139363857634" stroke-dashoffset="12.786512"/><path d="M613 13l7 7v-8h-14" fill="none" stroke-dasharray="10.830693351187806,21.068801585423863" stroke-dashoffset="25.46729"/><g fill="#000000" stroke-dashoffset=".191151"><path d="M616.631994 19.3l-7.9-8" stroke-dasharray="0.19115053657311531,11.052069642717157"/><path d="M616.631994 4.7l-7.9 8" stroke-dasharray="0.1911505365731153,11.052069642717155"/></g></g><g stroke="#000000" stroke-width="2"><path d="M633.5 4c-1.161 0-2.293.368-3.233 1.05-.939.683-1.639 1.646-1.998 2.75-.359 1.105-.359 2.295 0 3.4.359 1.104 1.059 2.067 1.998 2.75.94.682 2.072 1.05 3.233 1.05s2.293-.368 3.233-1.05c.939-.683 1.639-1.646 1.998-2.75.359-1.105.359-2.295 0-3.4-.359-1.104-1.059-2.067-1.998-2.75-.94-.682-2.072-1.05-3.233-1.05z" fill="none" stroke-dasharray="0,34.558139363857634" stroke-dashoffset="12.786512"/><path d="M637 13l7 7v-8h-14" fill="none" stroke-dasharray="10.695940116701166,21.2035548199105" stroke-dashoffset="26.015928"/><g fill="#000000" stroke-dashoffset=".119395"><path d="M640.657523 19.3l-7.9-8" stroke-dasharray="0.11939525629969845,11.123824922990574"/><path d="M640.657523 4.7l-7.9 8" stroke-dasharray="0.11939525629969842,11.123824922990572"/></g></g><g stroke="#000000" stroke-width="2"><path d="M657.5 4c-1.161 0-2.293.368-3.233 1.05-.939.683-1.639 1.646-1.998 2.75-.359 1.105-.359 2.295 0 3.4.359 1.104 1.059 2.067 1.998 2.75.94.682 2.072 1.05 3.233 1.05s2.293-.368 3.233-1.05c.939-.683 1.639-1.646 1.998-2.75.359-1.105.359-2.295 0-3.4-.359-1.104-1.059-2.067-1.998-2.75-.94-.682-2.072-1.05-3.233-1.05z" fill="none" stroke-dasharray="0,34.558139363857634" stroke-dashoffset="12.786512"/><path d="M661 13l7 7v-8h-14" fill="none" stroke-dasharray="10.571559512250195,21.327935424361474" stroke-dashoffset="26.522335"/><g fill="#000000" stroke-dashoffset=".065882"><path d="M664.676561 19.3l-7.9-8" stroke-dasharray="0.06588228296527916,11.177337896324993"/><path d="M664.676561 4.7l-7.9 8" stroke-dasharray="0.06588228296527915,11.17733789632499"/></g></g><g stroke="#000000" stroke-width="2"><path d="M681.5 4c-1.161 0-2.293.368-3.233 1.05-.939.683-1.639 1.646-1.998 2.75-.359 1.105-.359 2.295 0 3.4.359 1.104 1.059 2.067 1.998 2.75.94.682 2.072 1.05 3.233 1.05s2.293-.368 3.233-1.05c.939-.683 1.639-1.646 1.998-2.75.359-1.105.359-2.295 0-3.4-.359-1.104-1.059-2.067-1.998-2.75-.94-.682-2.072-1.05-3.233-1.05z" fill="none" stroke-dasharray="0,34.558139363857634" stroke-dashoffset="12.786512"/><path d="M685 13l7 7v-8h-14" fill="none" stroke-dasharray="10.456800061101728,21.44269487550994" stroke-dashoffset="26.98957"/><g fill="#000000" stroke-dashoffset=".029036"><path d="M688.68967 19.3l-7.9-8" stroke-dasharray="0.029036103168261364,11.214184076122011"/><path d="M688.68967 4.7l-7.9 8" stroke-dasharray="0.02903610316826136,11.21418407612201"/></g></g><g stroke="#000000" stroke-width="2"><path d="M705.5 4c-1.161 0-2.293.368-3.233 1.05-.939.683-1.639 1.646-1.998 2.75-.359 1.105-.359 2.295 0 3.4.359 1.104 1.059 2.067 1.998 2.75.94.682 2.072 1.05 3.233 1.05s2.293-.368 3.233-1.05c.939-.683 1.639-1.646 1.998-2.75.359-1.105.359-2.295 0-3.4-.359-1.104-1.059-2.067-1.998-2.75-.94-.682-2.072-1.05-3.233-1.05z" fill="none" stroke-dasharray="0,34.558139363857634" stroke-dashoffset="12.786512"/><path d="M709 13l7 7v-8h-14" fill="none" stroke-dasharray="10.350912140198613,21.548582796413054" stroke-dashoffset="27.420685"/><g fill="#000000" stroke-dashoffset=".007484"><path d="M712.697337 19.3l-7.9-8" stroke-dasharray="0.007484160075473334,11.2357360192148"/><path d="M712.697337 4.7l-7.9 8" stroke-dasharray="0.007484160075473333,11.235736019214798"/></g></g><g stroke="#000000" stroke-width="2"><path d="M729.5 4c-1.161 0-2.293.368-3.233 1.05-.939.683-1.639 1.646-1.998 2.75-.359 1.105-.359 2.295 0 3.4.359 1.104 1.059 2.067 1.998 2.75.94.682 2.072 1.05 3.233 1.05s2.293-.368 3.233-1.05c.939-.683 1.639-1.646 1.998-2.75.359-1.105.359-2.295 0-3.4-.359-1.104-1.059-2.067-1.998-2.75-.94-.682-2.072-1.05-3.233-1.05z" fill="none" stroke-dasharray="0,34.558139363857634" stroke-dashoffset="12.786512"/><path d="M733 13l7 7v-8h-14" fill="none" stroke-dasharray="10.253180846365392,21.64631409024628" stroke-dashoffset="27.818591"/><g fill="#000000" stroke-dashoffset=".000023"><path d="M736.699992 19.3l-7.9-8" stroke-dasharray="0.000023365598395552003,11.243196813691878"/><path d="M736.699992 4.7l-7.9 8" stroke-dasharray="0.000023365598395552,11.243196813691876"/></g></g><g stroke="#000000" stroke-width="2"><path d="M753.5 4c-1.161 0-2.293.368-3.233 1.05-.939.683-1.639 1.646-1.998 2.75-.359 1.105-.359 2.295 0 3.4.359 1.104 1.059 2.067 1.998 2.75.94.682 2.072 1.05 3.233 1.05s2.293-.368 3.233-1.05c.939-.683 1.639-1.646 1.998-2.75.359-1.105.359-2.295 0-3.4-.359-1.104-1.059-2.067-1.998-2.75-.94-.682-2.072-1.05-3.233-1.05z" fill="none" stroke-dasharray="0.07558798069936022,34.482551383158274" stroke-dashoffset="12.8621"/><path d="M757 13l7 7v-8h-14" fill="none" stroke-dasharray="10.162941859560254,21.736553077051415" stroke-dashoffset="28.185992"/><g fill="#000000" stroke-dashoffset="11.24322"><path d="M760.7 19.3l-7.9-8" stroke-dasharray="0,11.243220179290272"/><path d="M760.7 4.7l-7.9 8" stroke-dasharray="0,11.24322017929027"/></g></g><g stroke="#000000" stroke-width="2"><path d="M777.5 4c-1.161 0-2.293.368-3.233 1.05-.939.683-1.639 1.646-1.998 2.75-.359 1.105-.359 2.295 0 3.4.359 1.104 1.059 2.067 1.998 2.75.94.682 2.072 1.05 3.233 1.05s2.293-.368 3.233-1.05c.939-.683 1.639-1.646 1.998-2.75.359-1.105.359-2.295 0-3.4-.359-1.104-1.059-2.067-1.998-2.75-.94-.682-2.072-1.05-3.233-1.05z" fill="none" stroke-dasharray="0.34593330339965067,34.21220606045799" stroke-dashoffset="13.132445"/><path d="M781 13l7 7v-8h-14" fill="none" stroke-dasharray="10.07958729475946,21.819907641852204" stroke-dashoffset="28.525365"/><g fill="#000000" stroke-dashoffset="11.24322"><path d="M784.7 19.3l-7.9-8" stroke-dasharray="0,11.243220179290272"/><path d="M784.7 4.7l-7.9 8" stroke-dasharray="0,11.24322017929027"/></g></g><g stroke="#000000" stroke-width="2"><path d="M801.5 4c-1.161 0-2.293.368-3.233 1.05-.939.683-1.639 1.646-1.998 2.75-.359 1.105-.359 2.295 0 3.4.359 1.104 1.059 2.067 1.998 2.75.94.682 2.072 1.05 3.233 1.05s2.293-.368 3.233-1.05c.939-.683 1.639-1.646 1.998-2.75.359-1.105.359-2.295 0-3.4-.359-1.104-1.059-2.067-1.998-2.75-.94-.682-2.072-1.05-3.233-1.05z" fill="none" stroke-dasharray="0.8581184925096658,33.70002087134797" stroke-dashoffset="13.64463"/><path d="M805 13l7 7v-8h-14" fill="none" stroke-dasharray="10.002565926678647,21.89692900993302" stroke-dashoffset="28.838952"/><g fill="#000000" stroke-dashoffset="11.24322"><path d="M808.7 19.3l-7.9-8" stroke-dasharray="0,11.243220179290272"/><path d="M808.7 4.7l-7.9 8" stroke-dasharray="0,11.24322017929027"/></g></g><g stroke="#000000" stroke-width="2"><path d="M825.5 4c-1.161 0-2.293.368-3.233 1.05-.939.683-1.639 1.646-1.998 2.75-.359 1.105-.359 2.295 0 3.4.359 1.104 1.059 2.067 1.998 2.75.94.682 2.072 1.05 3.233 1.05s2.293-.368 3.233-1.05c.939-.683 1.639-1.646 1.998-2.75.359-1.105.359-2.295 0-3.4-.359-1.104-1.059-2.067-1.998-2.75-.94-.682-2.072-1.05-3.233-1.05z" fill="none" stroke-dasharray="1.673442766249169,32.88469659760847" stroke-dashoffset="14.459954"/><path d="M829 13l7 7v-8h-14" fill="none" stroke-dasharray="9.931380444772937,21.96811449183873" stroke-dashoffset="29.128778"/><g fill="#000000" stroke-dashoffset="11.24322"><path d="M832.7 19.3l-7.9-8" stroke-dasharray="0,11.243220179290272"/><path d="M832.7 4.7l-7.9 8" stroke-dasharray="0,11.24322017929027"/></g></g><g stroke="#000000" stroke-width="2"><path d="M849.5 4c-1.161 0-2.293.368-3.233 1.05-.939.683-1.639 1.646-1.998 2.75-.359 1.105-.359 2.295 0 3.4.359 1.104 1.059 2.067 1.998 2.75.94.682 2.072 1.05 3.233 1.05s2.293-.368 3.233-1.05c.939-.683 1.639-1.646 1.998-2.75.359-1.105.359-2.295 0-3.4-.359-1.104-1.059-2.067-1.998-2.75-.94-.682-2.072-1.05-3.233-1.05z" fill="none" stroke-dasharray="2.8696863253055653,31.68845303855207" stroke-dashoffset="15.656198"/><path d="M853 13l7 7v-8h-14" fill="none" stroke-dasharray="9.865583305275212,22.033911631336455" stroke-dashoffset="29.396667"/><g fill="#000000" stroke-dashoffset="11.24322"><path d="M856.7 19.3l-7.9-8" stroke-dasharray="0,11.243220179290272"/><path d="M856.7 4.7l-7.9 8" stroke-dasharray="0,11.24322017929027"/></g></g><g stroke="#000000" stroke-width="2"><path d="M873.5 4c-1.161 0-2.293.368-3.233 1.05-.939.683-1.639 1.646-1.998 2.75-.359 1.105-.359 2.295 0 3.4.359 1.104 1.059 2.067 1.998 2.75.94.682 2.072 1.05 3.233 1.05s2.293-.368 3.233-1.05c.939-.683 1.639-1.646 1.998-2.75.359-1.105.359-2.295 0-3.4-.359-1.104-1.059-2.067-1.998-2.75-.94-.682-2.072-1.05-3.233-1.05z" fill="none" stroke-dasharray="4.535724065041294,30.02241529881634" stroke-dashoffset="17.322236"/><path d="M877 13l7 7v-8h-14" fill="none" stroke-dasharray="9.804772077831627,22.09472285878004" stroke-dashoffset="29.644255"/><g fill="#000000" stroke-dashoffset="11.24322"><path d="M880.7 19.3l-7.9-8" stroke-dasharray="0,11.243220179290272"/><path d="M880.7 4.7l-7.9 8" stroke-dasharray="0,11.24322017929027"/></g></g><g stroke="#000000" stroke-width="2"><path d="M897.5 4c-1.161 0-2.293.368-3.233 1.05-.939.683-1.639 1.646-1.998 2.75-.359 1.105-.359 2.295 0 3.4.359 1.104 1.059 2.067 1.998 2.75.94.682 2.072 1.05 3.233 1.05s2.293-.368 3.233-1.05c.939-.683 1.639-1.646 1.998-2.75.359-1.105.359-2.295 0-3.4-.359-1.104-1.059-2.067-1.998-2.75-.94-.682-2.072-1.05-3.233-1.05z" fill="none" stroke-dasharray="6.743554060086784,27.81458530377085" stroke-dashoffset="19.530066"/><path d="M901 13l7 7v-8h-14" fill="none" stroke-dasharray="9.748584781898423,22.150910154713245" stroke-dashoffset="29.873018"/><g fill="#000000" stroke-dashoffset="11.24322"><path d="M904.7 19.3l-7.9-8" stroke-dasharray="0,11.243220179290272"/><path d="M904.7 4.7l-7.9 8" stroke-dasharray="0,11.24322017929027"/></g></g><g stroke="#000000" stroke-width="2"><path d="M921.5 4c-1.161 0-2.293.368-3.233 1.05-.939.683-1.639 1.646-1.998 2.75-.359 1.105-.359 2.295 0 3.4.359 1.104 1.059 2.067 1.998 2.75.94.682 2.072 1.05 3.233 1.05s2.293-.368 3.233-1.05c.939-.683 1.639-1.646 1.998-2.75.359-1.105.359-2.295 0-3.4-.359-1.104-1.059-2.067-1.998-2.75-.94-.682-2.072-1.05-3.233-1.05z" fill="none" stroke-dasharray="9.478701256215468,25.079438107642165" stroke-dashoffset="22.265213"/><path d="M925 13l7 7v-8h-14" fill="none" stroke-dasharray="9.69669547017011,22.202799466441558" stroke-dashoffset="30.084281"/><g fill="#000000" stroke-dashoffset="11.24322"><path d="M928.7 19.3l-7.9-8" stroke-dasharray="0,11.243220179290272"/><path d="M928.7 4.7l-7.9 8" stroke-dasharray="0,11.24322017929027"/></g></g><g stroke="#000000" stroke-width="2"><path d="M945.5 4c-1.161 0-2.293.368-3.233 1.05-.939.683-1.639 1.646-1.998 2.75-.359 1.105-.359 2.295 0 3.4.359 1.104 1.059 2.067 1.998 2.75.94.682 2.072 1.05 3.233 1.05s2.293-.368 3.233-1.05c.939-.683 1.639-1.646 1.998-2.75.359-1.105.359-2.295 0-3.4-.359-1.104-1.059-2.067-1.998-2.75-.94-.682-2.072-1.05-3.233-1.05z" fill="none" stroke-dasharray="12.560531795675374,21.99760756818226" stroke-dashoffset="25.347043"/><path d="M949 13l7 7v-8h-14" fill="none" stroke-dasharray="9.648810178187418,22.25068475842425" stroke-dashoffset="30.279243"/><g fill="#000000" stroke-dashoffset="11.24322"><path d="M952.7 19.3l-7.9-8" stroke-dasharray="0,11.243220179290272"/><path d="M952.7 4.7l-7.9 8" stroke-dasharray="0,11.24322017929027"/></g></g><g stroke="#000000" stroke-width="2"><path d="M969.5 4c-1.161 0-2.293.368-3.233 1.05-.939.683-1.639 1.646-1.998 2.75-.359 1.105-.359 2.295 0 3.4.359 1.104 1.059 2.067 1.998 2.75.94.682 2.072 1.05 3.233 1.05s2.293-.368 3.233-1.05c.939-.683 1.639-1.646 1.998-2.75.359-1.105.359-2.295 0-3.4-.359-1.104-1.059-2.067-1.998-2.75-.94-.682-2.072-1.05-3.233-1.05z" fill="none" stroke-dasharray="15.680398965376147,18.87774039848149" stroke-dashoffset="28.466911"/><path d="M973 13l7 7v-8h-14" fill="none" stroke-dasharray="9.604663280966726,22.29483165564494" stroke-dashoffset="30.458984"/><g fill="#000000" stroke-dashoffset="11.24322"><path d="M976.7 19.3l-7.9-8" stroke-dasharray="0,11.243220179290272"/><path d="M976.7 4.7l-7.9 8" stroke-dasharray="0,11.24322017929027"/></g></g><g stroke="#000000" stroke-width="2"><path d="M993.5 4c-1.161 0-2.293.368-3.233 1.05-.939.683-1.639 1.646-1.998 2.75-.359 1.105-.359 2.295 0 3.4.359 1.104 1.059 2.067 1.998 2.75.94.682 2.072 1.05 3.233 1.05s2.293-.368 3.233-1.05c.939-.683 1.639-1.646 1.998-2.75.359-1.105.359-2.295 0-3.4-.359-1.104-1.059-2.067-1.998-2.75-.94-.682-2.072-1.05-3.233-1.05z" fill="none" stroke-dasharray="18.573712611101467,15.984426752756166" stroke-dashoffset="31.360224"/><path d="M997 13l7 7v-8h-14" fill="none" stroke-dasharray="9.564014254684931,22.335480681926736" stroke-dashoffset="30.624483"/><g fill="#000000" stroke-dashoffset="11.24322"><path d="M1000.7 19.3l-7.9-8" stroke-dasharray="0,11.243220179290272"/><path d="M1000.7 4.7l-7.9 8" stroke-dasharray="0,11.24322017929027"/></g></g><g stroke="#000000" stroke-width="2"><path d="M1017.5 4c-1.161 0-2.293.368-3.233 1.05-.939.683-1.639 1.646-1.998 2.75-.359 1.105-.359 2.295 0 3.4.359 1.104 1.059 2.067 1.998 2.75.94.682 2.072 1.05 3.233 1.05s2.293-.368 3.233-1.05c.939-.683 1.639-1.646 1.998-2.75.359-1.105.359-2.295 0-3.4-.359-1.104-1.059-2.067-1.998-2.75-.94-.682-2.072-1.05-3.233-1.05z" fill="none" stroke-dasharray="21.1198539762885,13.438285387569133" stroke-dashoffset="33.906366"/><path d="M1021 13l7 7v-8h-14" fill="none" stroke-dasharray="9.52664481947585,22.37285011713582" stroke-dashoffset="30.77663"/><g fill="#000000" stroke-dashoffset="11.24322"><path d="M1024.7 19.3l-7.9-8" stroke-dasharray="0,11.243220179290272"/><path d="M1024.7 4.7l-7.9 8" stroke-dasharray="0,11.24322017929027"/></g></g><g stroke="#000000" stroke-width="2"><path d="M1041.5 4c-1.161 0-2.293.368-3.233 1.05-.939.683-1.639 1.646-1.998 2.75-.359 1.105-.359 2.295 0 3.4.359 1.104 1.059 2.067 1.998 2.75.94.682 2.072 1.05 3.233 1.05s2.293-.368 3.233-1.05c.939-.683 1.639-1.646 1.998-2.75.359-1.105.359-2.295 0-3.4-.359-1.104-1.059-2.067-1.998-2.75-.94-.682-2.072-1.05-3.233-1.05z" fill="none" stroke-dasharray="23.307371387108823,11.250767976748811" stroke-dashoffset="1.535744"/><path d="M1045 13l7 7v-8h-14" fill="none" stroke-dasharray="9.49235642945206,22.40713850715961" stroke-dashoffset="30.916233"/><g fill="#000000" stroke-dashoffset="11.24322"><path d="M1048.7 19.3l-7.9-8" stroke-dasharray="0,11.243220179290272"/><path d="M1048.7 4.7l-7.9 8" stroke-dasharray="0,11.24322017929027"/></g></g><g stroke="#000000" stroke-width="2"><path d="M1065.5 4c-1.161 0-2.293.368-3.233 1.05-.939.683-1.639 1.646-1.998 2.75-.359 1.105-.359 2.295 0 3.4.359 1.104 1.059 2.067 1.998 2.75.94.682 2.072 1.05 3.233 1.05s2.293-.368 3.233-1.05c.939-.683 1.639-1.646 1.998-2.75.359-1.105.359-2.295 0-3.4-.359-1.104-1.059-2.067-1.998-2.75-.94-.682-2.072-1.05-3.233-1.05z" fill="none" stroke-dasharray="25.171487927019772,9.386651436837864" stroke-dashoffset="3.39986"/><path d="M1069 13l7 7v-8h-14" fill="none" stroke-dasharray="9.460968072917534,22.438526863694133" stroke-dashoffset="31.044029"/><g fill="#000000" stroke-dashoffset="11.24322"><path d="M1072.7 19.3l-7.9-8" stroke-dasharray="0,11.243220179290272"/><path d="M1072.7 4.7l-7.9 8" stroke-dasharray="0,11.24322017929027"/></g></g><g stroke="#000000" stroke-width="2"><path d="M1089.5 4c-1.161 0-2.293.368-3.233 1.05-.939.683-1.639 1.646-1.998 2.75-.359 1.105-.359 2.295 0 3.4.359 1.104 1.059 2.067 1.998 2.75.94.682 2.072 1.05 3.233 1.05s2.293-.368 3.233-1.05c.939-.683 1.639-1.646 1.998-2.75.359-1.105.359-2.295 0-3.4-.359-1.104-1.059-2.067-1.998-2.75-.94-.682-2.072-1.05-3.233-1.05z" fill="none" stroke-dasharray="26.75817649148494,7.799962872372696" stroke-dashoffset="4.986549"/><path d="M1093 13l7 7v-8h-14" fill="none" stroke-dasharray="9.432314346277735,22.467180590333932" stroke-dashoffset="31.16069"/><g fill="#000000" stroke-dashoffset="11.24322"><path d="M1096.7 19.3l-7.9-8" stroke-dasharray="0,11.243220179290272"/><path d="M1096.7 4.7l-7.9 8" stroke-dasharray="0,11.24322017929027"/></g></g><g stroke="#000000" stroke-width="2"><path d="M1113.5 4c-1.161 0-2.293.368-3.233 1.05-.939.683-1.639 1.646-1.998 2.75-.359 1.105-.359 2.295 0 3.4.359 1.104 1.059 2.067 1.998 2.75.94.682 2.072 1.05 3.233 1.05s2.293-.368 3.233-1.05c.939-.683 1.639-1.646 1.998-2.75.359-1.105.359-2.295 0-3.4-.359-1.104-1.059-2.067-1.998-2.75-.94-.682-2.072-1.05-3.233-1.05z" fill="none" stroke-dasharray="28.110395598312763,6.447743765544872" stroke-dashoffset="6.338768"/><path d="M1117 13l7 7v-8h-14" fill="none" stroke-dasharray="9.406243767566231,22.493251169045436" stroke-dashoffset="31.266835"/><g fill="#000000" stroke-dashoffset="11.24322"><path d="M1120.7 19.3l-7.9-8" stroke-dasharray="0,11.243220179290272"/><path d="M1120.7 4.7l-7.9 8" stroke-dasharray="0,11.24322017929027"/></g></g><g stroke="#000000" stroke-width="2"><path d="M1137.5 4c-1.161 0-2.293.368-3.233 1.05-.939.683-1.639 1.646-1.998 2.75-.359 1.105-.359 2.295 0 3.4.359 1.104 1.059 2.067 1.998 2.75.94.682 2.072 1.05 3.233 1.05s2.293-.368 3.233-1.05c.939-.683 1.639-1.646 1.998-2.75.359-1.105.359-2.295 0-3.4-.359-1.104-1.059-2.067-1.998-2.75-.94-.682-2.072-1.05-3.233-1.05z" fill="none" stroke-dasharray="29.264460226331042,5.293679137526592" stroke-dashoffset="7.492832"/><path d="M1141 13l7 7v-8h-14" fill="none" stroke-dasharray="9.38261729874038,22.516877637871286" stroke-dashoffset="31.363028"/><g fill="#000000" stroke-dashoffset="11.24322"><path d="M1144.7 19.3l-7.9-8" stroke-dasharray="0,11.243220179290272"/><path d="M1144.7 4.7l-7.9 8" stroke-dasharray="0,11.24322017929027"/></g></g><g stroke="#000000" stroke-width="2"><path d="M1161.5 4c-1.161 0-2.293.368-3.233 1.05-.939.683-1.639 1.646-1.998 2.75-.359 1.105-.359 2.295 0 3.4.359 1.104 1.059 2.067 1.998 2.75.94.682 2.072 1.05 3.233 1.05s2.293-.368 3.233-1.05c.939-.683 1.639-1.646 1.998-2.75.359-1.105.359-2.295 0-3.4-.359-1.104-1.059-2.067-1.998-2.75-.94-.682-2.072-1.05-3.233-1.05z" fill="none" stroke-dasharray="30.250028905666635,4.308110458190999" stroke-dashoffset="8.478401"/><path d="M1165 13l7 7v-8h-14" fill="none" stroke-dasharray="9.361307049362486,22.53818788724918" stroke-dashoffset="31.449791"/><g fill="#000000" stroke-dashoffset="11.24322"><path d="M1168.7 19.3l-7.9-8" stroke-dasharray="0,11.243220179290272"/><path d="M1168.7 4.7l-7.9 8" stroke-dasharray="0,11.24322017929027"/></g></g><g stroke="#000000" stroke-width="2"><path d="M1185.5 4c-1.161 0-2.293.368-3.233 1.05-.939.683-1.639 1.646-1.998 2.75-.359 1.105-.359 2.295 0 3.4.359 1.104 1.059 2.067 1.998 2.75.94.682 2.072 1.05 3.233 1.05s2.293-.368 3.233-1.05c.939-.683 1.639-1.646 1.998-2.75.359-1.105.359-2.295 0-3.4-.359-1.104-1.059-2.067-1.998-2.75-.94-.682-2.072-1.05-3.233-1.05z" fill="none" stroke-dasharray="31.09110281629759,3.4670365475600473" stroke-dashoffset="9.319475"/><path d="M1189 13l7 7v-8h-14" fill="none" stroke-dasharray="9.342195137658361,22.557299798953306" stroke-dashoffset="31.527604"/><g fill="#000000" stroke-dashoffset="11.24322"><path d="M1192.7 19.3l-7.9-8" stroke-dasharray="0,11.243220179290272"/><path d="M1192.7 4.7l-7.9 8" stroke-dasharray="0,11.24322017929027"/></g></g><g stroke="#000000" stroke-width="2"><path d="M1209.5 4c-1.161 0-2.293.368-3.233 1.05-.939.683-1.639 1.646-1.998 2.75-.359 1.105-.359 2.295 0 3.4.359 1.104 1.059 2.067 1.998 2.75.94.682 2.072 1.05 3.233 1.05s2.293-.368 3.233-1.05c.939-.683 1.639-1.646 1.998-2.75.359-1.105.359-2.295 0-3.4-.359-1.104-1.059-2.067-1.998-2.75-.94-.682-2.072-1.05-3.233-1.05z" fill="none" stroke-dasharray="31.807138316934214,2.7510010469234203" stroke-dashoffset="10.035511"/><path d="M1213 13l7 7v-8h-14" fill="none" stroke-dasharray="9.325172688072497,22.57432224853917" stroke-dashoffset="31.59691"/><g fill="#000000" stroke-dashoffset="11.24322"><path d="M1216.7 19.3l-7.9-8" stroke-dasharray="0,11.243220179290272"/><path d="M1216.7 4.7l-7.9 8" stroke-dasharray="0,11.24322017929027"/></g></g><g stroke="#000000" stroke-width="2"><path d="M1233.5 4c-1.161 0-2.293.368-3.233 1.05-.939.683-1.639 1.646-1.998 2.75-.359 1.105-.359 2.295 0 3.4.359 1.104 1.059 2.067 1.998 2.75.94.682 2.072 1.05 3.233 1.05s2.293-.368 3.233-1.05c.939-.683 1.639-1.646 1.998-2.75.359-1.105.359-2.295 0-3.4-.359-1.104-1.059-2.067-1.998-2.75-.94-.682-2.072-1.05-3.233-1.05z" fill="none" stroke-dasharray="32.4140105808235,2.1441287830341347" stroke-dashoffset="10.642383"/><path d="M1237 13l7 7v-8h-14" fill="none" stroke-dasharray="9.310138947252067,22.5893559893596" stroke-dashoffset="31.658119"/><g fill="#000000" stroke-dashoffset="11.24322"><path d="M1240.7 19.3l-7.9-8" stroke-dasharray="0,11.243220179290272"/><path d="M1240.7 4.7l-7.9 8" stroke-dasharray="0,11.24322017929027"/></g></g><g stroke="#000000" stroke-width="2"><path d="M1257.5 4c-1.161 0-2.293.368-3.233 1.05-.939.683-1.639 1.646-1.998 2.75-.359 1.105-.359 2.295 0 3.4.359 1.104 1.059 2.067 1.998 2.75.94.682 2.072 1.05 3.233 1.05s2.293-.368 3.233-1.05c.939-.683 1.639-1.646 1.998-2.75.359-1.105.359-2.295 0-3.4-.359-1.104-1.059-2.067-1.998-2.75-.94-.682-2.072-1.05-3.233-1.05z" fill="none" stroke-dasharray="32.9247833195132,1.6333560443444326" stroke-dashoffset="11.153156"/><path d="M1261 13l7 7v-8h-14" fill="none" stroke-dasharray="9.297000502873669,22.602494433738" stroke-dashoffset="31.711611"/><g fill="#000000" stroke-dashoffset="11.24322"><path d="M1264.7 19.3l-7.9-8" stroke-dasharray="0,11.243220179290272"/><path d="M1264.7 4.7l-7.9 8" stroke-dasharray="0,11.24322017929027"/></g></g><g stroke="#000000" stroke-width="2"><path d="M1281.5 4c-1.161 0-2.293.368-3.233 1.05-.939.683-1.639 1.646-1.998 2.75-.359 1.105-.359 2.295 0 3.4.359 1.104 1.059 2.067 1.998 2.75.94.682 2.072 1.05 3.233 1.05s2.293-.368 3.233-1.05c.939-.683 1.639-1.646 1.998-2.75.359-1.105.359-2.295 0-3.4-.359-1.104-1.059-2.067-1.998-2.75-.94-.682-2.072-1.05-3.233-1.05z" fill="none" stroke-dasharray="33.35030531482862,1.2078340490290151" stroke-dashoffset="11.578678"/><path d="M1285 13l7 7v-8h-14" fill="none" stroke-dasharray="9.28567059189083,22.613824344720836" stroke-dashoffset="31.75774"/><g fill="#000000" stroke-dashoffset="11.24322"><path d="M1288.7 19.3l-7.9-8" stroke-dasharray="0,11.243220179290272"/><path d="M1288.7 4.7l-7.9 8" stroke-dasharray="0,11.24322017929027"/></g></g><g stroke="#000000" stroke-width="2"><path d="M1305.5 4c-1.161 0-2.293.368-3.233 1.05-.939.683-1.639 1.646-1.998 2.75-.359 1.105-.359 2.295 0 3.4.359 1.104 1.059 2.067 1.998 2.75.94.682 2.072 1.05 3.233 1.05s2.293-.368 3.233-1.05c.939-.683 1.639-1.646 1.998-2.75.359-1.105.359-2.295 0-3.4-.359-1.104-1.059-2.067-1.998-2.75-.94-.682-2.072-1.05-3.233-1.05z" fill="none" stroke-dasharray="33.699668333609445,0.8584710302481924" stroke-dashoffset="11.928041"/><path d="M1309 13l7 7v-8h-14" fill="none" stroke-dasharray="9.276068486651152,22.623426449960515" stroke-dashoffset="31.796834"/><g fill="#000000" stroke-dashoffset="11.24322"><path d="M1312.7 19.3l-7.9-8" stroke-dasharray="0,11.243220179290272"/><path d="M1312.7 4.7l-7.9 8" stroke-dasharray="0,11.24322017929027"/></g></g><g stroke="#000000" stroke-width="2"><path d="M1329.5 4c-1.161 0-2.293.368-3.233 1.05-.939.683-1.639 1.646-1.998 2.75-.359 1.105-.359 2.295 0 3.4.359 1.104 1.059 2.067 1.998 2.75.94.682 2.072 1.05 3.233 1.05s2.293-.368 3.233-1.05c.939-.683 1.639-1.646 1.998-2.75.359-1.105.359-2.295 0-3.4-.359-1.104-1.059-2.067-1.998-2.75-.94-.682-2.072-1.05-3.233-1.05z" fill="none" stroke-dasharray="33.98055865596068,0.5775807078969583" stroke-dashoffset="12.208931"/><path d="M1333 13l7 7v-8h-14" fill="none" stroke-dasharray="9.268118948941543,22.631375987670122" stroke-dashoffset="31.8292"/><g fill="#000000" stroke-dashoffset="11.24322"><path d="M1336.7 19.3l-7.9-8" stroke-dasharray="0,11.243220179290272"/><path d="M1336.7 4.7l-7.9 8" stroke-dasharray="0,11.24322017929027"/></g></g><g stroke="#000000" stroke-width="2"><path d="M1353.5 4c-1.161 0-2.293.368-3.233 1.05-.939.683-1.639 1.646-1.998 2.75-.359 1.105-.359 2.295 0 3.4.359 1.104 1.059 2.067 1.998 2.75.94.682 2.072 1.05 3.233 1.05s2.293-.368 3.233-1.05c.939-.683 1.639-1.646 1.998-2.75.359-1.105.359-2.295 0-3.4-.359-1.104-1.059-2.067-1.998-2.75-.94-.682-2.072-1.05-3.233-1.05z" fill="none" stroke-dasharray="34.19952822784971,0.35861113600792277" stroke-dashoffset="12.4279"/><path d="M1357 13l7 7v-8h-14" fill="none" stroke-dasharray="9.2617517434,22.63774319321167" stroke-dashoffset="31.855124"/><g fill="#000000" stroke-dashoffset="11.24322"><path d="M1360.7 19.3l-7.9-8" stroke-dasharray="0,11.243220179290272"/><path d="M1360.7 4.7l-7.9 8" stroke-dasharray="0,11.24322017929027"/></g></g><g stroke="#000000" stroke-width="2"><path d="M1377.5 4c-1.161 0-2.293.368-3.233 1.05-.939.683-1.639 1.646-1.998 2.75-.359 1.105-.359 2.295 0 3.4.359 1.104 1.059 2.067 1.998 2.75.94.682 2.072 1.05 3.233 1.05s2.293-.368 3.233-1.05c.939-.683 1.639-1.646 1.998-2.75.359-1.105.359-2.295 0-3.4-.359-1.104-1.059-2.067-1.998-2.75-.94-.682-2.072-1.05-3.233-1.05z" fill="none" stroke-dasharray="34.3622053093557,0.19593405450193194" stroke-dashoffset="12.590578"/><path d="M1381 13l7 7v-8h-14" fill="none" stroke-dasharray="9.256901202913205,22.64259373369846" stroke-dashoffset="31.874872"/><g fill="#000000" stroke-dashoffset="11.24322"><path d="M1384.7 19.3l-7.9-8" stroke-dasharray="0,11.243220179290272"/><path d="M1384.7 4.7l-7.9 8" stroke-dasharray="0,11.24322017929027"/></g></g><g stroke="#000000" stroke-width="2"><path d="M1401.5 4c-1.161 0-2.293.368-3.233 1.05-.939.683-1.639 1.646-1.998 2.75-.359 1.105-.359 2.295 0 3.4.359 1.104 1.059 2.067 1.998 2.75.94.682 2.072 1.05 3.233 1.05s2.293-.368 3.233-1.05c.939-.683 1.639-1.646 1.998-2.75.359-1.105.359-2.295 0-3.4-.359-1.104-1.059-2.067-1.998-2.75-.94-.682-2.072-1.05-3.233-1.05z" fill="none" stroke-dasharray="34.47345946545681,0.08467989840081848" stroke-dashoffset="12.701832"/><path d="M1405 13l7 7v-8h-14" fill="none" stroke-dasharray="9.253505839628964,22.645989096982703" stroke-dashoffset="31.888696"/><g fill="#000000" stroke-dashoffset="11.24322"><path d="M1408.7 19.3l-7.9-8" stroke-dasharray="0,11.243220179290272"/><path d="M1408.7 4.7l-7.9 8" stroke-dasharray="0,11.24322017929027"/></g></g><g stroke="#000000" stroke-width="2"><path d="M1425.5 4c-1.161 0-2.293.368-3.233 1.05-.939.683-1.639 1.646-1.998 2.75-.359 1.105-.359 2.295 0 3.4.359 1.104 1.059 2.067 1.998 2.75.94.682 2.072 1.05 3.233 1.05s2.293-.368 3.233-1.05c.939-.683 1.639-1.646 1.998-2.75.359-1.105.359-2.295 0-3.4-.359-1.104-1.059-2.067-1.998-2.75-.94-.682-2.072-1.05-3.233-1.05z" fill="none" stroke-dasharray="34.53753190948485,0.02060745437278863" stroke-dashoffset="12.765904"/><path d="M1429 13l7 7v-8h-14" fill="none" stroke-dasharray="9.251507996075437,22.647986940536228" stroke-dashoffset="31.89683"/><g fill="#000000" stroke-dashoffset="11.24322"><path d="M1432.7 19.3l-7.9-8" stroke-dasharray="0,11.243220179290272"/><path d="M1432.7 4.7l-7.9 8" stroke-dasharray="0,11.24322017929027"/></g></g><g stroke="#000000" stroke-width="2"><path d="M1449.5 4c-1.161 0-2.293.368-3.233 1.05-.939.683-1.639 1.646-1.998 2.75-.359 1.105-.359 2.295 0 3.4.359 1.104 1.059 2.067 1.998 2.75.94.682 2.072 1.05 3.233 1.05s2.293-.368 3.233-1.05c.939-.683 1.639-1.646 1.998-2.75.359-1.105.359-2.295 0-3.4-.359-1.104-1.059-2.067-1.998-2.75-.94-.682-2.072-1.05-3.233-1.05z" fill="none" stroke-dasharray="34.558139363857634,0" stroke-dashoffset="12.786512"/><path d="M1453 13l7 7v-8h-14" fill="none" stroke-dasharray="9.250853531617382,22.648641404994283" stroke-dashoffset="31.899495"/><g fill="#000000" stroke-dashoffset="11.24322"><path d="M1456.7 19.3l-7.9-8" stroke-dasharray="0,11.243220179290272"/><path d="M1456.7 4.7l-7.9 8" stroke-dasharray="0,11.24322017929027"/></g></g></svg>
