<svg xmlns="http://www.w3.org/2000/svg" viewBox="0 0 1464 24" width="1464" height="24"><g><defs><clipPath id="clip_frame0_path_1"><path d="M4 21V9l8-6 8 6v12H4z"/></clipPath><clipPath id="clip_frame0_path_3"><path d="M4 21V9l8-6 8 6v12H4z"/></clipPath><clipPath id="clip_frame0_path_4"><path d="M4 21V9l8-6 8 6v12H4z"/></clipPath><clipPath id="clip_frame0_path_5"><path d="M4 21V9l8-6 8 6v12H4z"/></clipPath></defs><path d="M15 19h3v-9l-6-4.5L6 10v9h3v2H4V9l8-6 8 6v12h-5v-2z" fill="#000000"/><path clip-path="url(#clip_frame0_path_1)" d="M9 13h6v8H9v-8z" fill="#000000"/><path clip-path="url(#clip_frame0_path_5)" d="M16 19v2H8v-2h8z" fill="#000000"/></g><g transform="translate(24)"><defs><clipPath id="clip_frame1_path_1"><path d="M4 21V9l8-6 8 6v12H4z"/></clipPath><clipPath id="clip_frame1_path_3"><path d="M4 21V9l8-6 8 6v12H4z"/></clipPath><clipPath id="clip_frame1_path_4"><path d="M4 21V9l8-6 8 6v12H4z"/></clipPath><clipPath id="clip_frame1_path_5"><path d="M4 21V9l8-6 8 6v12H4z"/></clipPath></defs><path d="M15 19h3v-9l-6-4.5L6 10v9h3v2H4V9l8-6 8 6v12h-5v-2z" fill="#000000"/><path clip-path="url(#clip_frame1_path_1)" d="M8.99 12.978h6.02V21H8.99v-8.022z" fill="#000000"/><path clip-path="url(#clip_frame1_path_5)" d="M16 19v2H8v-2h8z" fill="#000000"/></g><g transform="translate(48)"><defs><clipPath id="clip_frame2_path_1"><path d="M4 21V9l8-6 8 6v12H4z"/></clipPath><clipPath id="clip_frame2_path_3"><path d="M4 21V9l8-6 8 6v12H4z"/></clipPath><clipPath id="clip_frame2_path_4"><path d="M4 21V9l8-6 8 6v12H4z"/></clipPath><clipPath id="clip_frame2_path_5"><path d="M4 21V9l8-6 8 6v12H4z"/></clipPath></defs><path d="M15 19h3v-9l-6-4.5L6 10v9h3v2H4V9l8-6 8 6v12h-5v-2z" fill="#000000"/><path clip-path="url(#clip_frame2_path_1)" d="M8.957 12.904h6.086V21H8.957v-8.096z" fill="#000000"/><path clip-path="url(#clip_frame2_path_5)" d="M16 19v2H8v-2h8z" fill="#000000"/></g><g transform="translate(72)"><defs><clipPath id="clip_frame3_path_1"><path d="M4 21V9l8-6 8 6v12H4z"/></clipPath><clipPath id="clip_frame3_path_3"><path d="M4 21V9l8-6 8 6v12H4z"/></clipPath><clipPath id="clip_frame3_path_4"><path d="M4 21V9l8-6 8 6v12H4z"/></clipPath><clipPath id="clip_frame3_path_5"><path d="M4 21V9l8-6 8 6v12H4z"/></clipPath></defs><path d="M15 19h3v-9l-6-4.5L6 10v9h3v2H4V9l8-6 8 6v12h-5v-2z" fill="#000000"/><path clip-path="url(#clip_frame3_path_1)" d="M8.897 12.767h6.206V21H8.897v-8.233z" fill="#000000"/><path clip-path="url(#clip_frame3_path_5)" d="M16 19v2H8v-2h8z" fill="#000000"/></g><g transform="translate(96)"><defs><clipPath id="clip_frame4_path_1"><path d="M4 21V9l8-6 8 6v12H4z"/></clipPath><clipPath id="clip_frame4_path_3"><path d="M4 21V9l8-6 8 6v12H4z"/></clipPath><clipPath id="clip_frame4_path_4"><path d="M4 21V9l8-6 8 6v12H4z"/></clipPath><clipPath id="clip_frame4_path_5"><path d="M4 21V9l8-6 8 6v12H4z"/></clipPath></defs><path d="M15 19h3v-9l-6-4.5L6 10v9h3v2H4V9l8-6 8 6v12h-5v-2z" fill="#000000"/><path clip-path="url(#clip_frame4_path_1)" d="M8.8 12.551h6.4V21H8.8v-8.449z" fill="#000000"/><path clip-path="url(#clip_frame4_path_5)" d="M16 19v2H8v-2h8z" fill="#000000"/></g><g transform="translate(120)"><defs><clipPath id="clip_frame5_path_1"><path d="M4 21V9l8-6 8 6v12H4z"/></clipPath><clipPath id="clip_frame5_path_3"><path d="M4 21V9l8-6 8 6v12H4z"/></clipPath><clipPath id="clip_frame5_path_4"><path d="M4 21V9l8-6 8 6v12H4z"/></clipPath><clipPath id="clip_frame5_path_5"><path d="M4 21V9l8-6 8 6v12H4z"/></clipPath></defs><path d="M15 19h3v-9l-6-4.5L6 10v9h3v2H4V9l8-6 8 6v12h-5v-2z" fill="#000000"/><path clip-path="url(#clip_frame5_path_1)" d="M8.66 12.234h6.68V21H8.66v-8.766z" fill="#000000"/><path clip-path="url(#clip_frame5_path_5)" d="M16 19v2H8v-2h8z" fill="#000000"/></g><g transform="translate(144)"><defs><clipPath id="clip_frame6_path_1"><path d="M4 21V9l8-6 8 6v12H4z"/></clipPath><clipPath id="clip_frame6_path_3"><path d="M4 21V9l8-6 8 6v12H4z"/></clipPath><clipPath id="clip_frame6_path_4"><path d="M4 21V9l8-6 8 6v12H4z"/></clipPath><clipPath id="clip_frame6_path_5"><path d="M4 21V9l8-6 8 6v12H4z"/></clipPath></defs><path d="M15 19h3v-9l-6-4.5L6 10v9h3v2H4V9l8-6 8 6v12h-5v-2z" fill="#000000"/><path clip-path="url(#clip_frame6_path_1)" d="M8.464 11.794h7.072V21H8.464v-9.206z" fill="#000000"/><path clip-path="url(#clip_frame6_path_5)" d="M16 19v2H8v-2h8z" fill="#000000"/></g><g transform="translate(168)"><defs><clipPath id="clip_frame7_path_1"><path d="M4 21V9l8-6 8 6v12H4z"/></clipPath><clipPath id="clip_frame7_path_3"><path d="M4 21V9l8-6 8 6v12H4z"/></clipPath><clipPath id="clip_frame7_path_4"><path d="M4 21V9l8-6 8 6v12H4z"/></clipPath><clipPath id="clip_frame7_path_5"><path d="M4 21V9l8-6 8 6v12H4z"/></clipPath></defs><path d="M15 19h3v-9l-6-4.5L6 10v9h3v2H4V9l8-6 8 6v12h-5v-2z" fill="#000000"/><path clip-path="url(#clip_frame7_path_1)" d="M8.206 11.214h7.588V21H8.206v-9.786z" fill="#000000"/><path clip-path="url(#clip_frame7_path_5)" d="M16 19v2H8v-2h8z" fill="#000000"/></g><g transform="translate(192)"><defs><clipPath id="clip_frame8_path_1"><path d="M4 21V9l8-6 8 6v12H4z"/></clipPath><clipPath id="clip_frame8_path_3"><path d="M4 21V9l8-6 8 6v12H4z"/></clipPath><clipPath id="clip_frame8_path_4"><path d="M4 21V9l8-6 8 6v12H4z"/></clipPath><clipPath id="clip_frame8_path_5"><path d="M4 21V9l8-6 8 6v12H4z"/></clipPath></defs><path d="M15 19h3v-9l-6-4.5L6 10v9h3v2H4V9l8-6 8 6v12h-5v-2z" fill="#000000"/><path clip-path="url(#clip_frame8_path_1)" d="M7.888 10.498h8.224V21H7.888V10.498z" fill="#000000"/><path clip-path="url(#clip_frame8_path_5)" d="M16 19v2H8v-2h8z" fill="#000000"/></g><g transform="translate(216)"><defs><clipPath id="clip_frame9_path_1"><path d="M4 21V9l8-6 8 6v12H4z"/></clipPath><clipPath id="clip_frame9_path_3"><path d="M4 21V9l8-6 8 6v12H4z"/></clipPath><clipPath id="clip_frame9_path_4"><path d="M4 21V9l8-6 8 6v12H4z"/></clipPath><clipPath id="clip_frame9_path_5"><path d="M4 21V9l8-6 8 6v12H4z"/></clipPath></defs><path d="M15 19h3v-9l-6-4.5L6 10v9h3v2H4V9l8-6 8 6v12h-5v-2z" fill="#000000"/><path clip-path="url(#clip_frame9_path_1)" d="M7.531 9.694h8.938V21H7.531V9.694z" fill="#000000"/><path clip-path="url(#clip_frame9_path_5)" d="M16 19v2H8v-2h8z" fill="#000000"/></g><g transform="translate(240)"><defs><clipPath id="clip_frame10_path_1"><path d="M4 21V9l8-6 8 6v12H4z"/></clipPath><clipPath id="clip_frame10_path_3"><path d="M4 21V9l8-6 8 6v12H4z"/></clipPath><clipPath id="clip_frame10_path_4"><path d="M4 21V9l8-6 8 6v12H4z"/></clipPath><clipPath id="clip_frame10_path_5"><path d="M4 21V9l8-6 8 6v12H4z"/></clipPath></defs><path d="M15 19h3v-9l-6-4.5L6 10v9h3v2H4V9l8-6 8 6v12h-5v-2z" fill="#000000"/><path clip-path="url(#clip_frame10_path_1)" d="M7.171 8.885h9.658V21H7.171V8.885z" fill="#000000"/><path clip-path="url(#clip_frame10_path_5)" d="M16 19v2H8v-2h8z" fill="#000000"/></g><g transform="translate(264)"><defs><clipPath id="clip_frame11_path_1"><path d="M4 21V9l8-6 8 6v12H4z"/></clipPath><clipPath id="clip_frame11_path_3"><path d="M4 21V9l8-6 8 6v12H4z"/></clipPath><clipPath id="clip_frame11_path_4"><path d="M4 21V9l8-6 8 6v12H4z"/></clipPath><clipPath id="clip_frame11_path_5"><path d="M4 21V9l8-6 8 6v12H4z"/></clipPath></defs><path d="M15 19h3v-9l-6-4.5L6 10v9h3v2H4V9l8-6 8 6v12h-5v-2z" fill="#000000"/><path clip-path="url(#clip_frame11_path_1)" d="M6.838 8.136h10.324V21H6.838V8.136z" fill="#000000"/><path clip-path="url(#clip_frame11_path_5)" d="M16 19v2H8v-2h8z" fill="#000000"/></g><g transform="translate(288)"><defs><clipPath id="clip_frame12_path_1"><path d="M4 21V9l8-6 8 6v12H4z"/></clipPath><clipPath id="clip_frame12_path_3"><path d="M4 21V9l8-6 8 6v12H4z"/></clipPath><clipPath id="clip_frame12_path_4"><path d="M4 21V9l8-6 8 6v12H4z"/></clipPath><clipPath id="clip_frame12_path_5"><path d="M4 21V9l8-6 8 6v12H4z"/></clipPath></defs><path d="M15 19h3v-9l-6-4.5L6 10v9h3v2H4V9l8-6 8 6v12h-5v-2z" fill="#000000"/><path clip-path="url(#clip_frame12_path_1)" d="M6.546 7.478h10.908V21H6.546V7.478z" fill="#000000"/><path clip-path="url(#clip_frame12_path_5)" d="M16 19v2H8v-2h8z" fill="#000000"/></g><g transform="translate(312)"><defs><clipPath id="clip_frame13_path_1"><path d="M4 21V9l8-6 8 6v12H4z"/></clipPath><clipPath id="clip_frame13_path_3"><path d="M4 21V9l8-6 8 6v12H4z"/></clipPath><clipPath id="clip_frame13_path_4"><path d="M4 21V9l8-6 8 6v12H4z"/></clipPath><clipPath id="clip_frame13_path_5"><path d="M4 21V9l8-6 8 6v12H4z"/></clipPath></defs><path d="M15 19h3v-9l-6-4.5L6 10v9h3v2H4V9l8-6 8 6v12h-5v-2z" fill="#000000"/><path clip-path="url(#clip_frame13_path_1)" d="M6.294 6.912h11.412V21H6.294V6.912z" fill="#000000"/><path clip-path="url(#clip_frame13_path_5)" d="M16 19v2H8v-2h8z" fill="#000000"/></g><g transform="translate(336)"><defs><clipPath id="clip_frame14_path_1"><path d="M4 21V9l8-6 8 6v12H4z"/></clipPath><clipPath id="clip_frame14_path_3"><path d="M4 21V9l8-6 8 6v12H4z"/></clipPath><clipPath id="clip_frame14_path_4"><path d="M4 21V9l8-6 8 6v12H4z"/></clipPath><clipPath id="clip_frame14_path_5"><path d="M4 21V9l8-6 8 6v12H4z"/></clipPath></defs><path d="M15 19h3v-9l-6-4.5L6 10v9h3v2H4V9l8-6 8 6v12h-5v-2z" fill="#000000"/><path clip-path="url(#clip_frame14_path_1)" d="M6.08 6.43h11.84V21H6.08V6.43z" fill="#000000"/><path clip-path="url(#clip_frame14_path_5)" d="M16 19v2H8v-2h8z" fill="#000000"/></g><g transform="translate(360)"><defs><clipPath id="clip_frame15_path_1"><path d="M4 21V9l8-6 8 6v12H4z"/></clipPath><clipPath id="clip_frame15_path_3"><path d="M4 21V9l8-6 8 6v12H4z"/></clipPath><clipPath id="clip_frame15_path_4"><path d="M4 21V9l8-6 8 6v12H4z"/></clipPath><clipPath id="clip_frame15_path_5"><path d="M4 21V9l8-6 8 6v12H4z"/></clipPath></defs><path d="M15 19h3v-9l-6-4.5L6 10v9h3v2H4V9l8-6 8 6v12h-5v-2z" fill="#000000"/><path clip-path="url(#clip_frame15_path_1)" d="M5.898 6.02h12.204V21H5.898V6.02z" fill="#000000"/><path clip-path="url(#clip_frame15_path_5)" d="M16 19v2H8v-2h8z" fill="#000000"/></g><g transform="translate(384)"><defs><clipPath id="clip_frame16_path_1"><path d="M4 21V9l8-6 8 6v12H4z"/></clipPath><clipPath id="clip_frame16_path_3"><path d="M4 21V9l8-6 8 6v12H4z"/></clipPath><clipPath id="clip_frame16_path_4"><path d="M4 21V9l8-6 8 6v12H4z"/></clipPath><clipPath id="clip_frame16_path_5"><path d="M4 21V9l8-6 8 6v12H4z"/></clipPath></defs><path d="M15 19h3v-9l-6-4.5L6 10v9h3v2H4V9l8-6 8 6v12h-5v-2z" fill="#000000"/><path clip-path="url(#clip_frame16_path_1)" d="M5.742 5.67h12.516V21H5.742V5.67z" fill="#000000"/><path clip-path="url(#clip_frame16_path_5)" d="M16 19v2H8v-2h8z" fill="#000000"/></g><g transform="translate(408)"><defs><clipPath id="clip_frame17_path_1"><path d="M4 21V9l8-6 8 6v12H4z"/></clipPath><clipPath id="clip_frame17_path_3"><path d="M4 21V9l8-6 8 6v12H4z"/></clipPath><clipPath id="clip_frame17_path_4"><path d="M4 21V9l8-6 8 6v12H4z"/></clipPath><clipPath id="clip_frame17_path_5"><path d="M4 21V9l8-6 8 6v12H4z"/></clipPath></defs><path d="M15 19h3v-9l-6-4.5L6 10v9h3v2H4V9l8-6 8 6v12h-5v-2z" fill="#000000"/><path clip-path="url(#clip_frame17_path_1)" d="M5.61 5.371h12.78V21H5.61V5.371z" fill="#000000"/><path clip-path="url(#clip_frame17_path_5)" d="M16 19v2H8v-2h8z" fill="#000000"/></g><g transform="translate(432)"><defs><clipPath id="clip_frame18_path_1"><path d="M4 21V9l8-6 8 6v12H4z"/></clipPath><clipPath id="clip_frame18_path_3"><path d="M4 21V9l8-6 8 6v12H4z"/></clipPath><clipPath id="clip_frame18_path_4"><path d="M4 21V9l8-6 8 6v12H4z"/></clipPath><clipPath id="clip_frame18_path_5"><path d="M4 21V9l8-6 8 6v12H4z"/></clipPath></defs><path d="M15 19h3v-9l-6-4.5L6 10v9h3v2H4V9l8-6 8 6v12h-5v-2z" fill="#000000"/><path clip-path="url(#clip_frame18_path_1)" d="M5.496 5.116h13.008V21H5.496V5.116z" fill="#000000"/><path clip-path="url(#clip_frame18_path_5)" d="M16 19v2H8v-2h8z" fill="#000000"/></g><g transform="translate(456)"><defs><clipPath id="clip_frame19_path_1"><path d="M4 21V9l8-6 8 6v12H4z"/></clipPath><clipPath id="clip_frame19_path_3"><path d="M4 21V9l8-6 8 6v12H4z"/></clipPath><clipPath id="clip_frame19_path_4"><path d="M4 21V9l8-6 8 6v12H4z"/></clipPath><clipPath id="clip_frame19_path_5"><path d="M4 21V9l8-6 8 6v12H4z"/></clipPath></defs><path d="M15 19h3v-9l-6-4.5L6 10v9h3v2H4V9l8-6 8 6v12h-5v-2z" fill="#000000"/><path clip-path="url(#clip_frame19_path_1)" d="M5.399 4.898h13.202V21H5.399V4.898z" fill="#000000"/><path clip-path="url(#clip_frame19_path_5)" d="M16 19v2H8v-2h8z" fill="#000000"/></g><g transform="translate(480)"><defs><clipPath id="clip_frame20_path_1"><path d="M4 21V9l8-6 8 6v12H4z"/></clipPath><clipPath id="clip_frame20_path_3"><path d="M4 21V9l8-6 8 6v12H4z"/></clipPath><clipPath id="clip_frame20_path_4"><path d="M4 21V9l8-6 8 6v12H4z"/></clipPath><clipPath id="clip_frame20_path_5"><path d="M4 21V9l8-6 8 6v12H4z"/></clipPath></defs><path d="M15 19h3v-9l-6-4.5L6 10v9h3v2H4V9l8-6 8 6v12h-5v-2z" fill="#000000"/><path clip-path="url(#clip_frame20_path_1)" d="M5.317 4.713h13.366V21H5.317V4.713z" fill="#000000"/><path clip-path="url(#clip_frame20_path_5)" d="M16 19v2H8v-2h8z" fill="#000000"/></g><g transform="translate(504)"><defs><clipPath id="clip_frame21_path_1"><path d="M4 21V9l8-6 8 6v12H4z"/></clipPath><clipPath id="clip_frame21_path_3"><path d="M4 21V9l8-6 8 6v12H4z"/></clipPath><clipPath id="clip_frame21_path_4"><path d="M4 21V9l8-6 8 6v12H4z"/></clipPath><clipPath id="clip_frame21_path_5"><path d="M4 21V9l8-6 8 6v12H4z"/></clipPath></defs><path d="M15 19h3v-9l-6-4.5L6 10v9h3v2H4V9l8-6 8 6v12h-5v-2z" fill="#000000"/><path clip-path="url(#clip_frame21_path_1)" d="M5.247 4.556h13.506V21H5.247V4.556z" fill="#000000"/><path clip-path="url(#clip_frame21_path_5)" d="M16 19v2H8v-2h8z" fill="#000000"/></g><g transform="translate(528)"><defs><clipPath id="clip_frame22_path_1"><path d="M4 21V9l8-6 8 6v12H4z"/></clipPath><clipPath id="clip_frame22_path_3"><path d="M4 21V9l8-6 8 6v12H4z"/></clipPath><clipPath id="clip_frame22_path_4"><path d="M4 21V9l8-6 8 6v12H4z"/></clipPath><clipPath id="clip_frame22_path_5"><path d="M4 21V9l8-6 8 6v12H4z"/></clipPath></defs><path d="M15 19h3v-9l-6-4.5L6 10v9h3v2H4V9l8-6 8 6v12h-5v-2z" fill="#000000"/><path clip-path="url(#clip_frame22_path_1)" d="M5.188 4.423h13.624V21H5.188V4.423z" fill="#000000"/><path clip-path="url(#clip_frame22_path_5)" d="M16 19v2H8v-2h8z" fill="#000000"/></g><g transform="translate(552)"><defs><clipPath id="clip_frame23_path_1"><path d="M4 21V9l8-6 8 6v12H4z"/></clipPath><clipPath id="clip_frame23_path_3"><path d="M4 21V9l8-6 8 6v12H4z"/></clipPath><clipPath id="clip_frame23_path_4"><path d="M4 21V9l8-6 8 6v12H4z"/></clipPath><clipPath id="clip_frame23_path_5"><path d="M4 21V9l8-6 8 6v12H4z"/></clipPath></defs><path d="M15 19h3v-9l-6-4.5L6 10v9h3v2H4V9l8-6 8 6v12h-5v-2z" fill="#000000"/><path clip-path="url(#clip_frame23_path_1)" d="M5.139 4.313h13.722V21H5.139V4.313z" fill="#000000"/><path clip-path="url(#clip_frame23_path_5)" d="M16 19v2H8v-2h8z" fill="#000000"/></g><g transform="translate(576)"><defs><clipPath id="clip_frame24_path_1"><path d="M4 21V9l8-6 8 6v12H4z"/></clipPath><clipPath id="clip_frame24_path_3"><path d="M4 21V9l8-6 8 6v12H4z"/></clipPath><clipPath id="clip_frame24_path_4"><path d="M4 21V9l8-6 8 6v12H4z"/></clipPath><clipPath id="clip_frame24_path_5"><path d="M4 21V9l8-6 8 6v12H4z"/></clipPath></defs><path d="M15 19h3v-9l-6-4.5L6 10v9h3v2H4V9l8-6 8 6v12h-5v-2z" fill="#000000"/><path clip-path="url(#clip_frame24_path_1)" d="M5.099 4.223h13.802V21H5.099V4.223z" fill="#000000"/><path clip-path="url(#clip_frame24_path_5)" d="M16 19v2H8v-2h8z" fill="#000000"/></g><g transform="translate(600)"><defs><clipPath id="clip_frame25_path_1"><path d="M4 21V9l8-6 8 6v12H4z"/></clipPath><clipPath id="clip_frame25_path_3"><path d="M4 21V9l8-6 8 6v12H4z"/></clipPath><clipPath id="clip_frame25_path_4"><path d="M4 21V9l8-6 8 6v12H4z"/></clipPath><clipPath id="clip_frame25_path_5"><path d="M4 21V9l8-6 8 6v12H4z"/></clipPath></defs><path d="M15 19h3v-9l-6-4.5L6 10v9h3v2H4V9l8-6 8 6v12h-5v-2z" fill="#000000"/><path clip-path="url(#clip_frame25_path_1)" d="M5.067 4.15h13.866V21H5.067V4.15z" fill="#000000"/><path clip-path="url(#clip_frame25_path_5)" d="M16 19v2H8v-2h8z" fill="#000000"/></g><g transform="translate(624)"><defs><clipPath id="clip_frame26_path_1"><path d="M4 21V9l8-6 8 6v12H4z"/></clipPath><clipPath id="clip_frame26_path_3"><path d="M4 21V9l8-6 8 6v12H4z"/></clipPath><clipPath id="clip_frame26_path_4"><path d="M4 21V9l8-6 8 6v12H4z"/></clipPath><clipPath id="clip_frame26_path_5"><path d="M4 21V9l8-6 8 6v12H4z"/></clipPath></defs><path d="M15 19h3v-9l-6-4.5L6 10v9h3v2H4V9l8-6 8 6v12h-5v-2z" fill="#000000"/><path clip-path="url(#clip_frame26_path_1)" d="M5.041 4.093h13.918V21H5.041V4.093z" fill="#000000"/><path clip-path="url(#clip_frame26_path_5)" d="M16 19v2H8v-2h8z" fill="#000000"/></g><g transform="translate(648)"><defs><clipPath id="clip_frame27_path_1"><path d="M4 21V9l8-6 8 6v12H4z"/></clipPath><clipPath id="clip_frame27_path_3"><path d="M4 21V9l8-6 8 6v12H4z"/></clipPath><clipPath id="clip_frame27_path_4"><path d="M4 21V9l8-6 8 6v12H4z"/></clipPath><clipPath id="clip_frame27_path_5"><path d="M4 21V9l8-6 8 6v12H4z"/></clipPath></defs><path d="M15 19h3v-9l-6-4.5L6 10v9h3v2H4V9l8-6 8 6v12h-5v-2z" fill="#000000"/><path clip-path="url(#clip_frame27_path_1)" d="M5.023 4.051h13.954V21H5.023V4.051z" fill="#000000"/><path clip-path="url(#clip_frame27_path_5)" d="M16 19v2H8v-2h8z" fill="#000000"/></g><g transform="translate(672)"><defs><clipPath id="clip_frame28_path_1"><path d="M4 21V9l8-6 8 6v12H4z"/></clipPath><clipPath id="clip_frame28_path_3"><path d="M4 21V9l8-6 8 6v12H4z"/></clipPath><clipPath id="clip_frame28_path_4"><path d="M4 21V9l8-6 8 6v12H4z"/></clipPath><clipPath id="clip_frame28_path_5"><path d="M4 21V9l8-6 8 6v12H4z"/></clipPath></defs><path d="M15 19h3v-9l-6-4.5L6 10v9h3v2H4V9l8-6 8 6v12h-5v-2z" fill="#000000"/><path clip-path="url(#clip_frame28_path_1)" d="M5.01 4.022h13.98V21H5.01V4.022z" fill="#000000"/><path clip-path="url(#clip_frame28_path_5)" d="M16 19v2H8v-2h8z" fill="#000000"/></g><g transform="translate(696)"><defs><clipPath id="clip_frame29_path_1"><path d="M4 21V9l8-6 8 6v12H4z"/></clipPath><clipPath id="clip_frame29_path_3"><path d="M4 21V9l8-6 8 6v12H4z"/></clipPath><clipPath id="clip_frame29_path_4"><path d="M4 21V9l8-6 8 6v12H4z"/></clipPath><clipPath id="clip_frame29_path_5"><path d="M4 21V9l8-6 8 6v12H4z"/></clipPath></defs><path d="M15 19h3v-9l-6-4.5L6 10v9h3v2H4V9l8-6 8 6v12h-5v-2z" fill="#000000"/><path clip-path="url(#clip_frame29_path_1)" d="M5.002 4.005h13.996V21H5.002V4.005z" fill="#000000"/><path clip-path="url(#clip_frame29_path_5)" d="M16 19v2H8v-2h8z" fill="#000000"/></g><g transform="translate(720)"><defs><clipPath id="clip_frame30_path_1"><path d="M4 21V9l8-6 8 6v12H4z"/></clipPath><clipPath id="clip_frame30_path_3"><path d="M4 21V9l8-6 8 6v12H4z"/></clipPath><clipPath id="clip_frame30_path_4"><path d="M4 21V9l8-6 8 6v12H4z"/></clipPath><clipPath id="clip_frame30_path_5"><path d="M4 21V9l8-6 8 6v12H4z"/></clipPath></defs><path d="M15 19h3v-9l-6-4.5L6 10v9h3v2H4V9l8-6 8 6v12h-5v-2z" fill="#000000"/><path clip-path="url(#clip_frame30_path_1)" d="M5 4h14v17H5V4z" fill="#000000"/><path clip-path="url(#clip_frame30_path_5)" d="M16 19v2H8v-2h8z" fill="#000000"/></g><g transform="translate(744)"><defs><clipPath id="clip_frame31_path_1"><path d="M4 21V9l8-6 8 6v12H4z"/></clipPath><clipPath id="clip_frame31_path_3"><path d="M4 21V9l8-6 8 6v12H4z"/></clipPath><clipPath id="clip_frame31_path_4"><path d="M4 21V9l8-6 8 6v12H4z"/></clipPath><clipPath id="clip_frame31_path_5"><path d="M4 21V9l8-6 8 6v12H4z"/></clipPath></defs><path d="M15 19h3v-9l-6-4.5L6 10v9h3v2H4V9l8-6 8 6v12h-5v-2z" fill="#000000"/><path clip-path="url(#clip_frame31_path_3)" d="M19 5H5v16h4v-8h6v8h4V5z" fill="#000000" fill-rule="evenodd"/><path clip-path="url(#clip_frame31_path_4)" d="M8 12h8v8.98H8z" fill="#000000"/></g><g transform="translate(768)"><defs><clipPath id="clip_frame32_path_1"><path d="M4 21V9l8-6 8 6v12H4z"/></clipPath><clipPath id="clip_frame32_path_3"><path d="M4 21V9l8-6 8 6v12H4z"/></clipPath><clipPath id="clip_frame32_path_4"><path d="M4 21V9l8-6 8 6v12H4z"/></clipPath><clipPath id="clip_frame32_path_5"><path d="M4 21V9l8-6 8 6v12H4z"/></clipPath></defs><path d="M15 19h3v-9l-6-4.5L6 10v9h3v2H4V9l8-6 8 6v12h-5v-2z" fill="#000000"/><path clip-path="url(#clip_frame32_path_3)" d="M19 5H5v16h4v-8h6v8h4V5z" fill="#000000" fill-rule="evenodd"/><path clip-path="url(#clip_frame32_path_4)" d="M8 12h8v8.915H8z" fill="#000000"/></g><g transform="translate(792)"><defs><clipPath id="clip_frame33_path_1"><path d="M4 21V9l8-6 8 6v12H4z"/></clipPath><clipPath id="clip_frame33_path_3"><path d="M4 21V9l8-6 8 6v12H4z"/></clipPath><clipPath id="clip_frame33_path_4"><path d="M4 21V9l8-6 8 6v12H4z"/></clipPath><clipPath id="clip_frame33_path_5"><path d="M4 21V9l8-6 8 6v12H4z"/></clipPath></defs><path d="M15 19h3v-9l-6-4.5L6 10v9h3v2H4V9l8-6 8 6v12h-5v-2z" fill="#000000"/><path clip-path="url(#clip_frame33_path_3)" d="M19 5H5v16h4v-8h6v8h4V5z" fill="#000000" fill-rule="evenodd"/><path clip-path="url(#clip_frame33_path_4)" d="M8 12h8v8.793H8z" fill="#000000"/></g><g transform="translate(816)"><defs><clipPath id="clip_frame34_path_1"><path d="M4 21V9l8-6 8 6v12H4z"/></clipPath><clipPath id="clip_frame34_path_3"><path d="M4 21V9l8-6 8 6v12H4z"/></clipPath><clipPath id="clip_frame34_path_4"><path d="M4 21V9l8-6 8 6v12H4z"/></clipPath><clipPath id="clip_frame34_path_5"><path d="M4 21V9l8-6 8 6v12H4z"/></clipPath></defs><path d="M15 19h3v-9l-6-4.5L6 10v9h3v2H4V9l8-6 8 6v12h-5v-2z" fill="#000000"/><path clip-path="url(#clip_frame34_path_3)" d="M19 5H5v16h4v-8h6v8h4V5z" fill="#000000" fill-rule="evenodd"/><path clip-path="url(#clip_frame34_path_4)" d="M8 12h8v8.601H8z" fill="#000000"/></g><g transform="translate(840)"><defs><clipPath id="clip_frame35_path_1"><path d="M4 21V9l8-6 8 6v12H4z"/></clipPath><clipPath id="clip_frame35_path_3"><path d="M4 21V9l8-6 8 6v12H4z"/></clipPath><clipPath id="clip_frame35_path_4"><path d="M4 21V9l8-6 8 6v12H4z"/></clipPath><clipPath id="clip_frame35_path_5"><path d="M4 21V9l8-6 8 6v12H4z"/></clipPath></defs><path d="M15 19h3v-9l-6-4.5L6 10v9h3v2H4V9l8-6 8 6v12h-5v-2z" fill="#000000"/><path clip-path="url(#clip_frame35_path_3)" d="M19 5H5v16h4v-8h6v8h4V5z" fill="#000000" fill-rule="evenodd"/><path clip-path="url(#clip_frame35_path_4)" d="M8 12h8v8.319H8z" fill="#000000"/></g><g transform="translate(864)"><defs><clipPath id="clip_frame36_path_1"><path d="M4 21V9l8-6 8 6v12H4z"/></clipPath><clipPath id="clip_frame36_path_3"><path d="M4 21V9l8-6 8 6v12H4z"/></clipPath><clipPath id="clip_frame36_path_4"><path d="M4 21V9l8-6 8 6v12H4z"/></clipPath><clipPath id="clip_frame36_path_5"><path d="M4 21V9l8-6 8 6v12H4z"/></clipPath></defs><path d="M15 19h3v-9l-6-4.5L6 10v9h3v2H4V9l8-6 8 6v12h-5v-2z" fill="#000000"/><path clip-path="url(#clip_frame36_path_3)" d="M19 5H5v16h4v-8h6v8h4V5z" fill="#000000" fill-rule="evenodd"/><path clip-path="url(#clip_frame36_path_4)" d="M8 12h8v7.928H8z" fill="#000000"/></g><g transform="translate(888)"><defs><clipPath id="clip_frame37_path_1"><path d="M4 21V9l8-6 8 6v12H4z"/></clipPath><clipPath id="clip_frame37_path_3"><path d="M4 21V9l8-6 8 6v12H4z"/></clipPath><clipPath id="clip_frame37_path_4"><path d="M4 21V9l8-6 8 6v12H4z"/></clipPath><clipPath id="clip_frame37_path_5"><path d="M4 21V9l8-6 8 6v12H4z"/></clipPath></defs><path d="M15 19h3v-9l-6-4.5L6 10v9h3v2H4V9l8-6 8 6v12h-5v-2z" fill="#000000"/><path clip-path="url(#clip_frame37_path_3)" d="M19 5H5v16h4v-8h6v8h4V5z" fill="#000000" fill-rule="evenodd"/><path clip-path="url(#clip_frame37_path_4)" d="M8 12h8v7.412H8z" fill="#000000"/></g><g transform="translate(912)"><defs><clipPath id="clip_frame38_path_1"><path d="M4 21V9l8-6 8 6v12H4z"/></clipPath><clipPath id="clip_frame38_path_3"><path d="M4 21V9l8-6 8 6v12H4z"/></clipPath><clipPath id="clip_frame38_path_4"><path d="M4 21V9l8-6 8 6v12H4z"/></clipPath><clipPath id="clip_frame38_path_5"><path d="M4 21V9l8-6 8 6v12H4z"/></clipPath></defs><path d="M15 19h3v-9l-6-4.5L6 10v9h3v2H4V9l8-6 8 6v12h-5v-2z" fill="#000000"/><path clip-path="url(#clip_frame38_path_3)" d="M19 5H5v16h4v-8h6v8h4V5z" fill="#000000" fill-rule="evenodd"/><path clip-path="url(#clip_frame38_path_4)" d="M8 12h8v6.776H8z" fill="#000000"/></g><g transform="translate(936)"><defs><clipPath id="clip_frame39_path_1"><path d="M4 21V9l8-6 8 6v12H4z"/></clipPath><clipPath id="clip_frame39_path_3"><path d="M4 21V9l8-6 8 6v12H4z"/></clipPath><clipPath id="clip_frame39_path_4"><path d="M4 21V9l8-6 8 6v12H4z"/></clipPath><clipPath id="clip_frame39_path_5"><path d="M4 21V9l8-6 8 6v12H4z"/></clipPath></defs><path d="M15 19h3v-9l-6-4.5L6 10v9h3v2H4V9l8-6 8 6v12h-5v-2z" fill="#000000"/><path clip-path="url(#clip_frame39_path_3)" d="M19 5H5v16h4v-8h6v8h4V5z" fill="#000000" fill-rule="evenodd"/><path clip-path="url(#clip_frame39_path_4)" d="M8 12h8v6.062H8z" fill="#000000"/></g><g transform="translate(960)"><defs><clipPath id="clip_frame40_path_1"><path d="M4 21V9l8-6 8 6v12H4z"/></clipPath><clipPath id="clip_frame40_path_3"><path d="M4 21V9l8-6 8 6v12H4z"/></clipPath><clipPath id="clip_frame40_path_4"><path d="M4 21V9l8-6 8 6v12H4z"/></clipPath><clipPath id="clip_frame40_path_5"><path d="M4 21V9l8-6 8 6v12H4z"/></clipPath></defs><path d="M15 19h3v-9l-6-4.5L6 10v9h3v2H4V9l8-6 8 6v12h-5v-2z" fill="#000000"/><path clip-path="url(#clip_frame40_path_3)" d="M19 5H5v16h4v-8h6v8h4V5z" fill="#000000" fill-rule="evenodd"/><path clip-path="url(#clip_frame40_path_4)" d="M8 12h8v5.342H8z" fill="#000000"/></g><g transform="translate(984)"><defs><clipPath id="clip_frame41_path_1"><path d="M4 21V9l8-6 8 6v12H4z"/></clipPath><clipPath id="clip_frame41_path_3"><path d="M4 21V9l8-6 8 6v12H4z"/></clipPath><clipPath id="clip_frame41_path_4"><path d="M4 21V9l8-6 8 6v12H4z"/></clipPath><clipPath id="clip_frame41_path_5"><path d="M4 21V9l8-6 8 6v12H4z"/></clipPath></defs><path d="M15 19h3v-9l-6-4.5L6 10v9h3v2H4V9l8-6 8 6v12h-5v-2z" fill="#000000"/><path clip-path="url(#clip_frame41_path_3)" d="M19 5H5v16h4v-8h6v8h4V5z" fill="#000000" fill-rule="evenodd"/><path clip-path="url(#clip_frame41_path_4)" d="M8 12h8v4.676H8z" fill="#000000"/></g><g transform="translate(1008)"><defs><clipPath id="clip_frame42_path_1"><path d="M4 21V9l8-6 8 6v12H4z"/></clipPath><clipPath id="clip_frame42_path_3"><path d="M4 21V9l8-6 8 6v12H4z"/></clipPath><clipPath id="clip_frame42_path_4"><path d="M4 21V9l8-6 8 6v12H4z"/></clipPath><clipPath id="clip_frame42_path_5"><path d="M4 21V9l8-6 8 6v12H4z"/></clipPath></defs><path d="M15 19h3v-9l-6-4.5L6 10v9h3v2H4V9l8-6 8 6v12h-5v-2z" fill="#000000"/><path clip-path="url(#clip_frame42_path_3)" d="M19 5H5v16h4v-8h6v8h4V5z" fill="#000000" fill-rule="evenodd"/><path clip-path="url(#clip_frame42_path_4)" d="M8 12h8v4.091H8z" fill="#000000"/></g><g transform="translate(1032)"><defs><clipPath id="clip_frame43_path_1"><path d="M4 21V9l8-6 8 6v12H4z"/></clipPath><clipPath id="clip_frame43_path_3"><path d="M4 21V9l8-6 8 6v12H4z"/></clipPath><clipPath id="clip_frame43_path_4"><path d="M4 21V9l8-6 8 6v12H4z"/></clipPath><clipPath id="clip_frame43_path_5"><path d="M4 21V9l8-6 8 6v12H4z"/></clipPath></defs><path d="M15 19h3v-9l-6-4.5L6 10v9h3v2H4V9l8-6 8 6v12h-5v-2z" fill="#000000"/><path clip-path="url(#clip_frame43_path_3)" d="M19 5H5v16h4v-8h6v8h4V5z" fill="#000000" fill-rule="evenodd"/><path clip-path="url(#clip_frame43_path_4)" d="M8 12h8v3.589H8z" fill="#000000"/></g><g transform="translate(1056)"><defs><clipPath id="clip_frame44_path_1"><path d="M4 21V9l8-6 8 6v12H4z"/></clipPath><clipPath id="clip_frame44_path_3"><path d="M4 21V9l8-6 8 6v12H4z"/></clipPath><clipPath id="clip_frame44_path_4"><path d="M4 21V9l8-6 8 6v12H4z"/></clipPath><clipPath id="clip_frame44_path_5"><path d="M4 21V9l8-6 8 6v12H4z"/></clipPath></defs><path d="M15 19h3v-9l-6-4.5L6 10v9h3v2H4V9l8-6 8 6v12h-5v-2z" fill="#000000"/><path clip-path="url(#clip_frame44_path_3)" d="M19 5H5v16h4v-8h6v8h4V5z" fill="#000000" fill-rule="evenodd"/><path clip-path="url(#clip_frame44_path_4)" d="M8 12h8v3.16H8z" fill="#000000"/></g><g transform="translate(1080)"><defs><clipPath id="clip_frame45_path_1"><path d="M4 21V9l8-6 8 6v12H4z"/></clipPath><clipPath id="clip_frame45_path_3"><path d="M4 21V9l8-6 8 6v12H4z"/></clipPath><clipPath id="clip_frame45_path_4"><path d="M4 21V9l8-6 8 6v12H4z"/></clipPath><clipPath id="clip_frame45_path_5"><path d="M4 21V9l8-6 8 6v12H4z"/></clipPath></defs><path d="M15 19h3v-9l-6-4.5L6 10v9h3v2H4V9l8-6 8 6v12h-5v-2z" fill="#000000"/><path clip-path="url(#clip_frame45_path_3)" d="M19 5H5v16h4v-8h6v8h4V5z" fill="#000000" fill-rule="evenodd"/><path clip-path="url(#clip_frame45_path_4)" d="M8 12h8v2.796H8z" fill="#000000"/></g><g transform="translate(1104)"><defs><clipPath id="clip_frame46_path_1"><path d="M4 21V9l8-6 8 6v12H4z"/></clipPath><clipPath id="clip_frame46_path_3"><path d="M4 21V9l8-6 8 6v12H4z"/></clipPath><clipPath id="clip_frame46_path_4"><path d="M4 21V9l8-6 8 6v12H4z"/></clipPath><clipPath id="clip_frame46_path_5"><path d="M4 21V9l8-6 8 6v12H4z"/></clipPath></defs><path d="M15 19h3v-9l-6-4.5L6 10v9h3v2H4V9l8-6 8 6v12h-5v-2z" fill="#000000"/><path clip-path="url(#clip_frame46_path_3)" d="M19 5H5v16h4v-8h6v8h4V5z" fill="#000000" fill-rule="evenodd"/><path clip-path="url(#clip_frame46_path_4)" d="M8 12h8v2.485H8z" fill="#000000"/></g><g transform="translate(1128)"><defs><clipPath id="clip_frame47_path_1"><path d="M4 21V9l8-6 8 6v12H4z"/></clipPath><clipPath id="clip_frame47_path_3"><path d="M4 21V9l8-6 8 6v12H4z"/></clipPath><clipPath id="clip_frame47_path_4"><path d="M4 21V9l8-6 8 6v12H4z"/></clipPath><clipPath id="clip_frame47_path_5"><path d="M4 21V9l8-6 8 6v12H4z"/></clipPath></defs><path d="M15 19h3v-9l-6-4.5L6 10v9h3v2H4V9l8-6 8 6v12h-5v-2z" fill="#000000"/><path clip-path="url(#clip_frame47_path_3)" d="M19 5H5v16h4v-8h6v8h4V5z" fill="#000000" fill-rule="evenodd"/><path clip-path="url(#clip_frame47_path_4)" d="M8 12h8v2.219H8z" fill="#000000"/></g><g transform="translate(1152)"><defs><clipPath id="clip_frame48_path_1"><path d="M4 21V9l8-6 8 6v12H4z"/></clipPath><clipPath id="clip_frame48_path_3"><path d="M4 21V9l8-6 8 6v12H4z"/></clipPath><clipPath id="clip_frame48_path_4"><path d="M4 21V9l8-6 8 6v12H4z"/></clipPath><clipPath id="clip_frame48_path_5"><path d="M4 21V9l8-6 8 6v12H4z"/></clipPath></defs><path d="M15 19h3v-9l-6-4.5L6 10v9h3v2H4V9l8-6 8 6v12h-5v-2z" fill="#000000"/><path clip-path="url(#clip_frame48_path_3)" d="M19 5H5v16h4v-8h6v8h4V5z" fill="#000000" fill-rule="evenodd"/><path clip-path="url(#clip_frame48_path_4)" d="M8 12h8v1.992H8z" fill="#000000"/></g><g transform="translate(1176)"><defs><clipPath id="clip_frame49_path_1"><path d="M4 21V9l8-6 8 6v12H4z"/></clipPath><clipPath id="clip_frame49_path_3"><path d="M4 21V9l8-6 8 6v12H4z"/></clipPath><clipPath id="clip_frame49_path_4"><path d="M4 21V9l8-6 8 6v12H4z"/></clipPath><clipPath id="clip_frame49_path_5"><path d="M4 21V9l8-6 8 6v12H4z"/></clipPath></defs><path d="M15 19h3v-9l-6-4.5L6 10v9h3v2H4V9l8-6 8 6v12h-5v-2z" fill="#000000"/><path clip-path="url(#clip_frame49_path_3)" d="M19 5H5v16h4v-8h6v8h4V5z" fill="#000000" fill-rule="evenodd"/><path clip-path="url(#clip_frame49_path_4)" d="M8 12h8v1.799H8z" fill="#000000"/></g><g transform="translate(1200)"><defs><clipPath id="clip_frame50_path_1"><path d="M4 21V9l8-6 8 6v12H4z"/></clipPath><clipPath id="clip_frame50_path_3"><path d="M4 21V9l8-6 8 6v12H4z"/></clipPath><clipPath id="clip_frame50_path_4"><path d="M4 21V9l8-6 8 6v12H4z"/></clipPath><clipPath id="clip_frame50_path_5"><path d="M4 21V9l8-6 8 6v12H4z"/></clipPath></defs><path d="M15 19h3v-9l-6-4.5L6 10v9h3v2H4V9l8-6 8 6v12h-5v-2z" fill="#000000"/><path clip-path="url(#clip_frame50_path_3)" d="M19 5H5v16h4v-8h6v8h4V5z" fill="#000000" fill-rule="evenodd"/><path clip-path="url(#clip_frame50_path_4)" d="M8 12h8v1.634H8z" fill="#000000"/></g><g transform="translate(1224)"><defs><clipPath id="clip_frame51_path_1"><path d="M4 21V9l8-6 8 6v12H4z"/></clipPath><clipPath id="clip_frame51_path_3"><path d="M4 21V9l8-6 8 6v12H4z"/></clipPath><clipPath id="clip_frame51_path_4"><path d="M4 21V9l8-6 8 6v12H4z"/></clipPath><clipPath id="clip_frame51_path_5"><path d="M4 21V9l8-6 8 6v12H4z"/></clipPath></defs><path d="M15 19h3v-9l-6-4.5L6 10v9h3v2H4V9l8-6 8 6v12h-5v-2z" fill="#000000"/><path clip-path="url(#clip_frame51_path_3)" d="M19 5H5v16h4v-8h6v8h4V5z" fill="#000000" fill-rule="evenodd"/><path clip-path="url(#clip_frame51_path_4)" d="M8 12h8v1.494H8z" fill="#000000"/></g><g transform="translate(1248)"><defs><clipPath id="clip_frame52_path_1"><path d="M4 21V9l8-6 8 6v12H4z"/></clipPath><clipPath id="clip_frame52_path_3"><path d="M4 21V9l8-6 8 6v12H4z"/></clipPath><clipPath id="clip_frame52_path_4"><path d="M4 21V9l8-6 8 6v12H4z"/></clipPath><clipPath id="clip_frame52_path_5"><path d="M4 21V9l8-6 8 6v12H4z"/></clipPath></defs><path d="M15 19h3v-9l-6-4.5L6 10v9h3v2H4V9l8-6 8 6v12h-5v-2z" fill="#000000"/><path clip-path="url(#clip_frame52_path_3)" d="M19 5H5v16h4v-8h6v8h4V5z" fill="#000000" fill-rule="evenodd"/><path clip-path="url(#clip_frame52_path_4)" d="M8 12h8v1.376H8z" fill="#000000"/></g><g transform="translate(1272)"><defs><clipPath id="clip_frame53_path_1"><path d="M4 21V9l8-6 8 6v12H4z"/></clipPath><clipPath id="clip_frame53_path_3"><path d="M4 21V9l8-6 8 6v12H4z"/></clipPath><clipPath id="clip_frame53_path_4"><path d="M4 21V9l8-6 8 6v12H4z"/></clipPath><clipPath id="clip_frame53_path_5"><path d="M4 21V9l8-6 8 6v12H4z"/></clipPath></defs><path d="M15 19h3v-9l-6-4.5L6 10v9h3v2H4V9l8-6 8 6v12h-5v-2z" fill="#000000"/><path clip-path="url(#clip_frame53_path_3)" d="M19 5H5v16h4v-8h6v8h4V5z" fill="#000000" fill-rule="evenodd"/><path clip-path="url(#clip_frame53_path_4)" d="M8 12h8v1.278H8z" fill="#000000"/></g><g transform="translate(1296)"><defs><clipPath id="clip_frame54_path_1"><path d="M4 21V9l8-6 8 6v12H4z"/></clipPath><clipPath id="clip_frame54_path_3"><path d="M4 21V9l8-6 8 6v12H4z"/></clipPath><clipPath id="clip_frame54_path_4"><path d="M4 21V9l8-6 8 6v12H4z"/></clipPath><clipPath id="clip_frame54_path_5"><path d="M4 21V9l8-6 8 6v12H4z"/></clipPath></defs><path d="M15 19h3v-9l-6-4.5L6 10v9h3v2H4V9l8-6 8 6v12h-5v-2z" fill="#000000"/><path clip-path="url(#clip_frame54_path_3)" d="M19 5H5v16h4v-8h6v8h4V5z" fill="#000000" fill-rule="evenodd"/><path clip-path="url(#clip_frame54_path_4)" d="M8 12h8v1.198H8z" fill="#000000"/></g><g transform="translate(1320)"><defs><clipPath id="clip_frame55_path_1"><path d="M4 21V9l8-6 8 6v12H4z"/></clipPath><clipPath id="clip_frame55_path_3"><path d="M4 21V9l8-6 8 6v12H4z"/></clipPath><clipPath id="clip_frame55_path_4"><path d="M4 21V9l8-6 8 6v12H4z"/></clipPath><clipPath id="clip_frame55_path_5"><path d="M4 21V9l8-6 8 6v12H4z"/></clipPath></defs><path d="M15 19h3v-9l-6-4.5L6 10v9h3v2H4V9l8-6 8 6v12h-5v-2z" fill="#000000"/><path clip-path="url(#clip_frame55_path_3)" d="M19 5H5v16h4v-8h6v8h4V5z" fill="#000000" fill-rule="evenodd"/><path clip-path="url(#clip_frame55_path_4)" d="M8 12h8v1.133H8z" fill="#000000"/></g><g transform="translate(1344)"><defs><clipPath id="clip_frame56_path_1"><path d="M4 21V9l8-6 8 6v12H4z"/></clipPath><clipPath id="clip_frame56_path_3"><path d="M4 21V9l8-6 8 6v12H4z"/></clipPath><clipPath id="clip_frame56_path_4"><path d="M4 21V9l8-6 8 6v12H4z"/></clipPath><clipPath id="clip_frame56_path_5"><path d="M4 21V9l8-6 8 6v12H4z"/></clipPath></defs><path d="M15 19h3v-9l-6-4.5L6 10v9h3v2H4V9l8-6 8 6v12h-5v-2z" fill="#000000"/><path clip-path="url(#clip_frame56_path_3)" d="M19 5H5v16h4v-8h6v8h4V5z" fill="#000000" fill-rule="evenodd"/><path clip-path="url(#clip_frame56_path_4)" d="M8 12h8v1.083H8z" fill="#000000"/></g><g transform="translate(1368)"><defs><clipPath id="clip_frame57_path_1"><path d="M4 21V9l8-6 8 6v12H4z"/></clipPath><clipPath id="clip_frame57_path_3"><path d="M4 21V9l8-6 8 6v12H4z"/></clipPath><clipPath id="clip_frame57_path_4"><path d="M4 21V9l8-6 8 6v12H4z"/></clipPath><clipPath id="clip_frame57_path_5"><path d="M4 21V9l8-6 8 6v12H4z"/></clipPath></defs><path d="M15 19h3v-9l-6-4.5L6 10v9h3v2H4V9l8-6 8 6v12h-5v-2z" fill="#000000"/><path clip-path="url(#clip_frame57_path_3)" d="M19 5H5v16h4v-8h6v8h4V5z" fill="#000000" fill-rule="evenodd"/><path clip-path="url(#clip_frame57_path_4)" d="M8 12h8v1.045H8z" fill="#000000"/></g><g transform="translate(1392)"><defs><clipPath id="clip_frame58_path_1"><path d="M4 21V9l8-6 8 6v12H4z"/></clipPath><clipPath id="clip_frame58_path_3"><path d="M4 21V9l8-6 8 6v12H4z"/></clipPath><clipPath id="clip_frame58_path_4"><path d="M4 21V9l8-6 8 6v12H4z"/></clipPath><clipPath id="clip_frame58_path_5"><path d="M4 21V9l8-6 8 6v12H4z"/></clipPath></defs><path d="M15 19h3v-9l-6-4.5L6 10v9h3v2H4V9l8-6 8 6v12h-5v-2z" fill="#000000"/><path clip-path="url(#clip_frame58_path_3)" d="M19 5H5v16h4v-8h6v8h4V5z" fill="#000000" fill-rule="evenodd"/><path clip-path="url(#clip_frame58_path_4)" d="M8 12h8v1.02H8z" fill="#000000"/></g><g transform="translate(1416)"><defs><clipPath id="clip_frame59_path_1"><path d="M4 21V9l8-6 8 6v12H4z"/></clipPath><clipPath id="clip_frame59_path_3"><path d="M4 21V9l8-6 8 6v12H4z"/></clipPath><clipPath id="clip_frame59_path_4"><path d="M4 21V9l8-6 8 6v12H4z"/></clipPath><clipPath id="clip_frame59_path_5"><path d="M4 21V9l8-6 8 6v12H4z"/></clipPath></defs><path d="M15 19h3v-9l-6-4.5L6 10v9h3v2H4V9l8-6 8 6v12h-5v-2z" fill="#000000"/><path clip-path="url(#clip_frame59_path_3)" d="M19 5H5v16h4v-8h6v8h4V5z" fill="#000000" fill-rule="evenodd"/><path clip-path="url(#clip_frame59_path_4)" d="M8 12h8v1.005H8z" fill="#000000"/></g><g transform="translate(1440)"><defs><clipPath id="clip_frame60_path_1"><path d="M4 21V9l8-6 8 6v12H4z"/></clipPath><clipPath id="clip_frame60_path_3"><path d="M4 21V9l8-6 8 6v12H4z"/></clipPath><clipPath id="clip_frame60_path_4"><path d="M4 21V9l8-6 8 6v12H4z"/></clipPath><clipPath id="clip_frame60_path_5"><path d="M4 21V9l8-6 8 6v12H4z"/></clipPath></defs><path d="M15 19h3v-9l-6-4.5L6 10v9h3v2H4V9l8-6 8 6v12h-5v-2z" fill="#000000"/><path clip-path="url(#clip_frame60_path_3)" d="M19 5H5v16h4v-8h6v8h4V5z" fill="#000000" fill-rule="evenodd"/><path clip-path="url(#clip_frame60_path_4)" d="M8 12h8v1H8z" fill="#000000"/></g></svg>