<svg width="2560" height="1440" viewBox="0 0 2560 1440" fill="none" xmlns="http://www.w3.org/2000/svg">
<g clip-path="url(#clip0_205_300)">
<mask id="mask0_205_300" style="mask-type:alpha" maskUnits="userSpaceOnUse" x="0" y="0" width="2560" height="1441">
<rect y="0.00585938" width="2560" height="1440" fill="black" fill-opacity="0.12"/>
</mask>
<g mask="url(#mask0_205_300)">
<path d="M118.479 212.674C159.719 229.556 210.999 250.445 230.624 293.219C231.941 316.571 223.955 336.438 215.432 357.383C203.476 386.806 189.883 420.134 197.515 472.251C203.367 511.835 226.081 537.252 252.457 566.666C263.351 578.835 274.463 591.358 285.102 605.637C312.859 643 331.849 685.234 346.577 721.62C361.414 757.867 373.016 786.482 411.885 795.992C435.126 801.691 467.599 805.688 489.886 808.05C502.207 809.426 513.673 810.16 523.958 810.16C541.066 810.16 555.795 808.236 568.224 804.526C594.591 796.541 611.345 774.564 632.46 746.786C638.775 738.512 645.235 730.08 652.622 721.081C657.582 714.908 664.151 708.224 671.147 700.926C685.694 685.959 700.712 670.415 704.865 657.995C706.391 653.207 705.928 648.81 705.573 643.836C705.219 640.025 704.865 635.851 705.319 630.84L705.391 630.58L705.219 630.403C691.127 611.336 673.982 596.08 657.409 581.196C629.262 555.956 602.577 532.167 592.528 493.019C587.204 472.427 589.158 450.348 598.389 425.582C608.256 399.44 631.143 370.64 663.088 344.675C677.462 332.98 692.726 320.82 708.871 307.814C782.938 248.735 866.981 181.735 912.837 123.381L912.947 123.018C914.437 115.823 913.9 107.651 911.883 98.6427C905.923 74.1743 887.216 45.0112 860.422 18.6835C834.863 -6.30556 805.834 -24.9636 782.693 -31.5362C780.812 -32.0475 777.196 -33.0701 773.29 -33.8603C742.407 -40.9443 710.361 -36.0822 679.488 -31.3596C652.794 -27.2598 627.417 -23.374 602.822 -26.5999C549.689 -33.7953 511.437 -70.219 497.945 -126.463C480.201 -200.407 529.282 -246.778 576.737 -291.736C611.699 -324.962 648.006 -359.173 657.482 -404.382C666.532 -446.978 654.748 -492.875 646.943 -523.312C643.817 -535.546 640.02 -547.827 635.94 -559.987H634.695C638.847 -547.753 642.572 -535.407 645.771 -522.95C653.503 -492.736 665.287 -446.979 656.346 -404.633C646.943 -359.824 610.809 -325.65 575.847 -292.638C528.219 -247.503 478.892 -200.835 496.809 -126.212C510.365 -69.4846 549.162 -32.6983 602.75 -25.5493C627.417 -22.2397 652.794 -26.0978 679.66 -30.1604C710.47 -34.883 742.307 -39.6707 773.008 -32.6983C776.833 -31.9081 780.567 -30.8855 782.411 -30.3463C828.367 -17.4521 897.937 46.0988 910.638 98.8658C912.837 107.763 913.192 115.711 911.883 122.618C865.991 180.898 782.157 247.898 708.163 306.949C691.908 319.807 676.644 331.966 662.27 343.699C630.261 369.84 607.193 398.715 597.326 425.22C588.022 450.209 586.068 472.427 591.392 493.317C601.578 532.827 628.308 556.868 656.592 582.173C673.1 596.88 690.064 612.172 704.146 630.942C703.729 635.916 704.083 640.136 704.328 643.948C704.864 648.81 705.219 652.984 703.729 657.567C699.64 669.69 684.812 685.234 670.257 700.127C663.333 707.276 656.701 714.109 651.731 720.282C644.344 729.178 637.784 737.712 631.497 746.061C610.454 773.662 593.882 795.453 567.86 803.327C548.099 809.361 522.613 810.523 490.068 806.888C467.708 804.415 435.308 800.464 412.167 794.793C373.906 785.534 362.295 757.133 347.64 721.183C332.839 684.695 313.923 642.386 286.066 604.8C275.417 590.53 264.241 578.036 253.411 565.829C227.144 536.638 204.539 511.287 198.751 472.065C191.128 420.32 204.612 387.169 216.505 357.857C225.018 336.726 233.186 316.711 231.869 293.042L231.76 292.744C211.889 249.646 160.355 228.468 118.896 211.698C107.648 207.049 96.0092 202.364 83.3346 199.528C54.0603 193.105 26.1942 189.544 0 188.456V189.721C26.0943 190.632 53.8785 194.332 83.0529 200.728C95.6548 203.452 107.294 208.174 118.479 212.674" fill="#005AC5"/>
<path d="M122.985 38.4625C139.412 19.758 153.967 -0.210867 169.404 -21.2767C193.89 -54.6884 219.167 -89.1877 251.812 -117.691C254.12 -119.866 256.427 -122.228 258.562 -124.589C260.507 -126.773 262.642 -128.949 264.768 -130.948C286.065 -150.191 310.478 -165.624 333.974 -180.405C350.301 -190.752 367.265 -201.396 383.128 -213.38C395.73 -222.927 408.441 -232.921 420.58 -242.543C439.142 -257.25 458.304 -272.319 477.648 -285.939C486.77 -292.363 496.282 -298.536 506.395 -305.071C555.731 -337.283 611.626 -373.819 620.139 -439.805C624.646 -474.667 615.706 -519.616 596.616 -560H595.371C614.461 -519.69 623.41 -474.732 618.967 -439.87C610.454 -374.432 554.84 -338.12 505.686 -306.168C495.637 -299.623 486.161 -293.385 477.002 -287.027C457.595 -273.296 438.424 -258.152 419.971 -243.519C407.723 -233.897 395.13 -223.913 382.356 -214.393C366.556 -202.484 349.702 -191.775 333.375 -181.493C309.77 -166.535 285.357 -151.102 264.06 -131.859C261.752 -129.86 259.726 -127.499 257.672 -125.388C255.537 -123.139 253.411 -120.666 251.031 -118.704C218.276 -90.0894 192.9 -55.525 168.513 -22.1134C153.077 -0.93596 138.422 18.9214 122.095 37.5515C89.6223 74.5981 46.6735 99.6522 0 109.637V110.91C47.0279 100.74 90.3307 75.6113 122.985 38.4625" fill="#005AC5"/>
<path d="M50.2261 -8.5429C66.1261 -32.2583 66.1986 -75.2825 64.5268 -110.144C63.1821 -138.294 63.6369 -192 81.6358 -236.707C95.5824 -270.844 128.591 -301.234 160.527 -330.472C165.397 -335.008 170.185 -339.471 174.9 -343.905C238.864 -403.533 270.628 -457.211 298.594 -519.228C300.965 -524.499 303.028 -530.086 305.054 -535.534C307.534 -542.367 310.196 -549.265 313.495 -555.986C314.103 -557.362 314.812 -558.701 315.448 -559.974H314.103C313.567 -558.775 312.967 -557.687 312.322 -556.637C309.06 -549.804 306.471 -542.832 303.991 -536.008C301.965 -530.56 299.902 -525.038 297.422 -519.739C269.556 -457.75 237.974 -404.258 174.092 -344.742C169.404 -340.27 164.507 -335.919 159.719 -331.448C127.7 -302.034 94.5193 -271.643 80.5727 -237.144C62.4648 -192.288 62.0467 -138.294 63.355 -110.144C65.0632 -75.3569 64.8812 -32.6209 49.2628 -9.15656C37.9057 7.61433 19.8069 19.6069 0 29.8423V31.2275C20.1612 20.769 38.6145 8.71141 50.2261 -8.5429" fill="#005AC5"/>
<path d="M329.191 217.149C325.638 202.618 321.914 187.549 320.142 169.932C318.897 158.246 318.297 142.265 320.142 132.346C325.112 106.818 355.558 75.7024 387.749 45.7397C407.092 27.8347 432.296 6.81521 455.892 2.95716C458.908 2.52952 462.216 2.34364 465.941 2.34364C483.576 2.34364 505.936 7.90286 527.515 13.3506C543.66 17.3016 558.997 21.1226 571.172 22.3219C577.205 22.861 583.41 23.112 589.807 23.112C615.538 23.112 640.269 18.5753 664.155 14.0758C686.343 10.0411 707.176 6.15524 727.328 6.15524C750.824 6.15524 769.813 11.4914 787.031 22.861C817.123 42.8392 825.291 70.6171 829.616 97.9209C822.801 155.411 781.707 193.61 745.327 227.496C721.187 249.714 695.919 267.517 671.433 284.799C648.61 300.78 625.187 317.263 602.227 337.706C548.103 385.574 520.846 453.187 529.468 518.551C531.667 535.331 537.7 552.873 543.56 569.942C549.411 586.936 555.444 604.515 557.507 621.147C561.414 650.626 556.262 673.728 542.424 689.774C530.068 704.193 511.015 712.113 488.473 712.113C466.113 712.113 442.936 704.118 426.545 690.871C415.188 681.537 406.029 669.805 398.679 659.634C366.815 615.625 340.475 555.597 318.006 476.177C315.171 430.745 322.195 400.169 329.009 370.866C333.379 352.05 337.35 334.257 338.876 313.265C342.074 270.167 335.578 243.179 329.191 217.149V217.149ZM327.774 370.504C321.032 399.992 314.036 430.671 316.871 476.428C339.303 556.071 365.852 616.136 397.688 660.359C405.139 670.641 414.297 682.337 425.836 691.772C442.336 705.28 465.832 713.312 488.473 713.312C511.26 713.312 530.776 705.28 543.378 690.508C557.397 674.239 562.549 650.849 558.751 620.961C556.507 604.255 550.584 586.647 544.732 569.579C538.872 552.585 532.839 535.08 530.713 518.374C522.081 453.447 549.239 386.187 603.008 338.505C625.823 318.211 649.427 301.756 672.033 285.85C696.628 268.53 722.004 250.625 746.036 228.332C782.588 194.447 823.937 155.959 830.788 97.9209V97.7815V97.67C826.427 70.2546 818.086 42.0398 787.558 21.8849C770.276 10.3294 751.106 4.95587 727.328 4.95587C706.995 4.95587 686.161 8.87913 663.983 12.9882C640.096 17.3018 615.428 21.8849 589.807 21.8849C583.483 21.8849 577.277 21.5874 571.344 21.1226C559.169 19.9606 543.842 16.1396 527.76 12.0399C506.118 6.7037 483.685 1.06994 465.941 1.06994C462.216 1.06994 458.836 1.36756 455.719 1.86957C431.76 5.61606 406.384 26.8586 386.967 44.9031C354.568 74.9773 324.049 106.316 319.006 132.058C317.053 142.154 317.652 158.311 318.897 170.006C320.669 187.8 324.503 202.869 328.055 217.437C334.333 243.402 340.903 270.232 337.704 313.2C336.114 334.08 332.135 351.874 327.774 370.504" fill="#005AC5"/>
<path d="M400.46 233.666C403.903 186.533 416.496 151.485 439.856 123.159C472.682 83.3233 503.91 80.1253 560.696 74.1756C564.785 73.813 568.864 73.3388 573.189 72.9019C593.959 70.6149 614.466 66.8033 632.573 63.4194C648.792 60.4445 664.228 57.4697 677.712 56.1589C683.854 55.5454 689.777 55.1827 695.392 55.1827C736.805 55.1827 753.414 71.9536 760.056 86.0471C770.45 108.377 763.354 140.813 741.702 168.368C736.56 172.477 732.544 177.636 728.647 182.647C723.495 189.545 718.707 195.894 711.184 199.641L711.002 199.715C686.943 222.771 659.722 241.726 630.975 261.704C589.98 290.319 547.749 319.733 510.016 364.328C503.274 372.1 497.069 381.174 490.963 389.996C474.1 414.26 458.2 437.204 433.36 439.026C412.953 428.019 409.509 405.614 406.138 384.009C405.139 378.013 404.358 372.463 403.186 367.192C403.013 354.846 402.232 341.087 401.523 326.38C399.997 297.106 398.225 263.917 400.46 233.666V233.666ZM401.95 367.415C403.186 372.751 404.004 378.199 404.967 384.186C408.156 405.066 411.99 428.967 432.933 440.225L433.105 440.29H433.287C458.736 438.477 474.808 415.236 491.844 390.721C497.95 382.01 504.165 372.928 510.906 365.053C548.458 320.635 590.761 291.221 631.683 262.718C660.431 242.674 687.651 223.682 711.719 200.729C719.415 196.806 724.666 190.019 729.636 183.447C733.434 178.538 737.341 173.313 742.484 169.279C764.489 141.175 771.767 108.201 761.046 85.4986C754.304 71.1541 737.45 54.0206 695.392 54.0206C689.714 54.0206 683.744 54.3832 677.648 54.8852C664.156 56.2704 648.61 59.1709 632.392 62.2573C614.293 65.6413 593.778 69.4529 573.126 71.7026C568.755 72.1768 564.676 72.5394 560.596 73.0507C505.4 78.7122 472.147 82.3472 438.966 122.257C415.361 150.872 402.768 186.17 399.215 233.555C397.089 263.917 398.752 297.106 400.278 326.38C401.059 341.087 401.768 354.958 401.95 367.415" fill="#005AC5"/>
<path d="M1204.77 76.23C1215.53 68.8579 1235.47 65.3344 1265.93 65.3344C1294.32 65.3344 1328.39 68.4952 1358.38 71.3307C1377.44 73.0412 1395.54 74.7797 1410.8 75.5048C1475.22 78.7772 1536.01 81.938 1582.5 123.149C1612.39 149.589 1636.45 177.004 1628.82 245.027C1625.34 275.891 1611.43 313.254 1596.78 352.95C1594.21 359.959 1591.55 366.932 1589.07 374.016C1587.47 378.078 1585.95 382.252 1584.53 386.426C1571.33 423.036 1559.86 454.626 1537.5 481.688C1511.95 512.664 1478.05 528.347 1436.64 528.347C1368.67 528.347 1297.34 486.699 1253.4 447.625C1187.92 389.81 1179.5 308.466 1170.53 222.51L1169.39 212.34C1164.95 181.615 1159.62 106.806 1204.77 76.23V76.23ZM1169.28 222.575C1178.33 308.828 1186.85 390.349 1252.62 448.639C1296.8 487.786 1368.21 529.435 1436.64 529.435C1478.34 529.435 1512.59 513.64 1538.5 482.413C1560.86 455.286 1572.39 423.585 1585.59 386.798C1587.01 382.726 1588.54 378.664 1590.03 374.378C1592.69 367.294 1595.29 360.322 1597.84 353.424C1612.57 313.616 1626.51 276.253 1629.96 245.092C1637.7 176.53 1613.38 148.938 1583.28 122.248C1536.44 80.776 1475.5 77.6895 1410.91 74.3056C1395.65 73.5061 1377.55 71.8792 1358.45 70.0571C1328.39 67.231 1294.38 64.1445 1265.93 64.1445C1235.23 64.1445 1215.07 67.6958 1204.17 75.1423C1158.39 106.193 1163.89 181.615 1168.22 212.489L1169.28 222.575" fill="#005AC5"/>
<path d="M1242.9 143.318C1262.6 112.268 1301.4 108.205 1332.88 108.205C1343.88 108.205 1354.81 108.745 1365.99 109.479C1416.28 112.268 1463.94 114.852 1501.29 141.431C1541.74 170.297 1563.86 224.486 1560.2 286.141C1557.11 339.707 1537.24 415.064 1491.53 451.191C1475.55 463.834 1455.32 470.258 1431.3 470.258C1382.74 470.258 1333.59 444.293 1306.26 422.139C1247.87 374.755 1241.41 313.742 1233.33 236.646C1233.26 231.923 1233.15 227.21 1232.9 222.301C1232.26 195.174 1231.55 167.145 1242.9 143.318V143.318ZM1232.08 236.757C1240 311.204 1246.74 375.48 1305.66 423.162C1332.98 445.38 1382.39 471.346 1431.3 471.346C1455.61 471.346 1476.08 464.922 1492.34 452.102C1538.3 415.715 1558.24 339.958 1561.44 286.215C1565.09 224.124 1542.81 169.572 1501.92 140.52C1464.37 113.727 1416.63 111.004 1365.99 108.205C1354.89 107.657 1343.88 107.043 1332.88 107.043C1301.12 107.043 1261.89 111.106 1241.84 142.779C1230.31 166.848 1231.02 195.072 1231.84 222.301C1231.9 227.21 1232.01 231.923 1232.08 236.757" fill="#005AC5"/>
<path d="M527.949 174.738C551.554 149.609 591.122 140.712 620.224 140.712C625.549 140.712 630.8 140.963 635.661 141.549C637.015 143.074 638.432 144.524 639.749 145.872C641.694 147.722 643.584 149.609 645.001 151.785C642.412 166.678 629.737 178.661 618.916 187.372C591.123 209.888 553.144 227.681 519.79 233.789C517.764 232.59 516.056 230.768 514.393 228.843C512.866 227.216 511.376 225.617 509.595 224.232C508.959 205.165 514.993 188.534 527.949 174.738V174.738ZM508.36 224.892L508.605 225.032C510.377 226.231 511.903 227.979 513.394 229.568C515.274 231.567 517.128 233.677 519.426 234.877L519.535 234.951H519.79C553.434 228.843 591.659 210.975 619.625 188.394C630.7 179.386 643.647 167.152 646.237 151.785L646.309 151.496L646.137 151.245C644.647 148.958 642.511 146.997 640.631 144.998C639.141 143.548 637.724 142.163 636.379 140.601L636.306 140.35H636.015C631.054 139.801 625.658 139.55 620.224 139.55C590.95 139.55 551.017 148.596 527.058 173.938C513.929 188.032 507.651 204.988 508.36 224.595V224.892" fill="#005AC5"/>
<path d="M1349.93 160.299C1358.55 158.849 1366.97 158.123 1375.24 158.123C1410.26 158.123 1434.76 171.38 1449.23 182.564C1474.43 202.133 1492.61 235.657 1499.1 274.693C1505.49 312.827 1498.99 349.976 1481.78 374.305C1466.09 396.524 1443.73 408.144 1417.37 408.144C1397.24 408.144 1375.31 401.144 1355.89 388.287C1304.08 353.862 1295.38 284.566 1294.85 246.366C1294.14 196.435 1313.3 166.658 1349.93 160.299V160.299ZM1355.26 389.263C1374.95 402.334 1396.95 409.418 1417.37 409.418C1444.27 409.418 1466.8 397.546 1482.85 374.919C1520.11 322.375 1503.25 222.948 1449.84 181.616C1435.39 170.283 1410.62 156.85 1375.24 156.85C1366.9 156.85 1358.37 157.575 1349.75 159.1C1312.42 165.57 1292.96 195.821 1293.6 246.366C1294.14 284.789 1302.9 354.513 1355.26 389.263Z" fill="#005AC5"/>
<path d="M149.352 728.166C154.213 737.286 158.937 745.96 164.507 753.155L164.788 753.406C172.493 763.688 185.622 780.756 203.902 777.958C223.6 774.946 249.613 750.97 244.897 715.746C241.163 687.605 222.71 666.977 186.794 650.931C184.486 649.908 182.178 648.82 179.771 647.844C162.48 640.398 146.053 633.314 138.53 616.431C130.717 583.02 129.19 537.988 127.528 490.167C126.174 450.582 124.757 409.547 119.541 374.574C109.493 307.1 75.7753 267.014 16.4363 251.646C11.2938 250.271 5.78762 248.997 0 248.197V249.471C5.67859 250.271 11.112 251.47 16.1546 252.809C74.9938 267.887 108.429 307.825 118.369 374.76C123.512 409.687 124.929 450.657 126.356 490.241C127.955 538.062 129.545 583.206 137.359 616.906C145.163 634.337 161.772 641.374 179.344 648.932C181.715 650.02 184.023 650.931 186.33 652.018C221.828 667.813 240.027 688.154 243.652 715.932C248.268 750.32 222.991 773.784 203.72 776.647C186.158 779.371 173.311 762.665 165.679 752.792L165.397 752.495C159.891 745.234 155.212 736.7 150.306 727.664C134.978 699.226 119.078 669.812 73.6492 677.51C52.1796 681.07 28.0386 692.802 0 713.022V714.547C28.2203 694.029 52.352 682.269 73.8216 678.709C118.478 671.151 134.16 700.202 149.352 728.166" fill="#005AC5"/>
<path d="M29.4652 567.101C55.7228 537.501 69.7418 493.742 67.9701 446.897C66.1984 401.8 49.6899 360.579 23.7867 336.501C16.082 330.914 7.98631 327.102 0 325.104V326.266C7.81368 328.33 15.6187 332.076 23.0053 337.338C48.736 361.304 65.0627 402.274 66.8344 446.897C68.6061 493.38 54.6598 536.999 28.6839 566.413C19.9889 576.11 10.2214 584.281 0 591.542V592.992C10.5848 585.62 20.5885 577.309 29.4652 567.101Z" fill="#005AC5"/>
<path d="M993.351 676.804C945.505 676.804 889.537 653.703 857.31 620.774C843.999 607.22 833.814 590.923 823.702 573.995C801.233 536.334 780.753 495.3 762.655 451.903C762.9 447.99 762.118 444.392 761.237 441.017C760.701 438.833 760.174 436.546 759.883 434.473C763.899 388.539 825.828 336.246 876.226 336.246C880.66 336.246 884.921 336.608 888.901 337.408C907.354 341.331 931.486 356.289 960.587 382.115C1003.11 419.84 1061.67 486.403 1086.58 549.954C1089.6 557.586 1093.26 567.208 1094.49 575.194C1099.36 607.22 1087.29 634.747 1058.72 656.798C1041.69 669.972 1019.68 676.804 993.351 676.804V676.804ZM1095.57 575.017C1094.39 566.92 1090.77 557.224 1087.75 549.489C1062.73 485.752 1003.99 418.938 961.296 381.166C932.022 355.313 907.708 340.169 889.073 336.357C885.103 335.409 880.733 334.972 876.226 334.972C825.301 334.972 762.727 387.99 758.82 434.473C759.002 436.769 759.529 439.093 760.174 441.305C760.883 444.754 761.764 448.166 761.41 451.903V452.089L761.482 452.201C779.581 495.736 800.278 536.883 822.702 574.58C832.823 591.648 843.045 607.955 856.419 621.676C888.828 654.837 945.26 678.078 993.351 678.078C1019.96 678.078 1042.22 671.134 1059.54 657.812C1088.46 635.407 1100.6 607.518 1095.57 575.017" fill="#005AC5"/>
<path d="M1032.37 582.545C1025.81 608.733 1003.69 623.58 971.575 623.58C944.599 623.58 914.543 612.907 894.845 596.452C863.79 570.487 853.387 533.636 843.03 488.241C842.212 468.7 847.282 452.105 857.222 441.396C865.562 432.499 877.165 427.953 891.538 427.953C895.445 427.953 899.706 428.316 904.14 429.05C953.294 437.147 1024.56 500.038 1032.98 555.855C1034.04 563.589 1034.39 574.847 1032.37 582.545V582.545ZM984.177 472.985C958.546 449.019 928.027 431.699 904.322 427.851C899.879 427.051 895.627 426.689 891.538 426.689C876.81 426.689 865.035 431.402 856.331 440.671C846.109 451.492 841.076 468.449 841.858 488.418C852.252 534.064 862.727 571.212 894.137 597.364C913.898 614.069 944.426 624.891 971.575 624.891C1004.23 624.891 1026.87 609.533 1033.61 582.908C1035.57 575.033 1035.21 563.589 1034.04 555.678C1030.13 529.164 1011.96 499.062 984.177 472.985Z" fill="#005AC5"/>
<path d="M1283.01 911.108C1278.58 921.529 1273.96 932.239 1269.64 945.133C1262.36 966.961 1259.35 988.891 1256.33 1010.13C1252.96 1034.4 1249.76 1057.2 1240.54 1076.05L1239.18 1078.23C1229.24 1093.48 1220.73 1106.55 1207.77 1116.65C1191.45 1129.36 1169.62 1135.97 1144.78 1135.97C1106.8 1135.97 1068.65 1119.66 1047.89 1094.42C1033.34 1076.63 1027.58 1055.35 1031.49 1032.94C1038.05 1001.35 1063.86 982.942 1091.01 963.4C1116.14 945.421 1141.87 926.791 1151.62 897.312C1158.02 877.956 1154.89 856.277 1151.62 833.324C1147.97 808.632 1144.36 783.095 1153.12 760.29C1165.47 727.716 1202.91 694.75 1240.07 683.669C1247.28 681.596 1253.67 680.582 1260.41 680.582C1263.32 680.582 1266.33 680.805 1269.53 681.233C1292.88 700.3 1299.52 746.783 1302.71 785.094C1308.14 852.279 1296.61 879.518 1283.01 911.108ZM1270.24 680.146L1270.07 680.043L1269.81 679.969C1266.51 679.532 1263.42 679.309 1260.41 679.309C1253.56 679.309 1247 680.406 1239.83 682.507C1202.28 693.653 1164.48 726.99 1151.99 759.854C1143.11 783.03 1146.84 808.632 1150.39 833.398C1153.65 856.342 1156.78 877.882 1150.56 896.875C1140.88 926.066 1115.25 944.519 1090.4 962.313C1064.15 981.194 1036.99 1000.62 1030.32 1032.76C1026.34 1055.53 1032.2 1077.13 1047 1095.15C1067.94 1120.64 1106.38 1137.24 1144.78 1137.24C1169.9 1137.24 1191.91 1130.37 1208.48 1117.55C1221.55 1107.46 1230.6 1093.59 1240.07 1078.99L1241.6 1076.63C1251 1057.56 1254.09 1034.65 1257.46 1010.25C1260.41 989.114 1263.42 967.212 1270.78 945.495C1275.14 932.713 1279.75 921.891 1284.19 911.656C1297.75 879.946 1309.39 852.456 1303.78 784.991C1300.59 746.309 1293.95 699.399 1270.24 680.146Z" fill="#005AC5"/>
<path d="M185.82 1008.25C178.006 1019.26 166.222 1025.21 152.566 1025.21C133.041 1025.21 110.508 1012 105.184 986.65C102.949 971.831 110.399 950.951 123.991 934.831C134.812 921.825 147.769 914.453 159.198 914.453C165.94 914.453 172.155 916.814 177.761 921.723C197.35 938.968 201.72 985.925 185.82 1008.25V1008.25ZM178.469 920.849C172.681 915.727 166.222 913.226 159.198 913.226C147.305 913.226 134.176 920.849 123.001 934.106C109.336 950.412 101.704 971.692 104.012 986.901C109.436 1012.87 132.577 1026.49 152.566 1026.49C166.585 1026.49 178.714 1020.24 186.701 1009.05C202.955 986.176 198.412 938.419 178.469 920.849Z" fill="#005AC5"/>
<path d="M580.826 1115.19C572.412 1115.19 565.498 1110.76 561.663 1102.73C560.955 1095.03 563.717 1087.41 569.396 1081.05C575.438 1074.4 583.951 1070.34 592.183 1070.34C597.435 1070.34 602.477 1072.15 606.848 1075.31C607.375 1077.42 608.438 1079.35 609.401 1081.12C610.464 1083.3 611.636 1085.23 611.99 1087.41C610.464 1103.31 594.318 1115.19 580.826 1115.19V1115.19ZM610.391 1080.58C609.51 1078.76 608.438 1076.88 607.984 1074.77L607.911 1074.63L607.802 1074.4C603.186 1071.07 597.789 1069.18 592.183 1069.18C583.597 1069.18 574.793 1073.31 568.514 1080.33C562.654 1086.86 559.819 1094.92 560.418 1103.02L560.528 1103.2C564.68 1111.74 571.776 1116.46 580.826 1116.46C594.845 1116.46 611.709 1104.04 613.235 1087.52V1087.41V1087.3C612.772 1084.86 611.527 1082.69 610.391 1080.58Z" fill="#005AC5"/>
<path d="M1615.5 -464.97C1623.38 -445.317 1640.77 -435.807 1668.64 -435.807C1682.77 -435.807 1697.38 -438.27 1709.21 -440.232H1709.56C1712.11 -440.706 1714.88 -440.892 1717.79 -440.892C1728.9 -440.892 1740.26 -437.508 1751.15 -434.282C1756.76 -432.534 1762.68 -430.833 1768.36 -429.634C1772.98 -428.546 1777.52 -427.747 1782.03 -426.724C1800.77 -423.024 1820.19 -419.101 1837.75 -410.818C1844.67 -407.592 1851.77 -404.394 1858.69 -401.419C1892.94 -386.238 1928.36 -370.508 1951.32 -340.006C1952.74 -338.119 1953.98 -336.232 1955.34 -334.308C1971.37 -309.979 1985.32 -283.828 1998.63 -258.523C2013.71 -229.899 2029.33 -200.559 2048.14 -173.72C2066.31 -147.467 2090.81 -118.527 2114.51 -90.4511C2122.74 -80.6526 2130.48 -71.3934 2138.01 -62.3107C2175.63 -16.7393 2211.12 26.1826 2276.6 26.1826H2276.71C2293.45 26.1826 2311.2 23.4681 2331.19 18.0204C2387.86 2.43945 2487.95 -36.5966 2522.2 -121.25C2531.25 -143.655 2537.28 -174.956 2543.67 -208.043C2548.56 -232.985 2553.61 -258.885 2559.99 -280.379V-284.478C2553.01 -262.111 2547.68 -234.733 2542.6 -208.294C2536.14 -175.18 2530.11 -144.018 2521.13 -121.687C2487.06 -37.4332 2387.33 1.2402 2330.9 16.8583C2311.03 22.3711 2293.28 25.0206 2276.71 25.0206H2276.6C2211.76 25.0206 2176.34 -17.7154 2139 -63.1474C2131.44 -72.2207 2123.63 -81.4894 2115.4 -91.1857C2091.8 -119.215 2067.31 -148.266 2049.03 -174.343C2030.4 -201.145 2014.78 -230.633 1999.69 -259.025C1986.28 -284.376 1972.37 -310.592 1956.29 -334.921C1955.05 -336.846 1953.63 -338.956 1952.21 -340.732C1929.07 -371.456 1893.58 -387.214 1859.22 -402.507C1852.23 -405.593 1845.14 -408.754 1838.29 -411.943C1820.54 -420.3 1801.13 -424.186 1782.32 -427.998C1777.7 -428.909 1773.16 -429.81 1768.65 -430.833C1763.04 -432.097 1757.19 -433.808 1751.51 -435.444C1740.51 -438.707 1729.15 -442.156 1717.79 -442.156C1714.88 -442.156 1711.93 -441.868 1709.38 -441.506L1708.85 -441.431C1697.2 -439.432 1682.66 -437.08 1668.64 -437.08C1641.42 -437.08 1624.27 -446.34 1616.64 -465.332C1608.65 -484.827 1611.32 -517.988 1613.73 -547.29C1614.09 -551.753 1614.44 -555.936 1614.69 -559.999H1613.45C1613.2 -555.936 1612.91 -551.753 1612.56 -547.402C1610.18 -517.988 1607.59 -484.65 1615.5 -464.97" fill="#005AC5"/>
<path d="M2479.88 72.9063L2479.7 72.9806C2471.54 79.6276 2459.19 89.6864 2460.54 103.594L2460.61 103.845L2460.78 104.031C2463.44 106.095 2465.75 108.568 2467.81 110.929L2467.89 111.106H2468.06C2483.07 114.192 2498.41 115.828 2513.67 115.828C2529.28 115.828 2544.82 114.09 2559.98 110.929V109.655C2544.82 112.928 2529.28 114.554 2513.67 114.554C2498.51 114.554 2483.32 112.993 2468.52 109.906C2466.46 107.656 2464.33 105.295 2461.78 103.231C2460.61 90.1141 2472.07 80.7897 2480.41 73.8824L2480.59 73.7058C2495.03 61.9736 2513.95 53.077 2534.08 43.7433C2542.77 39.7551 2551.47 35.5717 2559.98 31.221V29.8358C2551.28 34.3074 2542.34 38.5559 2533.54 42.5441C2513.41 52.0265 2494.33 60.9231 2479.88 72.9063" fill="#005AC5"/>
<path d="M1001.22 105.113C1011.97 95.7795 1024.4 86.9571 1034.51 79.6873C1039.02 76.5358 1042.92 73.7004 1046.11 71.2276C1060.31 60.5552 1073.37 49.0739 1085.97 38.1133C1110.46 16.5733 1133.6 -3.64658 1159.51 -13.4544C1172.29 -18.177 1185.77 -20.6499 1200.68 -20.6499C1227.83 -20.6499 1255.62 -12.6176 1282.6 -4.80857C1298.11 -0.383429 1314.01 4.15328 1329.52 7.17464C1349.39 10.8747 1369.79 12.7618 1390.38 12.7618C1406.71 12.7618 1423.49 11.5997 1439.89 9.06172C1495.18 0.890091 1551.62 -20.6498 1617.63 -58.4866C1631.54 -66.4723 1645.14 -75.7317 1658.34 -84.5634C1671.82 -93.8227 1686.02 -103.221 1700.4 -111.393C1706.25 -114.703 1712.57 -117.064 1718.68 -119.128C1723.57 -120.876 1728.54 -122.577 1733.33 -124.938C1737.77 -127.048 1742.03 -129.484 1746 -131.659C1755.51 -136.921 1764.39 -142.006 1775.21 -144.117C1783.98 -145.818 1794.2 -146.841 1803.95 -146.841C1813.61 -146.841 1827.56 -145.818 1839.34 -141.644C1874.94 -128.824 1906.95 -106.968 1933.5 -87.2873C1939.96 -82.4531 1946.53 -77.3679 1952.73 -72.2827C1960.55 -66.2214 1968.53 -59.8254 1976.69 -53.95C1983.97 -48.8648 1991.96 -44.9788 1999.69 -41.2323C2006.5 -37.9692 2013.61 -34.6224 2020.1 -30.2717C2056.83 -6.08217 2088.67 28.8541 2114.75 73.5889C2139.53 116.297 2154.79 149.96 2124.8 194.694C2115.57 208.611 2104.47 212.674 2088.59 217.434C2071.63 222.584 2053.53 223.318 2036.14 224.22C2015.73 225.02 1994.72 226.042 1975.39 233.777C1965.26 237.728 1956.4 243.901 1948.3 249.934C1945.99 251.57 1943.87 253.272 1941.73 254.908C1933.15 261.443 1924.28 268.276 1914.58 273.175C1900.04 280.399 1885.59 288.32 1871.57 295.943C1862.59 300.842 1853.29 306.001 1844.06 310.836C1822.66 322.159 1801.01 333.779 1780.18 345.149C1768.11 351.796 1756.12 358.294 1744.05 364.755L1743.87 364.83C1743.44 365.304 1742.81 365.917 1742.38 366.577C1684.18 399.552 1661.82 451.845 1646.27 503.376C1645.14 507.224 1643.96 511.036 1642.9 514.736C1632.36 550.76 1622.31 584.822 1586.4 603.638C1568.72 612.972 1537.06 621.943 1492.06 630.217C1428.71 642.024 1369.19 645.649 1300.34 649.833L1295.62 650.121C1277.87 638.5 1267.15 621.571 1255.79 603.527C1250.37 594.816 1244.69 585.845 1238.23 577.562C1224.64 560.317 1207.88 543.174 1190.14 525.157C1171.58 506.099 1152.23 486.484 1136.54 466.19C1095.09 412.949 1066.52 346.599 1039.02 282.584C1034.51 272.088 1029.89 261.267 1025.35 250.985C1020.03 239.002 1013.82 226.842 1007.78 215.147C997.776 195.429 988.264 177.124 982.767 159.042C976.37 137.791 981.631 122.182 1001.22 105.113V105.113ZM1006.83 215.686C1012.86 227.381 1019.07 239.476 1024.22 251.459C1028.83 261.704 1033.45 272.525 1037.95 283.048C1065.56 347.259 1094.03 413.674 1135.55 466.989C1151.45 487.432 1170.69 506.927 1189.25 525.994C1207.07 544.048 1223.86 561.042 1237.23 578.287C1243.8 586.459 1249.41 595.467 1254.8 604.14C1266.27 622.306 1277.09 639.476 1295.09 651.283L1295.26 651.357L1300.4 650.995C1369.27 646.811 1428.81 643.223 1492.24 631.379C1537.32 623.068 1569.25 614.06 1586.93 604.8C1623.38 585.622 1633.32 551.42 1643.96 515.098C1645.14 511.398 1646.27 507.587 1647.33 503.775C1662.77 452.347 1685.13 400.277 1743.09 367.665L1743.27 367.414C1743.7 366.829 1744.15 366.289 1744.69 365.778C1756.65 359.317 1768.65 352.772 1780.71 346.237C1801.65 334.979 1823.3 323.181 1844.67 311.923C1853.89 307.024 1863.05 301.939 1872.1 297.105C1886.12 289.407 1900.67 281.487 1915.05 274.152C1924.99 269.252 1933.75 262.466 1942.45 255.893C1944.58 254.294 1946.81 252.547 1948.94 250.91C1956.92 244.923 1965.8 238.825 1975.91 234.865C1994.9 227.204 2015.91 226.33 2036.14 225.308C2053.71 224.583 2071.81 223.681 2088.85 218.596C2105.1 213.761 2116.35 209.513 2125.75 195.354C2156.21 149.96 2140.77 116.009 2115.82 73.0497C2089.56 28.0546 2057.61 -7.10489 2020.81 -31.2479C2014.24 -35.608 2007.04 -39.057 2000.12 -42.3294C1992.42 -46.0666 1984.5 -49.8409 1977.4 -54.9261C1969.17 -60.7364 1961.18 -67.1324 1953.44 -73.3053C1947.16 -78.279 1940.78 -83.4663 1934.21 -88.3748C1907.49 -108.056 1875.54 -129.949 1839.7 -142.806C1827.81 -147.092 1813.72 -147.891 1803.95 -147.891C1794.09 -147.891 1783.8 -146.98 1775.04 -145.279C1763.92 -143.094 1754.98 -138.083 1745.47 -132.747C1741.49 -130.46 1737.24 -128.099 1732.87 -125.961C1728.08 -123.739 1723.11 -122.038 1718.32 -120.29C1712.03 -118.152 1705.72 -115.865 1699.86 -112.518C1685.31 -104.346 1671.22 -94.7988 1657.63 -85.5395C1644.5 -76.6427 1630.93 -67.4949 1616.99 -59.4627C1551.15 -21.6259 1494.72 -0.271973 1439.82 7.89966C1423.39 10.326 1406.71 11.5998 1390.38 11.5998C1369.9 11.5998 1349.49 9.67532 1329.69 5.90094C1314.25 2.95395 1298.39 -1.58266 1282.95 -6.0078C1255.87 -13.7425 1228.01 -21.7375 1200.68 -21.7375C1185.6 -21.7375 1172.04 -19.4507 1159.16 -14.5421C1133.07 -4.74361 1109.82 15.5972 1085.15 37.2023C1072.55 48.2094 1059.61 59.5326 1045.51 70.3258C1042.31 72.6778 1038.31 75.5132 1033.8 78.7112C1023.75 85.9346 1011.26 94.8313 1000.51 104.091C980.559 121.633 975.062 137.614 981.631 159.47C987.128 177.487 996.604 196.08 1006.83 215.686" fill="#005AC5"/>
<path d="M1090.42 147.226C1097.94 99.2931 1138.86 38.0292 1187.84 22.848C1197.85 19.8731 1208.25 18.3112 1219.85 18.3112C1241.15 18.3112 1262.37 23.4709 1281.08 28.1191C1289.77 30.2945 1298.12 32.2932 1305.85 33.7435C1331.93 38.4661 1360.4 40.5299 1395.71 40.5299C1415.06 40.5299 1434.68 40.0278 1453.74 39.3678C1472.91 38.717 1492.78 38.1035 1512.48 38.1035C1544.07 38.1035 1570.15 39.8048 1594.39 43.3654C1600.24 44.3508 1606.1 45.2525 1611.67 46.2007C1630.31 49.1756 1647.88 52.011 1665.27 52.011C1688.62 52.011 1708.04 46.6377 1726.14 35.0915C1743.28 24.1216 1757.12 19.213 1774.04 17.9487C1784.17 17.1492 1794.63 16.1267 1804.85 15.039C1822.67 13.1146 1841.31 11.2274 1859.33 11.2274H1860.11C1900.85 11.3389 1999.88 26.4086 2028.52 70.4182C2038.03 85.023 2039.09 101.831 2031.53 120.35C2021.35 145.339 1990.12 160.483 1966.41 165.93C1961.9 166.906 1957.29 167.929 1952.68 169.017C1919.92 176.166 1891.88 181.474 1866.78 185.062C1860.22 186.011 1853.65 186.624 1847.34 187.173C1830.83 188.809 1815.15 190.259 1798.99 197.52C1709.92 237.355 1651.35 343.689 1617.82 425.935C1592.51 488.221 1570.62 542.076 1510.81 567.279C1488.1 576.938 1455.34 582.637 1423.04 582.637H1422.97C1398.66 582.637 1376.02 579.439 1357.49 573.489C1320.4 561.469 1287.04 536.331 1248.17 507.214L1246.47 505.829C1174.78 451.974 1139.21 397.98 1115.26 306.717L1112.96 297.745C1104.79 267.067 1097.16 238.015 1091.66 205.143C1087.94 183.538 1087.58 165.131 1090.42 147.226V147.226ZM1111.78 298.043L1114.09 307.014C1138.15 398.519 1173.82 452.811 1245.87 506.852L1247.53 508.19C1286.33 537.242 1319.87 562.482 1357.14 574.576C1375.76 580.749 1398.55 583.91 1422.97 583.91C1423.04 583.91 1423.04 583.91 1423.04 583.91C1455.44 583.91 1488.45 578.1 1511.24 568.478C1571.5 542.941 1593.57 489.058 1618.95 426.372C1652.31 344.414 1710.8 238.378 1799.42 198.607C1815.5 191.458 1831.01 190.008 1847.45 188.447C1853.73 187.898 1860.3 187.173 1866.96 186.262C1892.06 182.636 1920.1 177.365 1952.85 170.104C1957.47 169.193 1962.08 168.106 1966.7 167.018C1990.65 161.57 2022.31 146.138 2032.71 120.712C2040.41 101.943 2039.28 84.7626 2029.58 69.8046C2000.66 25.3208 1901.04 10.028 1860.11 9.95366H1859.33C1841.23 9.95366 1822.67 11.8502 1804.75 13.7746C1794.56 14.8623 1784.09 16.0615 1773.98 16.6751C1756.76 17.9487 1742.74 22.9594 1725.43 33.9944C1707.61 45.4756 1688.45 50.9235 1665.27 50.9235C1647.98 50.9235 1630.42 47.9764 1611.86 45.0015C1606.29 43.9882 1600.43 43.1144 1594.56 42.1661C1570.26 38.5405 1544.24 36.9414 1512.48 36.9414C1492.78 36.9414 1472.91 37.5551 1453.74 38.1779C1434.68 38.7171 1415.06 39.3678 1395.71 39.3678C1360.51 39.3678 1332.11 37.1925 1306.03 32.5442C1298.4 31.1312 1290.13 29.1323 1281.36 27.022C1262.55 22.3738 1241.26 17.1492 1219.85 17.1492C1208.07 17.1492 1197.49 18.5623 1187.56 21.6488C1138.15 36.9415 1096.8 98.7445 1089.17 147.04C1086.34 165.131 1086.76 183.612 1090.42 205.329C1096.09 238.378 1103.73 267.355 1111.78 298.043" fill="#005AC5"/>
<path d="M2451.58 275.789L2451.4 276.04C2448.66 281.125 2446 285.486 2443.59 289.297C2435.25 303.028 2430.28 311.376 2427.73 334.078C2425.78 352.048 2426.48 370.502 2427.19 388.37C2427.97 409.426 2428.87 431.217 2425.31 452.711C2413.07 528.831 2353.91 607.228 2287.61 635.117C2281.22 637.776 2272.45 641.225 2266.42 642.387C2261.62 643.224 2257.08 643.726 2252.83 643.726C2213.9 643.726 2204.91 604.513 2196.32 566.667C2194.26 558.208 2192.32 549.497 2190.01 541.427C2181.13 510.312 2169.18 489.683 2151.32 474.502C2133.32 459.432 2109.08 449.625 2072.81 442.727C2058.08 440.003 2044.49 438.664 2031.36 438.664C2006.09 438.664 1982.03 443.452 1950.73 454.71C1949.3 455.184 1948.06 455.658 1946.71 456.16C1929.32 462.268 1914.52 467.53 1904.05 484.124C1884 516.262 1867.67 568.192 1875.38 604.978C1882.94 641.002 1908.49 648.272 1935.46 655.709C1940.68 657.169 1945.93 658.73 1951.25 660.357C1959.49 663.156 1966.05 665.991 1971.84 669.329C2012.66 692.793 2057.62 714.035 2113.7 736.189C2161.26 754.959 2184.33 796.356 2206.62 836.126C2228.33 874.8 2250.69 914.812 2295.34 933.879C2302.16 936.826 2309.79 938.351 2318.13 938.351C2328 938.351 2338.89 936.166 2350.6 931.992C2382.47 920.622 2410.94 885.695 2432.24 856.569C2465.6 810.812 2507.05 753.871 2556.1 717.261C2557.45 716.397 2558.69 715.448 2560 714.537V713.013C2558.51 714.11 2556.98 715.197 2555.38 716.397C2506.23 752.96 2464.71 809.975 2431.27 855.844C2410.16 884.896 2381.76 919.646 2350.25 930.904C2338.64 934.967 2327.82 937.077 2318.13 937.077C2309.97 937.077 2302.51 935.627 2295.77 932.828C2251.58 913.836 2229.22 874.075 2207.68 835.466C2185.32 795.454 2161.97 754.048 2114.05 735.055C2058.08 712.948 2013.08 691.668 1972.38 668.278C1966.59 664.903 1959.95 661.994 1951.51 659.27C1946.36 657.569 1940.96 656.072 1935.82 654.622C1909.1 647.11 1883.89 640.026 1876.55 604.69C1868.92 568.192 1885.14 516.736 1905.12 484.784C1915.23 468.617 1929.97 463.244 1947.07 457.359C1948.42 456.82 1949.73 456.383 1951.15 455.909C1982.31 444.539 2006.27 439.863 2031.36 439.863C2044.42 439.863 2057.91 441.202 2072.46 443.926C2142.45 457.071 2171.84 481.762 2188.87 541.79C2191.18 549.785 2193.2 558.496 2195.08 566.853C2203.85 605.276 2213.01 644.814 2252.83 644.814C2257.19 644.814 2261.81 644.451 2266.59 643.587C2272.7 642.387 2281.68 638.938 2288.07 636.214C2320.9 622.409 2352.91 596.082 2378.39 562.019C2403.49 528.542 2420.52 489.795 2426.56 452.934C2429.93 431.329 2429.15 409.426 2428.33 388.37C2427.62 370.502 2426.91 352.048 2428.97 334.143C2431.35 311.739 2436.42 303.502 2444.66 289.883C2446.89 286.136 2449.55 281.785 2452.46 276.7C2475.82 257.271 2503.57 247.286 2534.81 247.286C2543.07 247.286 2551.41 248.011 2560 249.462V248.188C2551.41 246.849 2543.07 246.124 2534.81 246.124C2503.21 246.124 2475.28 256.071 2451.58 275.789" fill="#005AC5"/>
<path d="M2493.98 365.413C2487.87 383.644 2486.7 402.525 2485.38 424.316C2484.93 431.828 2484.5 439.748 2483.68 448.282C2480.84 481.332 2474.63 515.394 2468.53 548.332C2462.57 580.897 2456.89 611.696 2455.82 635.914V636.211L2456.11 636.388C2459.83 639.223 2463.8 641.947 2468.53 641.947C2469.42 641.947 2470.3 641.836 2471.08 641.585L2471.26 641.473C2483.15 634.464 2495.86 628.114 2508.17 621.941C2525.74 613.258 2543.59 604.362 2559.99 592.992V591.542C2543.49 603.051 2525.39 612.059 2507.74 620.844C2495.39 627.017 2482.62 633.413 2470.73 640.497C2470.02 640.637 2469.31 640.637 2468.7 640.637C2464.34 640.637 2460.54 638.21 2457.06 635.663C2458.13 611.585 2463.74 581.009 2469.66 548.508C2475.81 515.533 2482.08 481.508 2484.93 448.394C2485.74 439.86 2486.16 431.939 2486.52 424.39C2487.87 402.637 2489.01 383.895 2495.15 365.776C2503.49 340.787 2523.79 324.518 2546.86 324.518C2551.22 324.518 2555.66 325.178 2559.99 326.266V325.104C2555.66 324.016 2551.22 323.43 2546.86 323.43C2523.36 323.43 2502.6 339.885 2493.98 365.413" fill="#005AC5"/>
<path d="M2092.91 591.08C2091.24 600.702 2086.1 608.734 2078.19 613.958C2072.86 617.631 2066.58 619.406 2059.48 619.406C2030.8 619.406 1997.98 589.918 1991.16 565.7C1991.41 541.371 2013.41 530.541 2035.17 530.541C2055.12 530.541 2073.68 538.898 2083.51 552.518C2091.42 563.478 2095.15 578.557 2092.91 591.08V591.08ZM2035.17 529.276C2012.81 529.276 1990.16 540.535 1989.99 565.7V565.84C1996.91 590.54 2030.38 620.605 2059.48 620.605C2066.76 620.605 2073.22 618.718 2078.89 615.046C2087.06 609.533 2092.31 601.362 2094.09 591.368C2096.39 578.483 2092.56 563.051 2084.4 551.793C2074.46 537.987 2055.47 529.276 2035.17 529.276" fill="#005AC5"/>
<path d="M2413.52 729.707L2412.35 732.505C2396.67 770.202 2373.85 815.597 2336.05 831.569C2334.1 831.866 2332.25 832.006 2330.37 832.006C2309.97 832.006 2296.12 814.863 2291.51 798.092C2288.24 742.963 2334.81 719.611 2368.7 702.542C2371.01 701.38 2373.42 700.293 2375.55 699.093C2379.45 697.206 2383.43 694.742 2387.44 692.483C2397.62 686.311 2408.27 680.035 2418.03 680.035C2420.17 680.035 2422.29 680.324 2424.35 680.937C2428.33 694.231 2420.45 713.075 2413.52 729.707V729.707ZM2425.24 680.035L2424.95 679.961C2422.83 679.162 2420.45 678.799 2418.03 678.799C2408.03 678.799 2397.2 685.223 2386.8 691.396C2382.9 693.646 2378.93 696.007 2375.02 698.006C2372.78 699.205 2370.58 700.293 2368.17 701.455C2333.91 718.635 2287.07 742.238 2290.38 798.231C2295.06 815.662 2309.26 833.316 2330.37 833.316C2332.25 833.316 2334.28 833.093 2336.4 832.731C2374.74 816.499 2397.62 771.039 2413.42 732.979L2414.59 730.255C2421.69 713.187 2429.68 694.008 2425.31 680.324L2425.24 680.035" fill="#005AC5"/>
<path d="M2029.15 1243.03C2021.17 1255.74 2007.75 1262.09 1989.58 1262.09C1982.65 1262.09 1975.09 1261.26 1966.69 1259.48C1961.36 1258.35 1956.99 1257.19 1953.38 1255.92C1937.48 1250.36 1930.2 1241.03 1926.57 1221.24C1922.68 1201.16 1922.14 1176.76 1924.88 1154.24C1928.43 1124.72 1945.28 1094.87 1970.59 1094.87C1981.23 1094.87 1992.31 1100.13 2003.41 1110.66C2019.74 1126.28 2031.17 1149.96 2034.54 1175.77C2036.78 1192.62 2038.56 1228.32 2029.15 1243.03V1243.03ZM2004.19 1109.76C1992.95 1099.15 1981.59 1093.6 1970.59 1093.6C1944.57 1093.6 1927.29 1123.99 1923.63 1153.95C1920.9 1176.76 1921.51 1201.27 1925.34 1221.53C1929.06 1241.39 1936.87 1251.38 1953.02 1257.12C1956.64 1258.35 1961.07 1259.55 1966.4 1260.64C1975.02 1262.46 1982.55 1263.37 1989.58 1263.37C2008.28 1263.37 2021.95 1256.76 2030.22 1243.65C2039.69 1228.69 2038.2 1193.93 2035.79 1175.67C2032.23 1149.59 2020.81 1125.48 2004.19 1109.76" fill="#005AC5"/>
<path d="M125.22 1514.48C136.577 1512.41 146.154 1509.94 155.458 1507.69C166.815 1504.86 177.563 1502.13 191.41 1499.96C204.075 1498.07 217.495 1497.05 230.524 1496.07C259.725 1494.15 289.899 1492.04 315.63 1478.28C347.993 1460.92 351.364 1416.8 340.298 1380.74C321.554 1319.65 297.422 1277.42 266.476 1251.67C254.301 1241.58 242.871 1229.96 231.868 1218.59C209.581 1196 186.621 1172.58 156.702 1160.23C133.915 1150.68 107.648 1143.71 82.2714 1136.99C66.9074 1132.89 51.1072 1128.64 36.1339 1123.92C29.1106 1121.74 21.4791 1118.91 13.4928 1115.82C9.15885 1114.22 4.61556 1112.59 0 1110.92V1112.23C4.44293 1113.86 8.80453 1115.46 13.0657 1117.02C21.1248 1120.03 28.7568 1122.9 35.7801 1125.08C50.8624 1129.8 66.6529 1134.09 81.917 1138.08C107.293 1144.87 133.451 1151.88 156.348 1161.32C185.976 1173.67 208.872 1197.02 230.978 1219.43C242.053 1230.79 253.592 1242.49 265.758 1252.55C296.531 1278.15 320.491 1320.2 339.126 1381.21C350.056 1416.72 346.857 1460.19 315.094 1477.08C289.544 1490.77 259.553 1492.87 230.451 1494.98C217.386 1495.78 203.902 1496.76 191.228 1498.79C177.281 1501.04 166.033 1503.77 155.103 1506.49C145.872 1508.85 136.395 1511.21 125.038 1513.28C104.168 1517.1 82.9805 1520 62.4013 1522.73C40.7499 1525.74 19.6343 1528.64 0 1532.35V1533.66C19.6343 1529.84 40.7498 1526.9 62.5737 1524.03C83.162 1521.2 104.35 1518.37 125.22 1514.48" fill="#005AC5"/>
<path d="M98.4259 1441.05C125.392 1433.21 153.258 1425.25 179.771 1413.34C205.956 1401.72 232.468 1388.1 244.288 1360.69C259.553 1324.92 244.643 1286.32 204.366 1257.74C197.334 1252.72 190.773 1247.86 184.313 1243.03C157.338 1222.76 131.852 1203.74 95.1185 1196.44C71.3412 1191.9 36.134 1189.1 0 1188.19V1189.46C36.025 1190.19 71.1687 1192.99 94.9461 1197.64C131.325 1204.9 156.702 1223.85 183.605 1244.01C190.056 1248.84 196.734 1253.81 203.657 1258.72C243.471 1287.04 258.198 1324.99 243.116 1360.14C231.586 1387.09 205.247 1400.71 179.344 1412.14C152.795 1424.06 125.038 1432.05 98.0627 1439.85C84.0434 1443.85 69.4968 1448.13 55.2958 1452.74C37.197 1458.74 18.2805 1462.55 0 1466.07V1467.38C18.4622 1463.71 37.4514 1460.01 55.6502 1453.94C69.7421 1449.29 84.2976 1445.05 98.4259 1441.05" fill="#005AC5"/>
<path d="M89.7944 1585.47C117.052 1586.56 145.091 1587.46 172.493 1584.63C197.688 1582.02 220.866 1576.75 243.298 1571.49C248.904 1570.29 254.401 1568.94 260.08 1567.78C264.241 1566.77 268.32 1565.86 272.573 1564.95C315.348 1555.58 359.641 1546.07 395.657 1520.94C437.615 1491.78 443.112 1430.59 423.95 1388.39C406.488 1349.71 377.204 1319.1 348.884 1289.5C325.388 1265.06 301.075 1239.75 283.685 1209.79C275.698 1198.9 269.138 1188.37 262.742 1178.2C242.163 1145.52 225.909 1119.73 182.715 1109.38C99.4894 1089.48 27.6211 1072.35 14.2015 987.479C9.51323 957.405 15.9729 933.875 22.1876 911.22C27.1575 893.129 31.8727 876.06 30.8097 856.817L30.701 856.566L30.5285 856.454C28.3298 854.353 26.1946 852.168 24.1412 850.03C21.4064 847.083 18.5623 844.108 15.3732 841.635L15.1913 841.496H14.9096C9.23104 841.858 4.26122 842.658 0 843.634V844.833C4.18853 843.922 9.1584 843.095 14.837 842.732C17.8535 845.196 20.5885 848.031 23.2506 850.83C25.3131 852.893 27.3302 855.18 29.5653 857.067C30.6374 876.135 26.0217 893.064 21.0518 910.857C14.8372 933.736 8.34117 957.34 13.0658 987.618C26.549 1073.32 98.7807 1090.61 182.433 1110.55C225.2 1120.75 241.345 1146.43 261.679 1178.85C268.066 1189.09 274.817 1199.52 282.694 1210.41C300.084 1240.41 324.498 1265.79 347.994 1290.41C376.214 1319.94 405.488 1350.33 422.987 1388.82C441.795 1430.7 436.543 1491.05 395.021 1519.99C358.996 1544.9 314.985 1554.6 272.4 1563.75C268.139 1564.7 263.986 1565.68 259.798 1566.48C254.228 1567.78 248.623 1569.02 243.044 1570.4C220.693 1575.48 197.515 1580.82 172.312 1583.47C144.991 1586.38 117.052 1585.29 89.9037 1584.27C58.3852 1583.22 28.5747 1582.13 0 1586.56V1587.83C28.502 1583.36 58.385 1584.49 89.7944 1585.47" fill="#005AC5"/>
<path d="M902.72 1262.28C907.69 1249.46 916.139 1241.21 925.252 1240.13C932.811 1239.33 940.698 1238.75 948.784 1238.75C986.763 1238.75 1024.63 1248.3 1064.92 1258.46C1089.4 1264.64 1114.71 1270.99 1140.26 1275.06C1147.72 1276.33 1156.23 1276.8 1167.77 1276.8C1173.45 1276.8 1179.48 1276.69 1185.33 1276.62C1191.26 1276.44 1197.47 1276.33 1203.61 1276.33C1235.2 1276.33 1266.69 1280 1283.19 1306.76C1303.52 1339.81 1296.96 1377.21 1290.56 1413.27C1288.97 1422.32 1287.27 1431.68 1286.13 1440.58C1280.52 1482.78 1250.46 1511.83 1203.44 1520.58C1190.56 1523.01 1176.89 1524.1 1162.97 1524.1C1135.47 1524.1 1107.61 1519.38 1082.48 1510.56C1038.76 1495.05 1011.5 1477.44 1001.32 1432.95C993.859 1400.71 982.501 1376.05 963.231 1350.34C955.78 1340.24 943.814 1325.9 929.795 1315.48C926.679 1313.12 922.772 1311.3 919.156 1309.41C913.368 1306.58 907.508 1303.68 903.965 1299.39C897.677 1291.69 897.214 1276.44 902.72 1262.28V1262.28ZM918.51 1310.58C922.417 1312.5 926.07 1314.21 928.986 1316.46C942.933 1326.84 954.817 1340.97 962.34 1351.17C981.439 1376.67 992.796 1401.18 1000.15 1433.32C1010.54 1478.28 1038.04 1496.07 1082.13 1511.69C1107.32 1520.58 1135.3 1525.38 1162.97 1525.38C1176.99 1525.38 1190.66 1524.1 1203.61 1521.74C1251.18 1513.03 1281.7 1483.61 1287.27 1440.76C1288.51 1431.87 1290.11 1422.53 1291.7 1413.53C1298.2 1377.21 1304.84 1339.63 1284.25 1306.11C1267.39 1278.87 1235.56 1275.06 1203.61 1275.06C1197.47 1275.06 1191.19 1275.28 1185.33 1275.35C1179.48 1275.53 1173.45 1275.71 1167.77 1275.71C1156.23 1275.71 1147.79 1275.06 1140.44 1273.97C1114.95 1269.83 1089.58 1263.44 1065.27 1257.27C1024.91 1247.21 986.836 1237.47 948.784 1237.47C940.698 1237.47 932.712 1238.02 925.189 1238.85C915.494 1240.05 906.799 1248.59 901.584 1261.84C896.796 1274.19 895.369 1290.68 903.001 1300.15C906.799 1304.76 912.832 1307.67 918.51 1310.58Z" fill="#005AC5"/>
<path d="M1104.68 1444.38C1112.95 1426.95 1140.35 1410.79 1153.48 1406.8C1156.78 1405.82 1160.04 1405.35 1163.17 1405.35C1171.94 1405.35 1180.28 1408.98 1186.66 1415.77C1193.23 1422.59 1196.96 1431.85 1196.7 1440.57C1196.42 1451.57 1190.14 1460.62 1178.96 1465.92C1177.08 1466.79 1175.13 1467.63 1173.11 1468.35C1166.26 1470.6 1151.7 1473.07 1137.68 1473.07C1118.8 1473.07 1106.81 1468.71 1103.72 1460.83C1101.59 1455.75 1101.95 1450.19 1104.68 1444.38ZM1137.68 1474.34C1151.81 1474.34 1166.61 1471.8 1173.46 1469.51C1175.48 1468.79 1177.62 1467.99 1179.5 1467.08C1191.03 1461.56 1197.67 1452.08 1197.95 1440.57C1198.13 1431.56 1194.22 1421.94 1187.56 1414.97C1178.43 1405.35 1165.55 1401.79 1153.23 1405.6C1139.92 1409.78 1111.95 1426.04 1103.72 1443.84C1100.78 1450.01 1100.42 1455.82 1102.55 1461.2C1106.92 1471.98 1124.02 1474.34 1137.68 1474.34" fill="#005AC5"/>
<path d="M2453.88 1098.5C2429.74 1104.06 2406.5 1116 2384.07 1127.73C2361.53 1139.35 2338.28 1151.45 2314.32 1156.6C2252.29 1170.33 2229.33 1114.73 2209.09 1065.52C2206.15 1058.55 2203.42 1051.84 2200.65 1045.37C2189.11 1019.7 2176.09 996.161 2161.61 975.505C2132.61 933.81 2099.25 900.584 2062.34 876.729C2028.16 854.65 1999.34 842.593 1971.84 838.855C1927.19 832.748 1895.43 846.953 1858.87 863.184C1850.99 866.745 1842.72 870.445 1834.31 873.894C1810.18 883.878 1782.74 895.211 1764.04 919.902C1750.02 938.421 1739.37 960.872 1729.26 982.654L1726.84 987.562C1707.96 1027.57 1694.12 1067.08 1679.46 1108.85C1676.2 1118.29 1672.9 1127.91 1669.7 1137.36C1660.93 1163.21 1651.88 1190.01 1640.77 1215.36C1632.54 1234.68 1619.94 1251.46 1607.77 1267.8C1600.96 1276.91 1593.93 1286.25 1587.82 1295.94C1572.1 1320.45 1547.54 1341.91 1523.66 1362.58C1515.06 1370.13 1506.9 1377.21 1499.27 1384.37C1494.48 1388.76 1489.4 1393.26 1483.91 1397.98C1459.24 1419.81 1431.31 1444.47 1423.92 1475.81C1422.97 1479.98 1422.08 1484.16 1421.19 1488.15C1413.27 1523.2 1406.36 1553.52 1372.11 1575.49C1339.74 1596.26 1300.35 1603.02 1265.63 1608.9C1249.24 1611.7 1232.56 1613.91 1216.48 1616.16C1186.67 1620.08 1158.63 1623.9 1133.18 1630.69C1074.97 1646.56 1039.49 1687.88 1027.67 1753.72C1016.24 1817.89 1027.84 1896.26 1040.79 1928.28C1052.44 1957.15 1072.03 1979.74 1095.56 2000.01H1097.51C1073.56 1979.67 1053.68 1956.86 1041.86 1927.74C1029.08 1895.96 1017.37 1817.89 1028.84 1753.87C1040.62 1688.61 1075.68 1647.57 1133.43 1631.96C1158.91 1624.95 1186.95 1621.25 1216.66 1617.25C1232.73 1615.15 1249.41 1612.97 1265.81 1610.17C1300.59 1604.18 1340.1 1597.46 1372.74 1576.47C1407.53 1554.25 1414.27 1523.74 1422.26 1488.44C1423.21 1484.45 1424.2 1480.27 1425.09 1476.06C1432.37 1445.12 1460.23 1420.68 1484.72 1399C1490.11 1394.21 1495.37 1389.67 1500.05 1385.2C1507.68 1378.12 1515.78 1370.97 1524.47 1363.49C1548.32 1342.71 1572.98 1321.4 1588.71 1296.59C1594.92 1286.97 1601.91 1277.64 1608.65 1268.52C1620.83 1252.18 1633.5 1235.22 1641.94 1215.87C1653.02 1190.56 1662.07 1163.68 1670.87 1137.72C1674.06 1128.35 1677.33 1118.65 1680.63 1109.21C1695.26 1067.52 1709.1 1028.16 1728.01 987.999L1730.21 983.091C1740.43 961.411 1750.97 939.081 1765.1 920.562C1783.55 896.224 1810.77 884.966 1834.73 875.056C1843.26 871.421 1851.42 867.833 1859.33 864.384C1895.78 848.04 1927.3 833.947 1971.73 839.943C1999.06 843.755 2027.63 855.626 2061.71 877.705C2098.44 901.495 2131.79 934.609 2160.72 976.304C2175.02 996.822 2188.05 1020.31 2199.52 1045.95C2202.35 1052.28 2205.09 1058.99 2208.03 1066.11C2217.86 1089.78 2228.86 1116.66 2245.12 1135.25C2263.83 1156.6 2286.54 1164.05 2314.68 1157.87C2338.64 1152.61 2361.95 1140.44 2384.6 1128.71C2407.03 1117.2 2430.28 1105.11 2454.16 1099.77C2493.56 1090.76 2529.65 1101.22 2559.99 1112.23V1110.92C2529.58 1099.95 2493.45 1089.71 2453.88 1098.5" fill="#005AC5"/>
<path d="M2391.41 1557.32C2363.3 1585.28 2336.68 1611.79 2301.79 1622.14C2253.34 1636.77 2216.72 1600.28 2181.23 1564.83C2179.09 1562.69 2176.86 1560.48 2174.73 1558.3C2156.73 1540.5 2135.16 1527 2114.33 1513.99C2099.42 1504.66 2083.88 1494.97 2069.97 1483.78C2059.49 1475.32 2048.39 1467.51 2037.67 1460C2030.39 1454.73 2022.94 1449.46 2015.84 1444.2C2003.95 1435.3 1995.68 1421.32 1987.62 1407.7C1983.26 1400.44 1978.82 1392.81 1973.78 1386.35C1960.12 1368.37 1940.85 1354.79 1922.14 1341.54C1887.9 1317.35 1855.49 1294.47 1853.18 1247.08C1851.87 1218.87 1858.08 1183.82 1870.22 1150.85C1881.86 1119.73 1903.76 1085.96 1930.48 1058.17C1948.65 1039.29 1967.11 1030.51 1985.31 1032.03C2017.61 1034.83 2045.3 1069.79 2065.78 1100.01C2077.84 1117.8 2082.63 1134.87 2087.6 1153.03C2090.54 1163.56 2093.56 1174.27 2098.18 1185.82C2102.79 1197.26 2108.36 1208.52 2113.61 1219.41C2122.14 1236.59 2130.72 1254.27 2136.16 1273.23C2145.2 1304.93 2146.98 1350.87 2132.96 1377.38C2119.29 1402.98 2125.75 1446.49 2140.13 1469.26C2153.19 1489.95 2185.84 1503.14 2212.1 1513.74C2218.04 1516.1 2223.53 1518.46 2228.5 1520.57C2230.81 1521.66 2233.22 1522.64 2235.43 1523.73C2243.94 1527.54 2251.14 1530.99 2259.38 1532.7C2300.13 1541.23 2328.23 1521.29 2345.2 1471.72C2363.02 1419.58 2350.7 1372.22 2310.42 1338.16C2298.17 1327.92 2284.15 1320 2270.56 1312.38C2264.45 1308.93 2258.07 1305.3 2251.93 1301.59C2250.33 1300.57 2248.73 1299.67 2247.14 1298.58C2229.39 1287.76 2207.39 1274.32 2195.25 1258.7C2177.04 1235.28 2162.13 1209.97 2150.88 1183.28C2145.2 1169.66 2140.66 1155.75 2135.97 1140.97C2132.5 1130.37 2128.95 1119.44 2124.87 1108.4C2115.57 1083.16 2101.38 1060.72 2091.25 1046.38C2072.09 1019.69 2037.56 983.801 2003.24 970.73C1948.93 950.139 1875.83 1004.98 1839.87 1046.74C1819.75 1070.16 1806.69 1099.39 1796.5 1124.81C1793.73 1131.71 1791.07 1138.79 1788.34 1145.62C1773.51 1183.71 1759.42 1219.77 1735.99 1253C1728.43 1263.72 1722.22 1275.16 1716.19 1286.23C1711.86 1294.11 1707.42 1302.5 1702.45 1310.38C1689.85 1330.53 1670.68 1342.52 1651.77 1352.5C1643.07 1357.12 1634.02 1361.4 1625.33 1365.65C1600.13 1377.63 1574.15 1390.16 1552.92 1410.61C1539.44 1423.68 1534.12 1437.48 1536.96 1451.71C1541.68 1475.32 1567.23 1493.04 1589.66 1501.57C1636.26 1519.37 1690.21 1512.91 1737.65 1507.1L1743.8 1506.48C1747.59 1506.01 1751.32 1505.64 1755.05 1505.21C1775.99 1503.03 1795.87 1500.92 1815.74 1489.3C1818.94 1487.52 1822.06 1485.71 1825.14 1483.85C1855.24 1466.35 1881.22 1451.1 1915.75 1443.29C1937.4 1438.32 1969.6 1438.75 1989.22 1451.35C1998.98 1457.53 2003.13 1467 2007.57 1476.95C2010.23 1483.13 2013.07 1489.41 2017.15 1495.11C2033.66 1517.19 2055.95 1534.51 2077.49 1551.43C2098.6 1567.85 2120.54 1584.92 2137.05 1606.45C2146.88 1619.23 2155.14 1635.14 2163.19 1650.35C2171.18 1665.72 2179.52 1681.51 2189.03 1693.68C2208.62 1718.48 2235.24 1727.01 2264.35 1717.72C2289.55 1709.66 2317.52 1687.8 2344.55 1666.62C2348.74 1663.36 2352.72 1660.16 2356.73 1657.07C2370.82 1646.18 2384.6 1634.78 2397.9 1623.66C2434.46 1593.27 2469.06 1564.47 2508 1548.35C2523.43 1541.96 2541.11 1537.34 2559.99 1533.64V1532.33C2540.82 1536.15 2523.08 1540.72 2507.57 1547.26C2468.42 1563.38 2433.75 1592.36 2397.09 1622.79C2383.78 1633.83 2370.11 1645.2 2356.02 1656.09C2352.01 1659.18 2347.93 1662.34 2343.96 1665.61C2316.98 1686.71 2289.12 1708.57 2263.99 1716.56C2235.43 1725.64 2209.16 1717.28 2190 1692.88C2180.58 1680.9 2172.61 1665.83 2164.27 1649.92C2156.21 1634.49 2147.76 1618.51 2137.93 1605.72C2121.25 1584.08 2099.42 1566.94 2078.2 1550.42C2056.73 1533.64 2034.54 1516.28 2018.15 1494.31C2014.13 1488.86 2011.4 1482.62 2008.64 1476.52C2004.13 1466.42 1999.87 1456.8 1989.93 1450.26C1969.95 1437.48 1937.3 1437.01 1915.47 1442.02C1880.79 1450.01 1854.71 1465.19 1824.54 1482.87C1821.42 1484.58 1818.23 1486.43 1815.14 1488.43C1795.51 1499.76 1775.81 1501.76 1754.87 1503.94C1751.26 1504.37 1747.42 1504.84 1743.62 1505.21L1737.59 1506.01C1690.1 1511.67 1636.44 1518.1 1590.01 1500.41C1562.26 1489.88 1541.86 1470.6 1538.13 1451.46C1535.36 1437.66 1540.61 1424.23 1553.81 1411.52C1574.76 1391.25 1600.77 1378.76 1625.79 1366.67C1634.56 1362.56 1643.61 1358.24 1652.41 1353.59C1671.29 1343.61 1690.74 1331.44 1703.52 1310.92C1708.38 1303.01 1712.92 1294.84 1717.25 1286.88C1723.28 1275.77 1729.5 1264.33 1736.95 1253.8C1760.55 1220.39 1774.57 1184.3 1789.48 1146.06C1792.14 1139.16 1794.8 1132.26 1797.64 1125.18C1807.86 1099.94 1820.82 1070.88 1840.76 1047.58C1876.43 1006.07 1949.01 951.524 2002.78 971.93C2036.85 984.824 2071.2 1020.59 2090.19 1047.21C2100.48 1061.45 2114.58 1083.67 2123.8 1108.83C2127.89 1119.8 2131.43 1130.8 2134.8 1141.34C2139.53 1156.12 2144.03 1170.1 2149.82 1183.71C2161.07 1210.51 2176.08 1235.94 2194.25 1259.47C2206.61 1275.26 2228.68 1288.77 2246.43 1299.67C2248.13 1300.57 2249.73 1301.59 2251.39 1302.64C2257.43 1306.38 2263.92 1309.91 2270.02 1313.47C2283.52 1321.02 2297.46 1328.83 2309.6 1339.07C2349.45 1372.73 2361.7 1419.69 2344.13 1471.36C2327.35 1520.28 2299.66 1539.89 2259.56 1531.53C2251.57 1529.83 2244.29 1526.52 2235.88 1522.64C2233.65 1521.66 2231.27 1520.57 2228.97 1519.37C2224.07 1517.26 2218.39 1515.12 2212.53 1512.65C2186.37 1502.01 2153.9 1488.94 2141.13 1468.64C2127 1446.12 2120.54 1403.34 2133.92 1378.03C2148.04 1351.31 2146.27 1304.82 2137.22 1272.87C2131.89 1253.91 2123.09 1236.12 2114.75 1218.87C2109.36 1207.97 2103.93 1196.72 2099.31 1185.28C2094.7 1173.91 2091.68 1163.12 2088.77 1152.67C2083.8 1134.44 2079.02 1117.3 2066.77 1099.28C2046.08 1068.96 2018.15 1033.67 1985.39 1030.87C1966.86 1029.2 1948.13 1038.09 1929.66 1057.27C1902.8 1085.23 1880.79 1119.18 1869.15 1150.41C1856.91 1183.57 1850.7 1218.87 1852.04 1247.19C1854.35 1295.13 1888.42 1319.17 1921.43 1342.52C1940.07 1355.66 1959.3 1369.28 1972.89 1387.08C1977.86 1393.47 1982.12 1400.69 1986.63 1408.43C1994.72 1421.94 2003.06 1436.03 2015.02 1445.11C2022.23 1450.44 2029.75 1455.82 2036.96 1460.9C2047.61 1468.53 2058.68 1476.41 2069.15 1484.69C2083.17 1495.95 2098.71 1505.64 2113.69 1514.9C2134.56 1527.98 2156.03 1541.45 2173.84 1559.24C2176.15 1561.38 2178.21 1563.49 2180.41 1565.78C2216.08 1601.26 2252.99 1638.12 2302.14 1623.3C2337.21 1612.88 2364.01 1586.37 2392.29 1558.23C2419.09 1531.53 2446.95 1503.86 2484.39 1487.78C2508.35 1477.54 2534.44 1471.62 2559.99 1466.28V1464.97C2534.26 1470.34 2508.1 1476.34 2483.86 1486.8C2446.34 1502.85 2418.49 1530.55 2391.41 1557.32" fill="#005AC5"/>
<path d="M2435.06 1195.35C2415.83 1199.52 2396.13 1209.55 2375.26 1219.97C2340.66 1237.4 2304.99 1255.45 2272.09 1244.92C2212.89 1226.07 2190.17 1161.68 2170.12 1105.03C2165.97 1093.41 2162.13 1082.52 2157.98 1071.99C2148.82 1048.68 2137.29 1026.96 2123.8 1007.78C2102.79 977.864 2076.95 959.308 2049.62 939.804C2045.47 936.894 2041.39 933.882 2037.13 930.907C2013.07 913.365 1983.73 896.157 1949.83 901.13C1939.18 902.692 1928.08 908.503 1917.43 914.09C1910.68 917.762 1904.29 920.988 1898.08 923.349C1893.47 925.097 1888.78 926.91 1883.99 928.732C1847.68 942.054 1810.17 956.073 1784.33 986.1C1776.99 994.709 1770.59 1005.97 1764.46 1016.68C1761.26 1022.42 1758.24 1027.68 1755.16 1032.77C1742.27 1052.81 1731.27 1075 1722.15 1098.57C1712.39 1124.28 1706.61 1151.81 1701.1 1178.5C1695.07 1207.26 1688.86 1237.11 1677.61 1264.16C1665.97 1291.98 1635.27 1311.92 1608.12 1329.46C1600.77 1334.25 1593.75 1338.83 1587.53 1343.33C1569.08 1356.51 1553.03 1372.38 1537.67 1387.81C1527.55 1397.91 1517.08 1408.44 1506.01 1417.96C1480.35 1440.11 1468.92 1477.98 1475.91 1516.73C1488.33 1584.64 1514.17 1595.82 1570.07 1605.38C1612.66 1612.53 1662.24 1610.82 1721.51 1600.29C1755.69 1594.12 1788.16 1571.49 1819.46 1549.78C1830.93 1541.82 1841.65 1534.34 1852.23 1527.92C1896.24 1500.68 1948.48 1506.38 1991.88 1543.06C1997.45 1547.71 2003.06 1552.36 2008.64 1556.79C2041.65 1583.84 2072.87 1609.33 2089.48 1649.93C2096.83 1667.65 2101.62 1686.5 2106.35 1704.88C2110.85 1722.74 2115.57 1741.26 2122.66 1758.8C2133.31 1785.13 2154.15 1814.26 2177.15 1834.85C2196.91 1852.75 2226.91 1872 2257.25 1862.92C2285.46 1854.49 2302.08 1821.7 2319.72 1787.02C2330.89 1764.98 2342.61 1742.24 2357.98 1723.36C2377.92 1698.78 2404.65 1676.55 2422.99 1661.92L2424.88 1660.39C2464.27 1629.12 2501.36 1599.56 2550.51 1589.54C2553.6 1588.82 2556.8 1588.31 2559.99 1587.84V1586.56C2556.73 1587.11 2553.53 1587.65 2550.16 1588.31C2500.72 1598.37 2463.56 1628.04 2424.24 1659.37L2422.21 1660.9C2403.83 1675.53 2377.14 1697.98 2356.99 1722.56C2341.54 1741.52 2330.01 1764.4 2318.65 1786.48C2301.19 1820.97 2284.58 1853.48 2256.9 1861.75C2227.19 1870.73 2197.56 1851.66 2177.93 1834.05C2155.39 1813.82 2134.09 1784.11 2123.8 1758.33C2116.7 1740.9 2112.03 1722.38 2107.48 1704.59C2102.79 1686.25 2098.01 1667.29 2090.62 1649.5C2073.87 1608.61 2041.04 1581.84 2009.27 1555.88C2003.84 1551.45 1998.16 1546.8 1992.67 1542.19C1948.76 1505.11 1896.06 1499.48 1851.59 1526.83C1840.94 1533.36 1830.22 1540.81 1818.94 1548.72C1787.53 1570.51 1755.16 1592.92 1721.27 1598.98C1662.17 1609.7 1612.73 1611.33 1570.25 1604.07C1514.95 1594.74 1489.4 1583.59 1477.09 1516.48C1470.05 1478.17 1481.52 1440.76 1506.72 1418.97C1517.79 1409.28 1528.37 1398.82 1538.55 1388.65C1553.92 1373.32 1569.79 1357.31 1588.17 1344.27C1594.38 1339.81 1601.48 1335.27 1608.76 1330.44C1635.98 1312.86 1666.86 1292.85 1678.67 1264.71C1690.03 1237.47 1696.24 1207.55 1702.28 1178.75C1707.85 1152.06 1713.45 1124.64 1723.28 1099.15C1732.34 1075.62 1743.33 1053.46 1756.12 1033.38C1759.31 1028.41 1762.32 1022.96 1765.52 1017.34C1771.66 1006.62 1777.94 995.546 1785.33 986.9C1810.95 957.123 1848.32 943.253 1884.42 929.819C1889.13 927.997 1893.82 926.296 1898.61 924.548C1904.93 922.122 1911.49 918.561 1917.88 915.177C1928.53 909.59 1939.53 903.854 1950.01 902.33C1983.54 897.384 2012.47 914.564 2036.5 931.883C2040.76 934.97 2044.76 937.805 2048.92 940.715C2076.25 960.321 2101.98 978.663 2122.85 1008.44C2136.33 1027.57 2147.69 1049.19 2156.92 1072.53C2161 1082.88 2164.8 1093.85 2168.98 1105.47C2189.11 1162.41 2211.93 1227.05 2271.81 1246.12C2305.1 1256.76 2341.11 1238.6 2375.79 1221.06C2396.66 1210.53 2416.25 1200.72 2435.24 1196.55C2462.22 1190.63 2512.01 1188.27 2559.99 1189.47V1188.19C2511.9 1187.18 2462.04 1189.47 2435.06 1195.35" fill="#005AC5"/>
<path d="M2410.85 224.571C2378.45 247.524 2359.03 280.136 2353.18 321.282C2350.87 337.328 2352.64 354.945 2354.41 371.827C2356.37 389.621 2358.21 407.963 2355.48 425.282C2352.46 445.186 2341.99 462.98 2328.76 470.863C2319.46 476.525 2309.17 477.138 2298.34 472.964C2263.38 431.381 2234.81 403.789 2191.76 385.809C2179.44 380.724 2167.02 376.299 2151.48 371.353C2143.95 368.927 2136.32 366.38 2128.94 363.916C2082.2 348.224 2033.75 332.066 1955.03 338.713C1917.24 341.874 1888.77 349.023 1863.93 374.737C1847.49 391.731 1835.07 412.137 1823.29 431.929C1814.59 446.088 1805.73 460.869 1795.51 474.052C1790.28 480.773 1784.15 487.42 1778.21 493.844C1769.42 503.364 1760.19 513.162 1753.45 524.058C1739.54 546.685 1738.89 584.345 1744.14 609.688C1751.07 642.811 1771.72 671.24 1792.49 697.567C1797.56 704.103 1802.42 711.298 1807.74 718.81C1821.59 739.151 1835.96 760.142 1855.94 771.038C1877.84 782.798 1903.4 782.909 1927.7 781.162C1936.15 780.66 1944.67 778.187 1953.02 776.011C1965.15 772.627 1977.75 769.113 1989.92 771.4C2033.12 779.274 2082.1 810.074 2113.43 836.29C2130.47 850.458 2145.91 866.429 2159.29 883.86C2169.76 897.479 2179.8 911.21 2190.52 925.917C2208.8 950.934 2227.71 976.825 2249.18 1002.43C2269.14 1026.29 2295.15 1048.8 2335.96 1034.39C2359.1 1026.11 2379.08 1011.98 2397.61 998.068C2425.05 977.374 2449.89 948.434 2473.92 920.247C2495.85 894.505 2516.69 870.176 2537.19 855.245C2542.77 851.183 2549.44 847.371 2559.98 844.824V843.625C2549.16 846.098 2542.16 850.16 2536.48 854.269C2515.79 869.227 2495.03 893.556 2472.96 919.521C2449.07 947.485 2424.34 976.537 2396.9 997.054C2377.84 1011.51 2358.57 1025.13 2335.61 1033.23C2295.39 1047.46 2269.77 1025.19 2250.07 1001.7C2228.67 976.1 2209.69 950.135 2191.52 925.192C2180.76 910.485 2170.65 896.643 2160.17 883.135C2146.8 865.704 2131.36 849.547 2114.14 835.314C2082.62 809.051 2033.47 778.075 1990.1 770.201C1977.67 767.951 1964.97 771.4 1952.66 774.849C1944.38 776.987 1935.98 779.349 1927.64 779.934C1903.5 781.636 1878.12 781.636 1856.48 769.903C1836.78 759.194 1822.47 738.314 1808.63 718.159C1803.49 710.573 1798.52 703.378 1793.37 696.731C1772.79 670.7 1752.03 642.374 1745.28 609.437C1740.14 584.271 1740.77 547.048 1754.51 524.708C1761.08 513.887 1770.23 504.126 1779.11 494.569C1785.03 488.22 1791.24 481.61 1796.39 474.851C1806.79 461.529 1815.66 446.822 1824.18 432.543C1836.14 412.76 1848.38 392.456 1864.82 375.639C1889.38 350.222 1917.59 343.036 1955.14 339.875C2033.65 333.34 2082.02 349.386 2128.59 365.115C2135.97 367.542 2143.6 370.126 2151.12 372.553C2166.57 377.461 2179.09 381.886 2191.23 386.971C2234.17 404.765 2262.74 432.403 2297.46 473.875L2297.53 473.949L2297.7 474.052C2309.06 478.412 2319.71 477.575 2329.39 471.988C2342.88 463.891 2353.6 445.66 2356.72 425.505C2359.38 408.074 2357.43 389.621 2355.55 371.716C2353.89 354.833 2352.11 337.328 2354.31 321.422C2360.17 280.61 2379.44 248.36 2411.45 225.593C2448.12 199.517 2499.3 187.348 2559.98 189.709V188.445C2499.04 186.158 2447.65 198.317 2410.85 224.571" fill="#005AC5"/>
<path d="M697.766 -443.235C699.829 -426.167 702.382 -394.494 696.631 -373.214C687.054 -338.213 659.37 -308.074 632.64 -278.799C594.843 -237.69 555.802 -195.093 567.804 -138.19C574.264 -107.502 590.409 -88.4439 617.485 -79.8354C640.917 -72.2773 669.728 -73.3 702.209 -75.1128C761.476 -78.4502 801.689 -68.4659 825.003 -59.3925C848.608 -50.1239 870.259 -34.8776 891.375 -19.9846C919.586 -0.127338 946.316 18.8004 976.481 22.9745C988.547 24.6107 998.487 24.2481 1009.84 21.5893C1038.06 15.2398 1059.35 0.709435 1081.89 -14.7227C1120.22 -40.7994 1159.79 -67.8523 1236.63 -52.1226C1253.49 -48.7852 1270.24 -43.5884 1287.99 -38.2151C1344.6 -21.0723 1403.16 -3.46479 1468.64 -38.9402C1527.84 -69.3769 1565.1 -125.23 1601.02 -179.224C1617.81 -204.353 1635.2 -230.541 1654.37 -253.42C1678.93 -282.611 1712.39 -322.669 1753.46 -308.799C1769.96 -303.351 1786.99 -300.627 1803.5 -297.978C1829.69 -293.729 1856.66 -289.369 1880.98 -273.714C1898.37 -262.567 1911.85 -246.661 1924.99 -231.266C1931.09 -224.07 1937.48 -216.633 1944.15 -209.726C1958.88 -194.591 1970.77 -176.686 1982.3 -159.432C1992.13 -144.725 2002.25 -129.655 2014.14 -116.11C2030.11 -101.691 2044.13 -89.0947 2060.46 -74.0251C2080.15 -55.5715 2098.18 -33.7156 2115.57 -12.6125C2148.93 27.9481 2180.34 66.1474 2221.41 78.4931C2250.44 87.3248 2280.43 86.1627 2318.66 74.9047C2339.06 68.8062 2366.04 57.1112 2385.02 48.2144C2423.53 30.3094 2466.93 5.79462 2500.9 -17.1863C2527.45 -35.1285 2547.68 -60.4057 2559.99 -90.6193V-93.8174C2547.92 -62.544 2527.35 -36.5138 2500.37 -18.2834C2466.3 4.70683 2423 29.2218 2384.49 47.0897C2365.61 55.912 2338.71 67.7092 2318.4 73.7055C2280.25 84.8519 2250.51 86.0513 2221.76 77.4056C2181.05 65.1714 2149.71 27.0371 2116.46 -13.3375C2099.07 -34.4406 2081.04 -56.371 2061.16 -74.8245C2044.84 -90.0057 2030.93 -102.714 2014.95 -117.059C2003.13 -130.381 1993.13 -145.524 1983.26 -160.157C1971.72 -177.411 1959.66 -195.316 1945.04 -210.525C1938.3 -217.461 1931.97 -224.87 1925.87 -232.168C1912.74 -247.609 1899.15 -263.581 1881.58 -274.736C1857.09 -290.531 1829.94 -294.891 1803.67 -299.065C1787.17 -301.789 1770.14 -304.513 1753.92 -309.961C1712.04 -324.008 1678.15 -283.698 1653.48 -254.219C1634.21 -231.155 1616.92 -205.189 1600.06 -179.949C1564.11 -125.955 1527.02 -70.2135 1468.21 -40.065C1403.08 -4.73829 1344.7 -22.3459 1288.28 -39.4143C1270.52 -44.7505 1253.74 -49.8357 1236.81 -53.2847C1159.61 -69.0144 1119.76 -41.9616 1081.25 -15.699C1058.83 -0.378357 1037.6 14.0777 1009.49 20.3901C998.378 22.9745 988.547 23.3371 976.663 21.6638C946.843 17.6756 920.122 -1.10337 892.011 -21.0722C870.968 -35.8537 849.072 -51.2858 825.358 -60.5823C802.044 -69.6278 761.657 -79.7239 702.137 -76.3865C646.486 -73.1885 583.314 -69.5534 568.867 -138.44C557.156 -194.731 595.906 -237.151 633.457 -278.111C660.324 -307.414 688.118 -337.627 697.703 -372.963C703.273 -393.23 701.501 -422.421 699.011 -443.412C694.932 -477.075 685.274 -511.685 674.989 -548.183C673.917 -552.107 672.853 -555.993 671.681 -559.981H670.446C671.609 -555.918 672.744 -551.883 673.916 -547.821C684.101 -511.323 693.868 -476.935 697.766 -443.235" fill="#005AC5"/>
<path d="M655.101 1836.23C664.332 1805.43 680.014 1786.84 704.682 1758.95C708.516 1754.52 712.778 1750.16 717.284 1745.33C734.847 1726.74 754.835 1705.6 759.269 1683.63C768.137 1639.66 741.597 1613.91 714.367 1594.63C700.884 1585.11 685.802 1577.56 671.147 1570.3C652.266 1560.85 632.632 1551.09 616.486 1536.82C599.278 1521.56 584.477 1499.85 572.303 1472.18C566.797 1459.9 564.425 1446.57 561.936 1433.79C559.628 1421.23 557.22 1408.33 552.069 1396.35C528.291 1341.91 497.236 1280.36 446.483 1237.22C424.404 1218.52 396.548 1188.92 389.17 1153.7C384.373 1130.53 391.051 1110.3 396.439 1094.07L397.329 1091.13C409.395 1054.49 445.42 966.97 520.841 944.891C534.324 940.893 550.933 937.993 568.396 934.832C590.401 931.021 613.225 926.912 629.725 920.627C655.637 910.866 674.09 897.321 693.679 881.954L696.523 879.815C715.258 865.108 738.581 846.841 769.027 849.202C795.367 851.489 825.532 865.471 851.544 887.987C877.884 910.643 895.446 938.17 899.989 963.521C902.833 979.827 904.142 993.01 905.386 1005.72C906.559 1016.68 907.44 1027.07 909.466 1038.47C919.224 1095.67 946.027 1141.35 989.248 1173.92C1024.39 1200.43 1071.13 1219.06 1128.45 1229.16C1202.8 1242.41 1265.97 1217.54 1289.58 1206.24C1327.2 1188.27 1367.48 1145.05 1402.26 1105.83C1436.87 1066.91 1455.15 1043.84 1459.23 982.04C1460.57 962.136 1458.98 943.004 1457.45 924.262C1456.92 917.039 1456.21 909.592 1455.78 902.108C1455.5 896.661 1455.07 891.213 1454.54 885.403C1452.84 866.633 1451.24 847.203 1454.54 827.234C1461.53 786.014 1484.78 767.746 1525.88 771.855C1579.37 776.931 1626.21 813.252 1645.02 864.383C1660.04 905.055 1647.96 947.503 1638.39 981.817L1636.79 987.487C1620.89 1044.21 1599.24 1088.4 1570.77 1122.76C1554.52 1142.08 1536.7 1160.23 1519.31 1177.92C1512.81 1184.38 1506.25 1191.1 1499.87 1197.82C1490.82 1207.19 1480.81 1215.79 1471.05 1224.04C1458.87 1234.39 1446.27 1245.28 1435.55 1257.74C1420.37 1275.28 1409.11 1295.14 1399.96 1312.21C1370.25 1368.13 1349.49 1417.52 1336.61 1462.73C1325 1503.59 1292.88 1536.09 1250.72 1549.63C1196.34 1566.96 1118.44 1564.96 1019.24 1543.61C970.622 1533.07 941.584 1504.6 933.243 1458.74C923.767 1406.45 889.168 1380.37 852.68 1352.88C843.276 1345.8 833.618 1338.46 824.214 1330.73C785.427 1298.23 804.771 1267.43 825.177 1234.86C834.336 1220.26 843.739 1205.26 847.71 1189.9C854.206 1165.94 845.865 1140.62 837.879 1116.11C833.69 1103.33 829.793 1091.35 827.839 1079.43C818.436 1022.86 809.023 978.228 780.92 959.849C765.838 950.041 746.495 948.702 721.645 955.851C717.638 956.874 713.204 958.213 708.516 959.71C698.931 962.573 688 965.882 679.06 967.844C663.514 971.47 647.36 973.58 630.261 975.644C612.053 978.005 593.345 980.366 572.657 984.838C541.356 991.448 513.736 1006.92 492.975 1029.43C472.568 1051.48 459.612 1079.43 455.36 1110.19C453.579 1123.27 453.052 1134.52 456.596 1146.8C466.89 1182.57 498.653 1207.81 526.619 1230.07C533.079 1235.11 539.222 1239.94 545.082 1244.92L546.036 1245.75C573.12 1268.63 606.837 1297.14 605.593 1336.25C604.239 1376.56 609.318 1405.83 622.347 1434.15C642.926 1478.64 671.964 1505.66 722.536 1527.26C726.334 1528.83 730.059 1530.46 733.893 1531.99C751.283 1539.36 769.1 1546.91 785.782 1556.53C799.374 1564.34 808.496 1574.11 818.081 1584.5C823.397 1590.2 828.902 1596.12 835.217 1601.71C842.74 1608.46 849.945 1617.36 857.468 1626.87C876.566 1651.02 898.218 1678.33 931.653 1671.8C948.789 1668.45 965.652 1656.36 983.569 1643.69C999.188 1632.5 1015.33 1620.96 1033.5 1613.62C1064.31 1601.27 1107.69 1598.37 1153.65 1595.21C1181.51 1593.28 1210.43 1591.29 1236.8 1587.11C1296.78 1577.41 1337.31 1555.88 1360.74 1521.31C1367.77 1511.1 1372.38 1499.59 1376.71 1488.44C1380.08 1479.69 1383.56 1470.79 1388.18 1462.62C1391.55 1456.38 1396.87 1451.58 1402.01 1446.76C1404.86 1444.21 1407.87 1441.38 1410.43 1438.4C1415.22 1432.96 1419.83 1427.22 1424.37 1421.59C1429.34 1415.42 1434.49 1408.99 1439.99 1402.89C1448.51 1393.37 1458.16 1384.66 1467.49 1376.05C1476.08 1368.02 1485.07 1359.78 1493.23 1350.89C1499.97 1343.62 1505.36 1335.74 1510.62 1328.08C1516.55 1319.36 1522.51 1310.58 1530.67 1302.51C1544.33 1288.61 1558.6 1273.46 1570.06 1256.54C1579.82 1242.12 1584.16 1227.96 1589.05 1213.07C1590.37 1208.42 1591.9 1203.74 1593.67 1198.8C1597.28 1188.01 1603.96 1177.77 1610.35 1167.75C1614.15 1161.87 1617.98 1155.88 1621.17 1149.88C1633.31 1127.08 1643.71 1104.31 1652.12 1082.16C1654.42 1075.92 1656.56 1069.52 1658.8 1063.38C1659.68 1060.73 1660.64 1058.19 1661.53 1055.54C1665.72 1043.74 1670.15 1031.76 1674.48 1020.14C1686.91 986.465 1699.85 951.677 1706.53 919.902C1710.78 899.682 1714.52 878.068 1709.98 856.714C1694.53 783.476 1625.15 707.142 1561.55 693.16C1532.16 686.764 1495.07 687.127 1457.2 694.387C1394.28 706.482 1371.03 737.532 1374.22 805.332C1374.94 821.127 1376.46 837.107 1377.7 852.539C1380.72 885.988 1383.56 917.541 1380.08 948.089C1378.13 965.585 1372.38 981.315 1368.3 991.448C1359.07 1014.25 1337.95 1053.18 1311.58 1095.41C1285.67 1136.88 1250.82 1167.13 1215.86 1178.5C1149.57 1200 1060.76 1178.64 1009.13 1128.71C983.215 1103.77 955.603 1060.99 970.976 999.796C971.93 996.096 973.457 992.35 975.128 988.361C977.254 983.676 979.317 978.665 980.453 973.217C988.439 959.05 998.479 946.341 1008.24 933.995C1030.24 906.143 1051 879.89 1043.02 842.304C1041.6 835.397 1038.58 828.025 1035.39 820.15C1028.9 803.993 1022.26 787.352 1030.07 777.48C1043.73 760.049 1062.36 741.892 1082.13 722.714C1116.31 689.488 1151.69 654.989 1161.74 622.711C1171.93 590.276 1151.09 558.036 1142.22 544.453C1132.64 529.635 1121.64 514.379 1110.1 498.036C1101.12 485.514 1091.82 472.508 1083.02 459.623C1075.74 448.83 1068.65 438.483 1061.65 428.247C1045.51 404.42 1030.24 382.127 1014.52 358.124C1008.31 348.604 1002.09 338.369 995.998 328.561C985.777 312.041 975.301 295.037 964.762 280.628C941.693 248.992 915.681 236.033 887.215 241.917C858.995 247.83 828.366 270.169 801.854 290.501C798.202 293.225 794.649 295.949 791.106 298.784C741.598 336.807 685.338 379.84 670.538 427.661C658.009 468.445 681.186 487.438 705.672 507.481C708.335 509.657 710.996 511.841 713.559 514.128C729.886 527.822 742.406 542.092 752.419 554.075C766.084 570.484 778.259 590.174 789.97 609.231C798.202 622.711 806.007 635.559 813.82 646.018C840.723 682.042 875.576 697.948 909.221 713.455C942.293 728.524 976.364 743.966 1002.2 778.567C1002.2 779.841 1002.28 781.04 1002.28 782.277C1002.39 785.902 1002.56 789.574 1001.57 792.912C970.867 826.863 932.816 835.332 885.152 819.063C870.606 814.052 856.232 806.169 840.968 797.634C806.897 778.753 771.689 759.323 731.121 771.92C701.947 780.928 681.722 801.994 662.097 822.326C642.753 842.481 622.801 863.258 593.881 873.643C576.918 879.527 559.456 881.228 534.86 883.264C472.923 888.061 443.039 895.322 417.563 928.362C384.018 972.055 342.67 1049.11 330.004 1080.96C325.034 1093.71 321.909 1103.22 320.491 1110.19C309.67 1165.75 343.024 1209.15 373.197 1240.93C380.466 1248.48 388.561 1255.56 396.266 1262.28C403.18 1268.38 410.386 1274.62 417.027 1281.23C430.511 1295.07 441.34 1311.48 451.734 1327.35C457.131 1335.45 462.456 1343.69 468.243 1351.61C509.838 1408.33 522.367 1457.83 508.947 1512.12C499.189 1551.09 477.002 1600.36 426.004 1613.8C407.269 1618.7 387.035 1621.17 365.738 1623.61C345.977 1626.04 325.388 1628.4 305.336 1633.12C287.764 1637.22 271.156 1642.49 255.119 1647.76C232.65 1654.84 211.462 1661.74 189.529 1664.57C151.124 1669.8 117.052 1661.56 84.0432 1653.82C54.9415 1646.85 27.2573 1640.31 0 1644.05V1645.32C27.1573 1641.47 54.6598 1648.01 83.7615 1654.95C116.879 1662.83 151.024 1670.89 189.702 1665.73C211.816 1662.83 232.932 1656.04 255.474 1648.85C271.437 1643.69 288.118 1638.39 305.69 1634.32C325.743 1629.71 346.04 1627.24 365.847 1624.88C387.216 1622.34 407.442 1619.98 426.258 1615C467.072 1604.18 496.1 1568.77 510.01 1512.48C523.603 1457.76 511.01 1407.97 469.197 1350.81C463.519 1342.97 458.122 1334.72 452.798 1326.74C442.222 1310.76 431.4 1294.23 417.736 1280.51C411.167 1273.72 403.998 1267.43 397.084 1261.44C389.343 1254.65 381.356 1247.64 374.079 1240.05C344.096 1208.64 310.905 1165.5 321.736 1110.37C323.08 1103.47 326.17 1094.07 331.14 1081.43C343.742 1049.65 385.009 972.669 418.444 929.161C443.575 896.521 473.459 889.149 534.96 884.315C559.628 882.428 577.091 880.689 594.308 874.619C623.51 864.383 643.571 843.392 662.978 823.237C683.321 801.994 702.556 781.914 731.403 773.12C771.58 760.662 806.651 780.017 840.432 798.722C855.805 807.145 870.179 815.242 884.725 820.262C932.998 836.67 971.503 828.025 1002.63 793.711L1002.74 793.46C1003.69 789.714 1003.62 785.902 1003.34 782.277C1003.34 780.929 1003.34 779.655 1003.34 778.391V778.205L1003.17 778.028C977.254 743.166 942.938 727.437 909.747 712.293C876.212 697.046 841.431 681.066 814.81 645.293C807.078 634.834 799.192 622.051 790.924 608.506C779.212 589.439 767.074 569.833 753.309 553.239C743.296 541.255 730.767 527.022 714.367 513.106C711.714 510.819 709.052 508.755 706.454 506.57C682.249 486.713 659.362 467.897 671.673 428.024C686.402 380.565 742.406 337.709 791.741 299.76C795.367 297.036 799.019 294.21 802.572 291.412C828.902 271.071 859.422 248.927 887.387 243.117C915.326 237.306 941.057 250.089 963.871 281.353C974.42 295.698 984.814 312.766 994.999 329.174C1001.03 338.982 1007.25 349.152 1013.56 358.774C1029.18 382.741 1044.51 405.145 1060.66 428.972C1067.68 439.105 1074.78 449.629 1082.13 460.385C1090.83 473.233 1100.06 486.239 1109.11 498.77C1120.75 515.002 1131.75 530.36 1141.23 545.067C1150.03 558.686 1170.61 590.462 1160.68 622.312C1150.63 654.45 1115.31 688.577 1081.24 721.849C1061.48 741.093 1042.74 759.212 1029.07 776.643C1020.91 787.213 1027.65 804.17 1034.39 820.625C1037.52 828.396 1040.54 835.834 1041.85 842.481C1049.77 879.527 1029.07 905.557 1007.25 933.159C997.489 945.616 987.367 958.436 979.381 972.669L979.317 972.92C978.145 978.303 976.119 983.202 973.993 987.924C972.394 991.987 970.685 995.733 969.804 999.471C957.738 1047.73 971.403 1093.96 1008.42 1129.66C1060.23 1179.84 1149.57 1201.16 1216.29 1179.66C1251.43 1168.11 1286.56 1137.72 1312.47 1096.14C1338.91 1053.76 1360.21 1014.79 1369.36 991.913C1373.51 981.677 1379.19 965.882 1381.25 948.228C1384.7 917.541 1381.85 885.988 1378.94 852.465C1377.53 837.033 1376.11 821.052 1375.39 805.332C1373.8 771.056 1378.94 746.978 1391.55 729.909C1404.39 712.729 1425.26 701.76 1457.38 695.661C1495.18 688.438 1532.08 687.963 1561.26 694.387C1624.54 708.23 1693.39 784.201 1708.73 857.011C1713.27 878.068 1709.55 899.496 1705.36 919.651C1698.72 951.426 1685.77 986.102 1673.34 1019.63C1669.09 1031.32 1664.65 1043.3 1660.46 1055.1C1659.5 1057.72 1658.61 1060.37 1657.62 1063.02C1655.6 1069.19 1653.29 1075.52 1650.98 1081.79C1642.64 1103.84 1632.36 1126.57 1620.18 1149.23C1616.98 1155.26 1613.08 1161.21 1609.35 1167.13C1602.96 1177.12 1596.22 1187.47 1592.5 1198.44C1590.82 1203.34 1589.3 1208.17 1587.81 1212.71C1583.19 1227.49 1578.76 1241.58 1569.18 1255.81C1557.64 1272.7 1543.44 1287.77 1529.79 1301.61C1521.69 1309.67 1515.59 1318.67 1509.63 1327.28C1504.47 1335.02 1499.09 1342.79 1492.41 1350.09C1484.36 1358.87 1475.3 1367.23 1466.6 1375.11C1457.27 1383.75 1447.69 1392.54 1438.99 1402.16C1433.67 1408.26 1428.35 1414.62 1423.38 1420.9C1418.94 1426.42 1414.33 1432.16 1409.54 1437.6C1406.98 1440.47 1404.04 1443.31 1401.2 1445.92C1395.98 1450.75 1390.73 1455.65 1387.18 1462.08C1382.39 1470.36 1378.94 1479.26 1375.57 1487.86C1371.2 1499.05 1366.7 1510.56 1359.85 1520.65C1336.61 1554.97 1296.32 1576.22 1236.63 1585.84C1210.36 1590.09 1181.51 1592.12 1153.57 1594.01C1107.51 1597.21 1064.03 1600.07 1033.09 1612.53C1014.81 1619.87 998.479 1631.41 982.86 1642.6C965.116 1655.31 948.325 1667.29 931.471 1670.52C898.745 1676.99 877.348 1650.01 858.358 1626.15C850.726 1616.63 843.63 1607.52 835.998 1600.8C829.72 1595.21 824.214 1589.4 818.963 1583.59C809.205 1573.13 800.155 1563.32 786.417 1555.44C769.636 1545.78 751.637 1538.16 734.32 1530.93C730.522 1529.37 726.797 1527.74 722.963 1526.18C672.737 1504.68 643.816 1477.91 623.51 1433.68C610.453 1405.54 605.484 1376.41 606.838 1336.25C608.073 1296.7 574.074 1267.91 546.744 1244.77L545.791 1244.01C540.003 1239.04 533.897 1234.13 527.401 1229.05C498.226 1205.81 467.953 1181.73 457.668 1146.43C454.288 1134.45 454.751 1123.27 456.596 1110.37C465.118 1047.23 509.765 999.471 572.939 986.037C593.527 981.566 612.334 979.316 630.324 976.917C647.469 974.779 663.687 972.557 679.305 969.034C688.282 967.045 699.185 963.772 708.871 960.872C713.486 959.412 717.92 958.073 721.999 956.986C746.495 949.976 765.547 951.315 780.384 960.937C808.068 978.842 817.363 1023.4 826.704 1079.62C828.657 1091.6 832.627 1103.77 836.816 1116.58C844.693 1140.91 852.962 1166.04 846.756 1189.54C842.677 1204.83 833.264 1219.68 824.214 1234.24C803.526 1267.25 783.937 1298.52 823.505 1331.57C832.909 1339.45 842.567 1346.78 851.971 1353.79C888.35 1381.21 922.704 1407.1 932.107 1458.99C940.63 1505.29 969.804 1534.16 1019.07 1544.69C1118.33 1566.23 1196.52 1568.23 1251 1550.8C1293.66 1537.11 1326.07 1504.39 1337.67 1463.21C1350.55 1417.88 1371.2 1368.75 1401.02 1312.75C1410.07 1295.8 1421.43 1276.08 1436.44 1258.54C1446.98 1246.23 1459.69 1235.4 1471.93 1224.98C1481.59 1216.59 1491.63 1208.06 1500.68 1198.73C1507.07 1192.01 1513.7 1185.18 1520.09 1178.75C1537.48 1161.14 1555.52 1142.8 1571.66 1123.48C1600.3 1089.06 1621.95 1044.64 1637.85 987.738L1639.45 982.114C1649.21 947.791 1661.18 905.055 1646.08 863.909C1627.1 812.527 1580 775.843 1525.95 770.581C1484.25 766.584 1460.4 785 1453.48 827.048C1450 847.092 1451.7 866.633 1453.37 885.514C1453.83 891.325 1454.26 896.772 1454.61 902.22C1455.15 909.741 1455.67 917.113 1456.32 924.374C1457.81 943.004 1459.4 962.21 1458.16 981.928C1454.01 1043.3 1435.8 1066.36 1401.48 1105.04C1366.7 1144.07 1326.49 1187.29 1289.15 1205.08C1265.62 1216.34 1202.73 1241.11 1128.62 1227.96C1001.57 1205.45 928.273 1141.71 910.529 1038.33C908.684 1026.96 907.621 1016.54 906.631 1005.61C905.313 992.824 904.069 979.753 901.125 963.224C896.618 937.63 878.874 909.917 852.325 886.964C826.059 864.448 795.821 850.178 769.1 848.04C738.218 845.567 714.731 863.909 695.814 878.793L693.08 880.978C673.382 896.298 654.992 909.843 629.37 919.539C612.934 925.712 590.156 929.747 568.151 933.744C550.651 936.831 534.079 939.806 520.586 943.729C444.638 965.948 408.332 1053.9 396.193 1090.69L395.303 1093.71C389.806 1110.12 383.128 1130.38 388.034 1153.95C395.376 1189.54 423.524 1219.43 445.775 1238.2C496.282 1281.09 527.401 1342.42 551.006 1397C556.085 1408.7 558.456 1421.52 560.763 1433.94C563.253 1446.86 565.661 1460.26 571.239 1472.72C583.405 1500.5 598.388 1522.4 615.705 1537.72C631.85 1552.14 651.621 1561.87 670.61 1571.31C685.266 1578.69 700.357 1586.09 713.658 1595.64C740.525 1614.71 766.901 1640.13 758.024 1683.42C753.663 1705.02 733.965 1726.01 716.394 1744.46C711.887 1749.25 707.699 1753.79 703.728 1758.22C678.951 1786 663.333 1804.71 654.038 1835.86C647.115 1859.11 646.588 1900.69 652.866 1930.54C657.945 1954.61 664.151 1977.75 670.438 2000.01H671.673C665.395 1977.67 659.181 1954.5 654.038 1930.28C647.824 1900.58 648.25 1859.29 655.101 1836.23" fill="#005AC5"/>
</g>
</g>
<defs>
<clipPath id="clip0_205_300">
<rect width="2560" height="1440" fill="white"/>
</clipPath>
</defs>
</svg>
